<svg xmlns="http://www.w3.org/2000/svg" width="29.757" height="35.736" viewBox="0 0 29.757 35.736">
  <g id="bell" transform="translate(-43.125 512.358)">
    <path id="Path_231" data-name="Path 231" d="M57.273-511.832a2.969,2.969,0,0,0-2.041,1.911,5.928,5.928,0,0,0-.157,1.556l-.041,1.222-.58.225a10.142,10.142,0,0,0-3.426,2.136,10.077,10.077,0,0,0-2.675,4.184c-.464,1.386-.464,1.392-.519,5.214-.055,3.651-.082,4-.41,5.187a9.439,9.439,0,0,1-.744,1.863,10.133,10.133,0,0,1-2.027,2.71C43.6-484.573,43.5-484.4,43.5-483.542a1.671,1.671,0,0,0,.157.942,2.338,2.338,0,0,0,1.024,1.017l.389.191,3.938.021,3.945.021.041.184a5.055,5.055,0,0,0,1.235,2.464,4.919,4.919,0,0,0,3.46,1.693,4.88,4.88,0,0,0,3.931-1.542,4.8,4.8,0,0,0,1.392-2.614l.041-.184L67-481.372l3.938-.021.389-.191A2.337,2.337,0,0,0,72.35-482.6a1.671,1.671,0,0,0,.157-.942c0-.86-.1-1.037-1.153-2.082a10.2,10.2,0,0,1-2.778-4.586c-.314-1.1-.348-1.536-.4-5.173-.055-3.815-.061-3.829-.512-5.194a10.074,10.074,0,0,0-2.682-4.2,10.142,10.142,0,0,0-3.426-2.136l-.58-.225-.041-1.222a5.346,5.346,0,0,0-.177-1.6A2.919,2.919,0,0,0,57.273-511.832Zm1.433,1.549a1.8,1.8,0,0,1,.491.45c.2.293.2.307.225,1.3l.02,1H56.57v-.908a3.546,3.546,0,0,1,.1-1.16A1.432,1.432,0,0,1,58.706-510.283Zm.88,4.327a8.818,8.818,0,0,1,6.7,5.829c.389,1.181.4,1.276.45,5.017s.075,4.047.457,5.358a11.807,11.807,0,0,0,3.262,5.3c.648.58.764.839.539,1.263s.607.4-13,.4-12.777.027-13-.4-.109-.682.539-1.263a11.807,11.807,0,0,0,3.262-5.3c.375-1.3.4-1.624.457-5.358s.061-3.843.45-5.017A8.953,8.953,0,0,1,53.758-505a9.54,9.54,0,0,1,3.3-1.065A10.3,10.3,0,0,1,59.587-505.956Zm1.938,24.782a4.43,4.43,0,0,1-.833,1.515,3.494,3.494,0,0,1-2.655,1.188,3.532,3.532,0,0,1-2.7-1.16,4.522,4.522,0,0,1-.86-1.542l-.041-.184h7.125Z" transform="translate(0 0)" fill="#fff" stroke="#fff" stroke-width="0.75"/>
  </g>
</svg>
