<svg xmlns="http://www.w3.org/2000/svg" width="20.614" height="20.631" viewBox="0 0 20.614 20.631">
  <g id="calendar" transform="translate(-0.45 511.691)">
    <path id="Path_41" data-name="Path 41" d="M5.217-511.6a.922.922,0,0,0-.485.5,3.217,3.217,0,0,0-.044.6v.449l-.769.016a3.415,3.415,0,0,0-1.134.128,3.277,3.277,0,0,0-2.172,2.168l-.112.361v13.586l.112.361a3.291,3.291,0,0,0,2.172,2.172l.361.112h6.937l.164-.108a.721.721,0,0,0,.353-.673.721.721,0,0,0-.353-.673l-.164-.108-3.366-.02-3.37-.02-.232-.092a1.629,1.629,0,0,1-.938-.986c-.068-.192-.072-.553-.072-6.757s0-6.565.072-6.757a1.613,1.613,0,0,1,.938-.982,2.417,2.417,0,0,1,.9-.108l.669-.016.012.537c.016.477.024.549.112.685a1.054,1.054,0,0,0,.256.26.608.608,0,0,0,.429.108.608.608,0,0,0,.429-.108,1.054,1.054,0,0,0,.256-.26c.088-.136.1-.208.108-.685l.016-.529H9.89l.016.533c.012.5.02.545.12.7a.715.715,0,0,0,.677.353.623.623,0,0,0,.425-.108,1.054,1.054,0,0,0,.256-.26c.088-.136.1-.208.108-.685l.016-.529H15.14l.016.533c.012.5.02.545.12.7a.715.715,0,0,0,.677.353.623.623,0,0,0,.425-.108,1.054,1.054,0,0,0,.256-.26c.088-.136.1-.208.112-.685l.012-.537.689.016a2.366,2.366,0,0,1,.9.1,1.609,1.609,0,0,1,.934.918l.092.232.02,2.585.02,2.585.1.152a1.053,1.053,0,0,0,.256.26.623.623,0,0,0,.425.108.715.715,0,0,0,.677-.353l.108-.164v-5.374l-.112-.361a3.285,3.285,0,0,0-2.172-2.168,3.463,3.463,0,0,0-1.15-.128l-.785-.016-.016-.529c-.012-.5-.02-.541-.12-.693a.721.721,0,0,0-.673-.353.721.721,0,0,0-.673.353c-.1.152-.108.2-.12.7l-.016.533H11.509l-.016-.533c-.012-.473-.02-.545-.108-.681a1.054,1.054,0,0,0-.256-.26.623.623,0,0,0-.425-.108.716.716,0,0,0-.677.353c-.1.152-.108.2-.12.7l-.016.533H6.3l-.016-.533c-.012-.5-.02-.545-.12-.7a1.045,1.045,0,0,0-.248-.248A1.015,1.015,0,0,0,5.217-511.6Z" stroke="#000" stroke-width="0.1"/>
    <path id="Path_42" data-name="Path 42" d="M105.723-321.63a.9.9,0,0,0-.493.525.829.829,0,0,0,.353.918.862.862,0,0,0,.842-.012.721.721,0,0,0,.353-.673.717.717,0,0,0-.341-.665A.971.971,0,0,0,105.723-321.63Z" transform="translate(-100.506 -182.353)" stroke="#000" stroke-width="0.1"/>
    <path id="Path_43" data-name="Path 43" d="M192.723-321.63a.9.9,0,0,0-.493.525.829.829,0,0,0,.353.918.862.862,0,0,0,.842-.012.721.721,0,0,0,.353-.673.717.717,0,0,0-.341-.665A.971.971,0,0,0,192.723-321.63Z" transform="translate(-184.019 -182.353)" stroke="#000" stroke-width="0.1"/>
    <path id="Path_44" data-name="Path 44" d="M279.723-321.63a.9.9,0,0,0-.493.525.829.829,0,0,0,.353.918.862.862,0,0,0,.842-.012.721.721,0,0,0,.353-.673.717.717,0,0,0-.341-.665A.971.971,0,0,0,279.723-321.63Z" transform="translate(-267.533 -182.353)" stroke="#000" stroke-width="0.1"/>
    <path id="Path_45" data-name="Path 45" d="M366.723-321.63a.9.9,0,0,0-.493.525.829.829,0,0,0,.353.918.862.862,0,0,0,.842-.012.721.721,0,0,0,.353-.673.717.717,0,0,0-.341-.665A.972.972,0,0,0,366.723-321.63Z" transform="translate(-351.046 -182.353)" stroke="#000" stroke-width="0.1"/>
    <path id="Path_46" data-name="Path 46" d="M274.244-241.807a4.877,4.877,0,0,0-2.753,1.407,4.538,4.538,0,0,0-.9,1.278,4.737,4.737,0,0,0,0,4.208,4.765,4.765,0,0,0,2.244,2.244,4.728,4.728,0,0,0,4.216,0,4.765,4.765,0,0,0,2.244-2.244,4.737,4.737,0,0,0,0-4.208,4.765,4.765,0,0,0-2.244-2.244A4.753,4.753,0,0,0,274.244-241.807Zm1.27,1.6a3.264,3.264,0,0,1,2.677,3.19,3.264,3.264,0,0,1-2.677,3.19,3.253,3.253,0,0,1-3.066-1.126,3.23,3.23,0,0,1,0-4.128A3.262,3.262,0,0,1,275.514-240.208Z" transform="translate(-258.795 -258.954)" stroke="#000" stroke-width="0.1"/>
    <path id="Path_47" data-name="Path 47" d="M371.663-181.744a.9.9,0,0,0-.489.517,7.78,7.78,0,0,0-.032,1.158l.012.994.108.16a1.055,1.055,0,0,0,.26.256c.148.092.176.1.994.1s.846,0,.994-.1a1.054,1.054,0,0,0,.26-.256.862.862,0,0,0,.012-.842.788.788,0,0,0-.725-.381l-.313-.016-.016-.549c-.012-.489-.02-.561-.108-.7A.861.861,0,0,0,371.663-181.744Z" transform="translate(-355.785 -316.628)" stroke="#000" stroke-width="0.1"/>
    <path id="Path_48" data-name="Path 48" d="M105.723-234.63a.9.9,0,0,0-.493.525.829.829,0,0,0,.353.918.862.862,0,0,0,.842-.012.721.721,0,0,0,.353-.673.717.717,0,0,0-.341-.665A.971.971,0,0,0,105.723-234.63Z" transform="translate(-100.506 -265.866)" stroke="#000" stroke-width="0.1"/>
    <path id="Path_49" data-name="Path 49" d="M192.723-234.63a.9.9,0,0,0-.493.525.829.829,0,0,0,.353.918.862.862,0,0,0,.842-.012.721.721,0,0,0,.353-.673.717.717,0,0,0-.341-.665A.971.971,0,0,0,192.723-234.63Z" transform="translate(-184.019 -265.866)" stroke="#000" stroke-width="0.1"/>
    <path id="Path_50" data-name="Path 50" d="M105.723-147.63a.9.9,0,0,0-.493.525.829.829,0,0,0,.353.918.862.862,0,0,0,.842-.012.721.721,0,0,0,.353-.673.717.717,0,0,0-.341-.665A.972.972,0,0,0,105.723-147.63Z" transform="translate(-100.506 -349.379)" stroke="#000" stroke-width="0.1"/>
    <path id="Path_51" data-name="Path 51" d="M192.723-147.63a.9.9,0,0,0-.493.525.829.829,0,0,0,.353.918.862.862,0,0,0,.842-.012.721.721,0,0,0,.353-.673.717.717,0,0,0-.341-.665A.972.972,0,0,0,192.723-147.63Z" transform="translate(-184.019 -349.379)" stroke="#000" stroke-width="0.1"/>
  </g>
</svg>
