<svg xmlns="http://www.w3.org/2000/svg" width="123.754" height="123.619" viewBox="0 0 123.754 123.619">
  <g id="categories" transform="translate(0.432 512.269)">
    <path id="Path_285" data-name="Path 285" d="M12.1-511.41A15.368,15.368,0,0,0,.594-492.976a13.51,13.51,0,0,0,4.075,7.1,13.949,13.949,0,0,0,11.387,4.507,14.911,14.911,0,0,0,7.384-2.253l1.414-.887,7.527,7.527c7.144,7.144,7.527,7.575,7.527,8.414a1.714,1.714,0,0,0,1.942,1.774c.527-.1.911.192,2.685,1.966a21.037,21.037,0,0,1,2.086,2.253,10.633,10.633,0,0,1-.935,1.51A18.8,18.8,0,0,0,42.474-450.4a18.8,18.8,0,0,0,3.212,10.668,10.634,10.634,0,0,1,.935,1.51c0,.1-7.863,8.031-17.476,17.644L11.693-403.126l-1.366-.5a7.54,7.54,0,0,0-9.421,3.764,8.116,8.116,0,0,0-.144,6.3,7.939,7.939,0,0,0,3.62,3.74,5.812,5.812,0,0,0,3.284.671,5.812,5.812,0,0,0,3.284-.671,7.523,7.523,0,0,0,3.788-9.3l-.527-1.486,14.144-14.144L42.5-428.9l1.031.863c1.223,1.055,2.253,1.175,3.045.336.839-.887.7-1.774-.479-2.853l-1.007-.935L47.1-433.5a20.121,20.121,0,0,1,2.205-2.038,7.018,7.018,0,0,1,1.342.839,23.733,23.733,0,0,0,2.709,1.558,23.681,23.681,0,0,0,5.777,1.678c.408,0,.432.384.432,7.983v8.007l-1.007.288a9.9,9.9,0,0,0-5.945,5.705,11.126,11.126,0,0,0-.168,6.137A9.517,9.517,0,0,0,65.8-397.781a9.488,9.488,0,0,0,3.092-14.264,10.1,10.1,0,0,0-4.459-3.14l-1.031-.288v-6.4h.911c2.661-.048,4.339-1.031,4-2.373-.288-1.223-.959-1.534-3.045-1.342l-1.87.168v-5.921l1.87-.408a18.8,18.8,0,0,0,11.459-7.216,5.793,5.793,0,0,1,1.295-1.438c.1.024,1.318.6,2.733,1.247l2.565,1.2-.432.671c-.216.36-.815,1.223-1.318,1.894-1.079,1.438-1.151,2.277-.312,3.092,1.175,1.2,2.014.791,3.86-1.918a15.094,15.094,0,0,1,1.534-2.038c.1,0,2.421,1.079,5.154,2.4,4.914,2.373,4.962,2.421,4.795,3.069a18.356,18.356,0,0,0-.024,6.473,13.34,13.34,0,0,0,11.435,10.188,13.351,13.351,0,0,0,7.575-1.39,13.429,13.429,0,0,0,7.1-13.688c-.336-2.325-.863-3.092-2.11-3.092a1.411,1.411,0,0,0-1.366.623c-.455.575-.455.743-.168,2.469a9.458,9.458,0,0,1-2.517,8.51,9.627,9.627,0,0,1-15.75-2.517,9.889,9.889,0,0,1,.408-9.11,11.431,11.431,0,0,1,4.363-3.883c1.223-.575,1.654-.647,4-.647,2.493,0,2.733.048,4.243.767,1.894.935,2.086.959,2.925.288a1.658,1.658,0,0,0,.1-2.541c-1.486-1.342-4.387-2.229-7.384-2.229a12.762,12.762,0,0,0-9.493,4.1l-1.606,1.678-1.1-.479c-1.175-.5-17.6-8.414-17.692-8.51a10.626,10.626,0,0,1,.432-1.966,21.791,21.791,0,0,0,.144-8.8,21.892,21.892,0,0,0-2.829-6.521,10.635,10.635,0,0,1-.935-1.51,19.317,19.317,0,0,1,2.062-2.205l2.062-2.038.623.839c1.75,2.277,2.685,2.661,3.764,1.558.887-.863.743-1.582-.623-3.38l-1.223-1.606,4.795-4.795L92.6-479l1.534.7a7.014,7.014,0,0,0,3.908.7c2.11,0,2.565-.072,3.788-.647a9.581,9.581,0,0,0,5.466-10.188,9.432,9.432,0,0,0-7.575-7.743,9.429,9.429,0,0,0-10.236,5.226c-.743,1.486-.791,1.774-.791,4a7.014,7.014,0,0,0,.7,3.908l.7,1.51-8.127,8.151c-4.459,4.459-8.2,8.127-8.295,8.127a10.628,10.628,0,0,1-1.51-.935,18.8,18.8,0,0,0-10.668-3.212A18.8,18.8,0,0,0,50.816-466.2a10.627,10.627,0,0,1-1.51.935,19.84,19.84,0,0,1-2.181-2.014c-1.966-1.966-1.99-2.014-1.606-2.565a1.736,1.736,0,0,0-1.342-2.853,2.111,2.111,0,0,0-1.2.408c-.432.384-.767.1-8.031-7.168l-7.575-7.575.887-1.414a16.1,16.1,0,0,0,2.182-10.26c-.264-2.277-1.942-3.308-3.188-1.966-.5.527-.527.719-.384,3.068a10,10,0,0,1-.264,3.932,11.64,11.64,0,0,1-14.1,8.39,11.673,11.673,0,0,1-8.534-13.593A11.78,11.78,0,0,1,16.248-508.1,11.351,11.351,0,0,1,22-506.017a7.947,7.947,0,0,0,2.3,1.2A2.142,2.142,0,0,0,26-506.64c0-1.294-2.661-3.212-5.993-4.339A16.714,16.714,0,0,0,12.1-511.41Zm87.716,18.962a5.941,5.941,0,0,1,4,6.257,5.876,5.876,0,0,1-9.949,3.4,5.9,5.9,0,0,1,2.613-9.829A5.577,5.577,0,0,1,99.816-492.448Zm-34.3,27.089a15.979,15.979,0,0,1,9.565,7.671A14.137,14.137,0,0,1,76.9-450.4a15.047,15.047,0,0,1-4.507,10.907,15.047,15.047,0,0,1-10.908,4.507,15.008,15.008,0,0,1-10.908-4.507,15.03,15.03,0,0,1-4.435-8.99A15.464,15.464,0,0,1,52.83-463.2,15.584,15.584,0,0,1,65.511-465.359ZM63.57-411.685a5.8,5.8,0,0,1,3.716,5.37,5.635,5.635,0,0,1-5.8,5.873c-6.425,0-8.079-8.654-2.158-11.219A6.594,6.594,0,0,1,63.57-411.685ZM9.392-400.154a4.008,4.008,0,0,1,1.7,5.49,4.569,4.569,0,0,1-3.428,2.038,4.739,4.739,0,0,1-1.8-.551,4.136,4.136,0,0,1-2.158-3.476,4.4,4.4,0,0,1,2.637-3.716A4.974,4.974,0,0,1,9.392-400.154Z" transform="translate(0 0)" fill="#8967b3" stroke="#8967b3" stroke-width="1"/>
    <path id="Path_286" data-name="Path 286" d="M249.66-375.329a1.614,1.614,0,0,0-.072,2.469c.432.408.983.551,2.829.671,2.541.192,3.212,0,3.572-.983a1.814,1.814,0,0,0-.767-2.11,9.456,9.456,0,0,0-2.757-.5C250.307-375.952,250.235-375.928,249.66-375.329Z" transform="translate(-189.23 -103.263)" fill="#8967b3" stroke="#8967b3" stroke-width="1"/>
    <path id="Path_287" data-name="Path 287" d="M206.271-370.323c-1.966.743-2.613,1.175-2.8,1.942a1.963,1.963,0,0,0,1.079,2.062c.408.216.911.12,2.685-.5a10.835,10.835,0,0,0,2.637-1.247,1.815,1.815,0,0,0-.072-2.349C209.172-371.043,208.141-371.019,206.271-370.323Z" transform="translate(-154.544 -107.07)" fill="#8967b3" stroke="#8967b3" stroke-width="1"/>
    <path id="Path_288" data-name="Path 288" d="M295.092-365.548a1.828,1.828,0,0,0-.575,2.11c.24.623,4,2.8,4.818,2.8a1.942,1.942,0,0,0,1.678-1.774c0-.983-.575-1.534-2.709-2.637C296.507-365.979,295.859-366.1,295.092-365.548Z" transform="translate(-223.708 -110.863)" fill="#8967b3" stroke="#8967b3" stroke-width="1"/>
    <path id="Path_289" data-name="Path 289" d="M144.11-312.475a12.9,12.9,0,0,0-2.11,4.818,2.21,2.21,0,0,0,1.75,1.678c.935,0,1.51-.7,2.445-2.973.959-2.373.911-3.164-.264-3.716A1.411,1.411,0,0,0,144.11-312.475Z" transform="translate(-107.845 -151.135)" fill="#8967b3" stroke="#8967b3" stroke-width="1"/>
    <path id="Path_290" data-name="Path 290" d="M355.653-297.419c-.623.791-.623.719.1,3.332.719,2.757,1.342,3.332,2.877,2.757,1.031-.408,1.175-1.247.575-3.692a8.38,8.38,0,0,0-.959-2.565A1.806,1.806,0,0,0,355.653-297.419Z" transform="translate(-269.933 -162.426)" fill="#8967b3" stroke="#8967b3" stroke-width="1"/>
    <path id="Path_291" data-name="Path 291" d="M137.147-267.6c-.863.408-1.127,1.414-.935,3.74.12,1.846.216,2.158.767,2.613a1.524,1.524,0,0,0,2.589-.384,6.542,6.542,0,0,0,.192-2.973c-.1-2.134-.168-2.373-.719-2.8A1.484,1.484,0,0,0,137.147-267.6Z" transform="translate(-103.399 -185.391)" fill="#8967b3" stroke="#8967b3" stroke-width="1"/>
    <path id="Path_292" data-name="Path 292" d="M358.6-251.457c-.479.527-1.414,5.322-1.2,6.185a2.027,2.027,0,0,0,2.086,1.055c.815-.192,1.342-1.223,1.726-3.356a23.81,23.81,0,0,0,.384-2.709A1.824,1.824,0,0,0,358.6-251.457Z" transform="translate(-271.583 -197.504)" fill="#8967b3" stroke="#8967b3" stroke-width="1"/>
    <path id="Path_293" data-name="Path 293" d="M144.6-221.334a1.852,1.852,0,0,0-.6,1.055,14.808,14.808,0,0,0,2.134,4.555,1.681,1.681,0,0,0,2.9-1.055,11.5,11.5,0,0,0-2.229-4.794A1.59,1.59,0,0,0,144.6-221.334Z" transform="translate(-109.365 -220.317)" fill="#8967b3" stroke="#8967b3" stroke-width="1"/>
    <path id="Path_294" data-name="Path 294" d="M302.452-169.8a11.68,11.68,0,0,0-2.086,1.486,1.774,1.774,0,0,0,1.462,2.709A11.721,11.721,0,0,0,306-167.839a1.864,1.864,0,0,0,0-2.661C305.137-171.1,304.37-170.955,302.452-169.8Z" transform="translate(-228.023 -259.14)" fill="#8967b3" stroke="#8967b3" stroke-width="1"/>
    <path id="Path_295" data-name="Path 295" d="M209.568-157.377a1.381,1.381,0,0,0-.216,1.87c.288.647,1.534,1.223,3.979,1.846,1.151.288,1.295.264,1.918-.192a1.7,1.7,0,0,0,.24-2.613A13.4,13.4,0,0,0,210.671-158,1.47,1.47,0,0,0,209.568-157.377Z" transform="translate(-158.847 -268.907)" fill="#8967b3" stroke="#8967b3" stroke-width="1"/>
  </g>
</svg>
