<svg xmlns="http://www.w3.org/2000/svg" width="35.182" height="26.756" viewBox="0 0 35.182 26.756">
  <g id="code" transform="translate(-0.175 450.497)">
    <path id="Path_316" data-name="Path 316" d="M188.715-450.415a.788.788,0,0,0-.33.323c-.22.474-7.385,24.906-7.385,25.174a.7.7,0,0,0,.378.633c.076.041.543.186,1.031.33.866.248.9.254,1.148.151a.653.653,0,0,0,.364-.337c.22-.468,7.392-24.913,7.392-25.188,0-.4-.227-.612-.846-.791-.268-.083-.633-.186-.8-.241C189.114-450.525,188.956-450.539,188.715-450.415Z" transform="translate(-168.391 0)" fill="#fff"/>
    <path id="Path_317" data-name="Path 317" d="M4.894-392.345C1.738-389.182.225-387.621.19-387.5a1.163,1.163,0,0,0,0,.378c.034.131,1.547,1.692,4.7,4.848l4.655,4.662h.681l1.148-1.148c1.183-1.19,1.258-1.3,1.148-1.705a42.327,42.327,0,0,0-3.369-3.521L5.836-387.3l3.321-3.321a41.827,41.827,0,0,0,3.369-3.521c.117-.4-.007-.578-1.176-1.74L10.223-397H9.549Z" transform="translate(0 -49.819)" fill="#fff"/>
    <path id="Path_318" data-name="Path 318" d="M332.647-395.886c-1.169,1.162-1.293,1.341-1.176,1.74a41.834,41.834,0,0,0,3.369,3.521l3.321,3.321-3.314,3.314c-1.822,1.829-3.342,3.4-3.383,3.5-.138.378-.034.536,1.155,1.733l1.148,1.148h.681l4.655-4.655c3.156-3.163,4.669-4.724,4.7-4.855a1.163,1.163,0,0,0,0-.378c-.034-.124-1.547-1.685-4.7-4.848L334.448-397h-.674Z" transform="translate(-308.465 -49.819)" fill="#fff"/>
  </g>
</svg>
