<svg xmlns="http://www.w3.org/2000/svg" width="19.873" height="19.007" viewBox="0 0 19.873 19.007">
  <g id="company" transform="translate(0.1 500.399)">
    <path id="Path_36" data-name="Path 36" d="M5.187-500.282a.887.887,0,0,0-.7.519c-.061.134-.073.265-.073,1.122v.964l-.661.219a8.178,8.178,0,0,0-.822.311,1.458,1.458,0,0,0-.53.588l-.081.177-.012,5.157-.008,5.16H2.179a2.42,2.42,0,0,0-.872.258,2.537,2.537,0,0,0-1.053,1.057A3.279,3.279,0,0,0,0-483.011c0,.818.012.941.073,1.08a.72.72,0,0,0,.5.4c.242.058,18.278.058,18.521,0a.72.72,0,0,0,.5-.4c.065-.142.073-.269.073-1.31,0-1.256-.015-1.395-.223-1.818a2.155,2.155,0,0,0-.761-.784,2,2,0,0,0-.945-.223h-.3V-488.5c0-2.636,0-2.647-.211-2.92a1.013,1.013,0,0,0-.3-.238l-.2-.1H11.489v-7.2l.338.331c.184.181.688.672,1.122,1.087a10.973,10.973,0,0,1,.853.88,7.881,7.881,0,0,1,.069,2.017v1.894l.1.092a.265.265,0,0,0,.4.008l.085-.092-.012-1.975-.012-1.975-.1-.211a9.782,9.782,0,0,0-1.514-1.575c-.772-.749-1.456-1.387-1.514-1.418-.1-.05-.25-.008-2.571.772l-2.463.822v-.58a3.213,3.213,0,0,0-.058-.772A.887.887,0,0,0,5.187-500.282Zm.288.6a.316.316,0,0,1,.169.177,4.564,4.564,0,0,1,.042.765v.642l-.346.115L5-497.865v-.818c0-.765,0-.826.077-.918a.327.327,0,0,1,.165-.115.474.474,0,0,0,.1-.023A.776.776,0,0,1,5.475-499.683Zm5.437,1.222v.784l-1.622.542c-3.554,1.187-4.772,1.61-4.822,1.679a.278.278,0,0,0,.215.438c.061,0,1.475-.457,3.143-1.018s3.039-1.018,3.059-1.018a4.858,4.858,0,0,1,.027.726v.726l-1.852.619c-3.481,1.16-4.538,1.529-4.592,1.6a.278.278,0,0,0,.215.438c.061,0,1.475-.457,3.147-1.018s3.047-1.018,3.059-1.018a6.044,6.044,0,0,1,.023.726v.726l-2.025.676c-3.447,1.149-4.365,1.472-4.419,1.545a.278.278,0,0,0,.215.438c.061,0,1.475-.457,3.147-1.018s3.043-1.018,3.055-1.018a4.827,4.827,0,0,1,.027.722v.726l-3.178,1.064c-2.209.742-3.2,1.091-3.247,1.145a.277.277,0,0,0,.2.453c.058,0,1.472-.457,3.139-1.018s3.043-1.018,3.059-1.018a4.647,4.647,0,0,1,.027.711c0,.649-.008.711-.073.745-.038.023-.922.327-1.967.676s-1.933.661-1.979.692a.257.257,0,0,0-.073.354c.138.211.092.223,2.133-.465,1.041-.35,1.906-.638,1.925-.638s.031,1.406.027,3.331l-.012,3.335-1.237.012-1.241.008v-1.525c0-.884-.015-1.587-.038-1.664a.664.664,0,0,0-.688-.434c-.4.092-2.824.784-2.909.83a.7.7,0,0,0-.173.127c-.165.188-.169.227-.188,1.456L4.4-482.088H2.9l-.012-7.051-.008-7.055.085-.169a.869.869,0,0,1,.188-.242c.058-.042,1.518-.549,3.247-1.13s3.443-1.157,3.8-1.28.665-.227.684-.227A5.542,5.542,0,0,1,10.913-498.461Zm5.856,7.4.1.119v5.007l-.2.115a1.984,1.984,0,0,0-.957,1.718v.223H11.489v-7.3h5.18ZM2.305-484.682v.807H.576l.023-.108A1.889,1.889,0,0,1,1.157-485a1.758,1.758,0,0,1,1.045-.48l.1,0Zm16.054-.68a1.306,1.306,0,0,1,.73,1.168l.019.319H16.28l.023-.3a1.408,1.408,0,0,1,.365-.9,1.235,1.235,0,0,1,1.1-.4A1.127,1.127,0,0,1,18.359-485.362ZM7.831-483.583l-.012,1.495H6.705l-.012-1.368-.008-1.364.546-.158a3.247,3.247,0,0,1,.58-.131C7.827-485.093,7.835-484.409,7.831-483.583Zm-1.721.227v1.287H5L5-483.21l.012-1.145.5-.142c.277-.077.523-.142.549-.142A5.094,5.094,0,0,1,6.109-483.356Zm-3.8.672v.615H1.541a5.709,5.709,0,0,1-.865-.038l-.1-.038V-483.3H2.305Zm13.41,0v.615H11.489v-1.23h4.227Zm3.381-.069a3.018,3.018,0,0,1-.038.607c-.031.05-.227.058-1.391.058H16.311L16.3-482.7l-.012-.6H19.1Z" transform="translate(0 0)" stroke="#000" stroke-width="0.2"/>
    <path id="Path_37" data-name="Path 37" d="M115.774-170.7a2.354,2.354,0,0,0-.642.273.282.282,0,0,0,.207.442,6.548,6.548,0,0,0,1.318-.45.359.359,0,0,0,.05-.192.265.265,0,0,0-.261-.277A6.08,6.08,0,0,0,115.774-170.7Z" transform="translate(-110.659 -316.729)" stroke="#000" stroke-width="0.2"/>
    <path id="Path_38" data-name="Path 38" d="M319.227-244.912c-.2.134-.227.223-.227.749s.035.634.231.753a6.189,6.189,0,0,0,1.664.061h1.552l.131-.088c.188-.127.234-.3.219-.8-.019-.465-.073-.611-.277-.707a6.442,6.442,0,0,0-1.648-.061C319.357-245,319.357-245,319.227-244.912Zm3,.738v.25h-2.651v-.5h2.651Z" transform="translate(-306.743 -245.484)" stroke="#000" stroke-width="0.2"/>
    <path id="Path_39" data-name="Path 39" d="M319.2-187.912a.649.649,0,0,0-.177.181,3.061,3.061,0,0,0,.008,1.153c.119.231.131.231,1.86.231h1.572l.119-.1c.158-.134.207-.338.188-.8-.019-.446-.077-.592-.277-.688a6.442,6.442,0,0,0-1.648-.061C319.329-188,319.329-188,319.2-187.912Zm3,.738v.25h-2.651v-.5H322.2Z" transform="translate(-306.715 -300.294)" stroke="#000" stroke-width="0.2"/>
    <path id="Path_40" data-name="Path 40" d="M319.227-129.935c-.192.119-.227.231-.227.749s.027.615.231.753c.131.085.158.088.761.077l.63-.012.131-.142.131-.146v-.5c0-.811-.038-.845-.949-.845C319.442-130,319.307-129.985,319.227-129.935Zm1.08.761v.25h-.73v-.5h.73Z" transform="translate(-306.743 -356.065)" stroke="#000" stroke-width="0.2"/>
  </g>
</svg>
