<svg xmlns="http://www.w3.org/2000/svg" width="22.102" height="21.147" viewBox="0 0 22.102 21.147">
  <g id="company" transform="translate(0.2 500.5)">
    <path id="Path_36" data-name="Path 36" d="M5.722-500.281a.979.979,0,0,0-.767.572c-.068.148-.081.292-.081,1.238v1.064l-.729.242a9.031,9.031,0,0,0-.907.343,1.608,1.608,0,0,0-.585.649l-.089.195-.013,5.688L2.543-484.6H2.4a2.669,2.669,0,0,0-.962.284A2.8,2.8,0,0,0,.28-483.148a3.617,3.617,0,0,0-.28,1.92c0,.9.013,1.038.081,1.191a.794.794,0,0,0,.555.437c.267.064,20.163.064,20.43,0a.794.794,0,0,0,.555-.437c.072-.157.081-.3.081-1.445,0-1.386-.017-1.539-.246-2a2.377,2.377,0,0,0-.839-.865,2.2,2.2,0,0,0-1.043-.246h-.331v-2.683c0-2.908,0-2.92-.233-3.221a1.117,1.117,0,0,0-.331-.263l-.216-.106h-5.79v-7.948l.373.365c.2.2.759.742,1.238,1.2a12.1,12.1,0,0,1,.941.971,8.694,8.694,0,0,1,.076,2.225v2.09l.106.1a.293.293,0,0,0,.441.008l.093-.1-.013-2.179-.013-2.179-.114-.233a10.792,10.792,0,0,0-1.67-1.738c-.852-.826-1.606-1.53-1.67-1.564-.114-.055-.276-.008-2.836.852l-2.717.907v-.64a3.544,3.544,0,0,0-.064-.852A.979.979,0,0,0,5.722-500.281Zm.318.661a.348.348,0,0,1,.187.195,5.036,5.036,0,0,1,.047.844v.708l-.381.127-.381.131v-.9c0-.844,0-.911.085-1.013a.36.36,0,0,1,.182-.127.521.521,0,0,0,.106-.025A.854.854,0,0,1,6.04-499.62Zm6,1.348v.865l-1.789.6c-3.921,1.31-5.264,1.776-5.32,1.852a.307.307,0,0,0,.237.483c.068,0,1.628-.5,3.467-1.123s3.353-1.123,3.374-1.123a5.359,5.359,0,0,1,.03.8v.8l-2.043.682c-3.84,1.28-5.006,1.687-5.065,1.768a.307.307,0,0,0,.237.483c.068,0,1.628-.5,3.471-1.123s3.361-1.123,3.374-1.123a6.668,6.668,0,0,1,.025.8v.8l-2.234.746c-3.8,1.267-4.815,1.623-4.874,1.7a.307.307,0,0,0,.237.483c.068,0,1.628-.5,3.471-1.123s3.357-1.123,3.37-1.123a5.325,5.325,0,0,1,.03.8v.8l-3.505,1.174c-2.437.818-3.531,1.2-3.582,1.263a.305.305,0,0,0,.22.5c.064,0,1.623-.5,3.463-1.123s3.357-1.123,3.374-1.123a5.127,5.127,0,0,1,.03.784c0,.716-.008.784-.081.822-.042.025-1.017.36-2.17.746s-2.132.729-2.183.763a.283.283,0,0,0-.081.39c.153.233.1.246,2.352-.513,1.149-.386,2.1-.7,2.124-.7s.034,1.551.03,3.675l-.013,3.679-1.365.013-1.369.008v-1.683c0-.975-.017-1.751-.042-1.835a.733.733,0,0,0-.759-.479c-.445.1-3.115.865-3.209.916a.765.765,0,0,0-.191.14c-.182.208-.187.25-.208,1.606l-.021,1.314H3.2l-.013-7.778-.008-7.782.093-.186a.958.958,0,0,1,.208-.267c.064-.047,1.674-.606,3.582-1.246s3.8-1.276,4.192-1.411.733-.25.754-.25A6.114,6.114,0,0,1,12.038-498.272ZM18.5-490.1l.11.131v5.523l-.216.127a2.189,2.189,0,0,0-1.055,1.895v.246H12.674v-8.053h5.714ZM2.543-483.072v.89H.636l.025-.119a2.084,2.084,0,0,1,.615-1.128,1.939,1.939,0,0,1,1.153-.53l.114,0Zm17.709-.75a1.44,1.44,0,0,1,.805,1.289l.021.352h-3.12l.025-.335a1.553,1.553,0,0,1,.4-.992,1.362,1.362,0,0,1,1.216-.441A1.243,1.243,0,0,1,20.252-483.822ZM8.638-481.86l-.013,1.649H7.4l-.013-1.509-.008-1.5.6-.174a3.584,3.584,0,0,1,.64-.144C8.634-483.526,8.643-482.771,8.638-481.86Zm-1.9.25v1.42H5.51l.008-1.259.013-1.263.551-.157c.305-.085.576-.157.606-.157A5.62,5.62,0,0,1,6.739-481.61Zm-4.2.742v.678H1.7a6.3,6.3,0,0,1-.954-.042l-.11-.042v-1.272H2.543Zm14.793,0v.678H12.674v-1.356h4.663Zm3.73-.076a3.329,3.329,0,0,1-.042.67c-.034.055-.25.064-1.534.064h-1.5l-.013-.67-.013-.666h3.1Z" transform="translate(0 0)" fill="#8967b3" stroke="#8967b3" stroke-width="0.4"/>
    <path id="Path_37" data-name="Path 37" d="M115.845-170.683a2.6,2.6,0,0,0-.708.3.311.311,0,0,0,.229.487,7.224,7.224,0,0,0,1.454-.5.4.4,0,0,0,.055-.212.293.293,0,0,0-.288-.305A6.707,6.707,0,0,0,115.845-170.683Z" transform="translate(-110.203 -315.424)" fill="#8967b3" stroke="#8967b3" stroke-width="0.4"/>
    <path id="Path_38" data-name="Path 38" d="M319.25-244.9c-.22.148-.25.246-.25.827s.038.7.254.831a6.826,6.826,0,0,0,1.835.068H322.8l.144-.1c.208-.14.259-.335.242-.877-.021-.513-.081-.674-.305-.78a7.105,7.105,0,0,0-1.818-.068C319.394-245,319.394-245,319.25-244.9Zm3.31.814v.276h-2.925v-.551h2.925Z" transform="translate(-305.479 -244.473)" fill="#8967b3" stroke="#8967b3" stroke-width="0.4"/>
    <path id="Path_39" data-name="Path 39" d="M319.222-187.9a.717.717,0,0,0-.195.2,3.377,3.377,0,0,0,.008,1.272c.131.254.144.254,2.052.254h1.734l.131-.11c.174-.148.229-.373.208-.886-.021-.492-.085-.653-.305-.759a7.105,7.105,0,0,0-1.818-.068C319.366-188,319.366-188,319.222-187.9Zm3.31.814v.276h-2.925v-.551h2.925Z" transform="translate(-305.451 -299.057)" fill="#8967b3" stroke="#8967b3" stroke-width="0.4"/>
    <path id="Path_40" data-name="Path 40" d="M319.25-129.928c-.212.131-.25.254-.25.827s.03.678.254.831c.144.093.174.1.839.085l.7-.013.144-.157.144-.161v-.551c0-.894-.042-.933-1.047-.933C319.487-130,319.339-129.983,319.25-129.928Zm1.191.839v.276h-.805v-.551h.805Z" transform="translate(-305.479 -354.598)" fill="#8967b3" stroke="#8967b3" stroke-width="0.4"/>
  </g>
</svg>
