<svg xmlns="http://www.w3.org/2000/svg" width="127.478" height="121.906" viewBox="0 0 127.478 121.906">
  <g id="company" transform="translate(0.5 500.824)">
    <path id="Path_215" data-name="Path 215" d="M33.349-500.221a5.705,5.705,0,0,0-4.471,3.335c-.4.865-.469,1.7-.469,7.213v6.2l-4.249,1.408a52.605,52.605,0,0,0-5.286,2,9.375,9.375,0,0,0-3.409,3.779l-.519,1.136L14.871-442l-.049,33.176h-.815A15.563,15.563,0,0,0,8.4-407.166a16.314,16.314,0,0,0-6.769,6.793C.222-397.433,0-395.951,0-389.182c0,5.262.074,6.052.469,6.941A4.627,4.627,0,0,0,3.705-379.7c1.556.371,117.511.371,119.067,0a4.627,4.627,0,0,0,3.236-2.544c.42-.914.469-1.729.469-8.424,0-8.078-.1-8.967-1.433-11.684a13.852,13.852,0,0,0-4.891-5.039,12.832,12.832,0,0,0-6.077-1.433H112.15v-15.637c0-16.946,0-17.02-1.359-18.774a6.51,6.51,0,0,0-1.927-1.532l-1.26-.618H73.861V-491.7l2.174,2.124c1.186,1.161,4.422,4.323,7.213,6.991a70.462,70.462,0,0,1,5.484,5.657c.4.716.42,1.976.445,12.969v12.178l.618.593a1.706,1.706,0,0,0,2.569.049l.543-.593-.074-12.7-.074-12.7-.667-1.359c-.568-1.161-2.2-2.866-9.733-10.128-4.965-4.817-9.362-8.918-9.733-9.115-.667-.321-1.606-.049-16.526,4.965l-15.834,5.286v-3.73a20.659,20.659,0,0,0-.371-4.965A5.7,5.7,0,0,0,33.349-500.221Zm1.853,3.854a2.031,2.031,0,0,1,1.087,1.136,29.347,29.347,0,0,1,.272,4.916v4.125l-2.223.741-2.223.766v-5.262c0-4.916.025-5.311.494-5.9a2.1,2.1,0,0,1,1.062-.741,3.077,3.077,0,0,0,.618-.148A4.987,4.987,0,0,1,35.2-496.367Zm34.954,7.855v5.039L59.731-479.99c-22.85,7.633-30.681,10.35-31,10.8a1.79,1.79,0,0,0,1.383,2.816c.4,0,9.486-2.94,20.207-6.546,10.7-3.607,19.54-6.546,19.663-6.546a31.231,31.231,0,0,1,.173,4.669v4.669l-11.907,3.977c-22.381,7.46-29.174,9.832-29.52,10.3a1.79,1.79,0,0,0,1.383,2.816c.4,0,9.486-2.94,20.232-6.546,10.721-3.607,19.589-6.546,19.663-6.546a38.855,38.855,0,0,1,.148,4.669v4.669l-13.018,4.348c-22.158,7.386-28.062,9.461-28.408,9.931a1.79,1.79,0,0,0,1.383,2.816c.4,0,9.486-2.94,20.232-6.546,10.721-3.607,19.565-6.546,19.639-6.546a31.026,31.026,0,0,1,.173,4.644v4.669l-20.429,6.843c-14.2,4.768-20.577,7.015-20.874,7.361a1.779,1.779,0,0,0,1.285,2.915c.371,0,9.461-2.94,20.182-6.546s19.565-6.546,19.663-6.546a29.877,29.877,0,0,1,.173,4.57c0,4.175-.049,4.57-.469,4.792-.247.148-5.929,2.1-12.648,4.348-6.694,2.248-12.425,4.249-12.722,4.446a1.652,1.652,0,0,0-.469,2.273c.889,1.359.593,1.433,13.71-2.989,6.694-2.248,12.253-4.1,12.376-4.1s.2,9.041.173,21.417l-.074,21.442-7.954.074-7.979.049v-9.807c0-5.682-.1-10.2-.247-10.7-.469-1.7-2.816-3.187-4.422-2.791-2.594.593-18.156,5.039-18.7,5.336a4.471,4.471,0,0,0-1.112.815c-1.062,1.21-1.087,1.457-1.21,9.362l-.124,7.658H18.651l-.074-45.329-.049-45.354.543-1.087a5.581,5.581,0,0,1,1.21-1.556c.371-.272,9.758-3.532,20.874-7.263,11.141-3.73,22.134-7.436,24.431-8.226,2.322-.79,4.274-1.458,4.4-1.458A35.636,35.636,0,0,1,70.156-488.512Zm37.647,47.6.642.766v32.188l-1.26.741a12.755,12.755,0,0,0-6.151,11.042v1.433H73.861v-46.935h33.3ZM14.822-399.928v5.188H3.705l.148-.692A12.143,12.143,0,0,1,7.436-402a11.3,11.3,0,0,1,6.719-3.088l.667-.025ZM118.03-404.3a8.393,8.393,0,0,1,4.694,7.51l.124,2.05H104.665l.148-1.952a9.054,9.054,0,0,1,2.347-5.78c2-2.075,3.656-2.668,7.09-2.569C116.374-404.967,116.893-404.869,118.03-404.3ZM50.344-392.863l-.074,9.609H43.106l-.074-8.794-.049-8.769,3.508-1.013a20.868,20.868,0,0,1,3.73-.84C50.319-402.571,50.369-398.174,50.344-392.863Zm-11.067,1.457v8.275H32.114l.049-7.337.074-7.361,3.211-.914c1.779-.494,3.36-.914,3.532-.914C39.2-399.681,39.277-397.878,39.277-391.406Zm-24.456,4.323v3.952H9.906a36.647,36.647,0,0,1-5.558-.247l-.642-.247v-7.411H14.822Zm86.212,0v3.952H73.861v-7.9h27.173Zm21.738-.445a19.4,19.4,0,0,1-.247,3.9c-.2.321-1.457.371-8.942.371h-8.72l-.074-3.9-.074-3.878h18.058Z" transform="translate(0 0)" fill="#8967b3" stroke="#8967b3" stroke-width="1"/>
    <path id="Path_216" data-name="Path 216" d="M119.532-169.6a15.131,15.131,0,0,0-4.125,1.754A1.811,1.811,0,0,0,116.741-165c.963,0,8.1-2.421,8.473-2.89a2.31,2.31,0,0,0,.321-1.235,1.706,1.706,0,0,0-1.68-1.779A39.08,39.08,0,0,0,119.532-169.6Z" transform="translate(-86.653 -248.018)" fill="#8967b3" stroke="#8967b3" stroke-width="1"/>
    <path id="Path_217" data-name="Path 217" d="M320.457-244.432c-1.285.865-1.457,1.433-1.457,4.817,0,3.36.222,4.076,1.482,4.842.618.346,1.877.4,10.7.4h9.98l.84-.568c1.21-.815,1.507-1.952,1.408-5.113-.124-2.989-.469-3.928-1.779-4.545-.741-.346-2.075-.4-10.6-.4C321.3-245,321.3-245,320.457-244.432Zm19.293,4.743v1.606H322.705v-3.211H339.75Z" transform="translate(-240.198 -192.229)" fill="#8967b3" stroke="#8967b3" stroke-width="1"/>
    <path id="Path_218" data-name="Path 218" d="M320.436-187.432a4.173,4.173,0,0,0-1.136,1.161c-.469.939-.42,6.5.049,7.411.766,1.482.84,1.482,11.956,1.482h10.1l.766-.642c1.013-.865,1.334-2.174,1.21-5.163-.124-2.865-.494-3.8-1.779-4.422-.741-.346-2.075-.4-10.6-.4C321.276-188,321.276-188,320.436-187.432Zm19.293,4.743v1.606H322.684v-3.211h17.045Z" transform="translate(-240.177 -235.149)" fill="#8967b3" stroke="#8967b3" stroke-width="1"/>
    <path id="Path_219" data-name="Path 219" d="M320.457-129.58c-1.235.766-1.457,1.482-1.457,4.817,0,3.409.173,3.952,1.482,4.842.84.543,1.013.568,4.891.494l4.051-.074.84-.914.84-.939v-3.211c0-5.212-.247-5.435-6.1-5.435C321.841-130,320.976-129.9,320.457-129.58Zm6.941,4.891v1.606h-4.694v-3.211H327.4Z" transform="translate(-240.198 -278.821)" fill="#8967b3" stroke="#8967b3" stroke-width="1"/>
  </g>
</svg>
