<svg xmlns="http://www.w3.org/2000/svg" width="89.08" height="66.758" viewBox="0 0 89.08 66.758">
  <g id="contact" transform="translate(-0.129 447.723)">
    <path id="Path_319" data-name="Path 319" d="M11.43-447.51A13.9,13.9,0,0,0,.3-435.926c-.157.958-.192,6.881-.157,22.384.07,22.925,0,21.27,1.01,23.987a14.705,14.705,0,0,0,7.63,7.63c2.735,1.028.035.958,35.92.958s33.185.07,35.92-.958a14.583,14.583,0,0,0,7.63-7.63c1.01-2.7.958-1.15.958-24.771,0-19.719-.035-21.775-.3-22.733a13.772,13.772,0,0,0-1.864-4.3,14.178,14.178,0,0,0-8.379-6.027c-.871-.279-3.623-.3-33.533-.331C18.746-447.736,12.353-447.7,11.43-447.51Zm65.9,5.574a8.524,8.524,0,0,1,6.132,6.1c.226.906.261,3.676.261,21.357,0,13.082-.07,20.643-.174,21.252a8.806,8.806,0,0,1-4.163,5.714c-2.143,1.132.139,1.063-34.683,1.063-27.471,0-31.756-.035-32.627-.261a8.524,8.524,0,0,1-6.132-6.1c-.383-1.533-.4-41.477,0-42.992a8.557,8.557,0,0,1,6.027-6.114C13.415-442.3,75.848-442.319,77.329-441.935Z" fill="#8967b3"/>
    <path id="Path_320" data-name="Path 320" d="M65.528-383.914a3.069,3.069,0,0,0-1.585,1.934c-.279,1.568-.61,1.185,9.215,11.009l9.093,9.111-9.093,9.093c-9.842,9.877-9.511,9.459-9.2,11.062a3.043,3.043,0,0,0,2.056,2.056c1.6.314,1.185.645,11.044-9.2l9.111-9.093,4.912,4.912c4.25,4.233,5.017,4.912,5.592,5.017,1.55.3,1.55.279,6.881-5.017l4.912-4.912,9.111,9.093c9.86,9.842,9.442,9.511,11.044,9.2a3.043,3.043,0,0,0,2.056-2.056c.314-1.6.645-1.185-9.2-11.062l-9.093-9.093,9.093-9.111c9.842-9.86,9.511-9.442,9.2-11.044a3.043,3.043,0,0,0-2.056-2.056c-1.637-.314-.679-1.15-16.636,14.772L97.319-354.631l-14.6-14.58c-8.187-8.187-14.789-14.667-15.068-14.772A2.98,2.98,0,0,0,65.528-383.914Z" transform="translate(-52.617 -52.465)" fill="#8967b3"/>
  </g>
</svg>
