<svg xmlns="http://www.w3.org/2000/svg" width="18.892" height="18.902" viewBox="0 0 18.892 18.902">
  <g id="dashboard" transform="translate(-64.25 463.966)">
    <path id="Path_251" data-name="Path 251" d="M49.834-463.679a2.086,2.086,0,0,0-.873.514,2.3,2.3,0,0,0-.319.492l-.142.3v5.806l.142.3a1.7,1.7,0,0,0,.846.869l.337.164H55.64l.337-.164a1.7,1.7,0,0,0,.846-.869l.142-.3v-5.81l-.164-.337a1.7,1.7,0,0,0-.869-.846l-.3-.142-2.814-.009C51.212-463.719,49.932-463.7,49.834-463.679Zm5.708.714a1.316,1.316,0,0,1,.683.683c.075.261.075,5.358,0,5.62a1.316,1.316,0,0,1-.683.682,27.421,27.421,0,0,1-2.81.053,27.421,27.421,0,0,1-2.81-.053,1.316,1.316,0,0,1-.683-.682c-.075-.261-.075-5.358,0-5.62a1.413,1.413,0,0,1,.656-.678C50.127-463.032,55.3-463.037,55.542-462.966Z" transform="translate(16)" fill="#8967b3" stroke="#8967b3" stroke-width="0.5"/>
    <path id="Path_252" data-name="Path 252" d="M273.834-463.679a2.086,2.086,0,0,0-.873.514,2.3,2.3,0,0,0-.319.492l-.142.3v5.806l.142.3a1.7,1.7,0,0,0,.846.869l.337.164h5.815l.337-.164a1.7,1.7,0,0,0,.846-.869l.142-.3v-5.81l-.164-.337a1.7,1.7,0,0,0-.869-.846l-.3-.142-2.814-.009C275.212-463.719,273.932-463.7,273.834-463.679Zm5.708.714a1.317,1.317,0,0,1,.683.683c.075.261.075,5.358,0,5.62a1.316,1.316,0,0,1-.683.682c-.261.075-5.358.075-5.62,0a1.316,1.316,0,0,1-.683-.682c-.075-.261-.075-5.358,0-5.62a1.413,1.413,0,0,1,.656-.678C274.126-463.032,279.3-463.037,279.542-462.966Z" transform="translate(-198.073)" fill="#8967b3" stroke="#8967b3" stroke-width="0.5"/>
    <path id="Path_253" data-name="Path 253" d="M49.834-239.679a2.086,2.086,0,0,0-.873.514,2.3,2.3,0,0,0-.319.492l-.142.3v5.806l.142.3a1.7,1.7,0,0,0,.846.869l.337.164H55.64l.337-.164a1.7,1.7,0,0,0,.846-.869l.142-.3v-5.81l-.164-.337a1.7,1.7,0,0,0-.869-.846l-.3-.142-2.814-.009C51.212-239.719,49.932-239.7,49.834-239.679Zm5.708.714a1.316,1.316,0,0,1,.683.683c.075.261.075,5.358,0,5.62a1.316,1.316,0,0,1-.683.683c-.261.075-5.358.075-5.62,0a1.316,1.316,0,0,1-.683-.683c-.075-.261-.075-5.358,0-5.62a1.413,1.413,0,0,1,.656-.678C50.127-239.032,55.3-239.037,55.542-238.966Z" transform="translate(16 -214.073)" fill="#8967b3" stroke="#8967b3" stroke-width="0.5"/>
    <path id="Path_254" data-name="Path 254" d="M276.192-239.837a4.773,4.773,0,0,0-1.8.714,5.337,5.337,0,0,0-1.205,1.3,3.753,3.753,0,0,0-.589,2.194,3.521,3.521,0,0,0,.288,1.591,4.393,4.393,0,0,0,2.256,2.313,3.7,3.7,0,0,0,1.684.324,3.786,3.786,0,0,0,2.194-.589,4.88,4.88,0,0,0,1.445-1.445,3.793,3.793,0,0,0,.589-2.194,3.8,3.8,0,0,0-.589-2.194,4.956,4.956,0,0,0-1.418-1.432A4.34,4.34,0,0,0,276.192-239.837Zm1.476.762a3.467,3.467,0,0,1,1.077.474,3.536,3.536,0,0,1,.581,5.469,3.536,3.536,0,0,1-5.469-.581,3.525,3.525,0,0,1,.266-4.2,3.58,3.58,0,0,1,2.039-1.2A4.524,4.524,0,0,1,277.668-239.075Z" transform="translate(-198.166 -213.915)" fill="#8967b3" stroke="#8967b3" stroke-width="0.5"/>
  </g>
</svg>
