<svg xmlns="http://www.w3.org/2000/svg" width="20.56" height="27.266" viewBox="0 0 20.56 27.266">
  <g id="duplicate" transform="translate(-63 512)">
    <path id="Path_257" data-name="Path 257" d="M182.4-511.878c-.4.229-.4.229-.4,2.525v2.035l1.3.016,1.3.016,3.441,3.441c3.009,3.009,3.441,3.462,3.484,3.649.032.117.053,2.44.053,5.337v5.129l2.045-.016c1.971-.016,2.056-.021,2.195-.128a1.452,1.452,0,0,0,.256-.256c.112-.144.112-.165.128-7.755l.011-7.617-2.978-.011c-2.914-.016-2.983-.016-3.127-.128a1.451,1.451,0,0,1-.256-.256c-.112-.144-.112-.213-.128-3.127L189.723-512h-7.111Z" transform="translate(-112.661)" fill="#fff"/>
    <path id="Path_258" data-name="Path 258" d="M358-487.189v1.811h3.7l-1.811-1.811c-1-1-1.827-1.811-1.848-1.811S358-488.185,358-487.189Z" transform="translate(-279.287 -21.775)" fill="#fff"/>
    <path id="Path_259" data-name="Path 259" d="M63.426-392.9a.918.918,0,0,0-.3.3l-.123.208.016,9.891.011,9.891.112.144a1.452,1.452,0,0,0,.256.256c.144.112.176.112,6.669.128s6.525.011,6.738-.1a.9.9,0,0,0,.314-.282c.107-.165.107-.314.107-7.111V-386.5H74.415c-1.55,0-2.908-.027-3.02-.053a.9.9,0,0,1-.618-.618c-.027-.112-.053-1.47-.053-3.02V-393H67.165C63.8-393,63.6-392.995,63.426-392.9Z" transform="translate(0 -112.661)" fill="#fff"/>
    <path id="Path_260" data-name="Path 260" d="M240-368.673v1.822h1.784a17.658,17.658,0,0,0,1.784-.043c0-.021-.8-.842-1.784-1.822L240-370.5Z" transform="translate(-167.572 -133.963)" fill="#fff"/>
  </g>
</svg>
