<svg xmlns="http://www.w3.org/2000/svg" width="109.532" height="109.595" viewBox="0 0 109.532 109.595">
  <g id="edit_profile" transform="translate(-7.794 504.207)">
    <path id="Path_277" data-name="Path 277" d="M216.578-503.466a1.643,1.643,0,0,0-.044,2.4c.462.44.77.506,3.343.638a43.631,43.631,0,0,1,40.9,34.614c.616,2.727.924,3.475,1.605,3.672a1.921,1.921,0,0,0,1.935-.836c.308-.484.33-.748.088-2.045A48.037,48.037,0,0,0,254.4-486.863a62.238,62.238,0,0,0-8.466-8,47.84,47.84,0,0,0-23.618-8.906C218.337-504.17,217.194-504.1,216.578-503.466Z" transform="translate(-162.188 0)" fill="#8967b3" stroke="#8967b3" stroke-width="0.5"/>
    <path id="Path_278" data-name="Path 278" d="M166.728-499.733c-.242.044-1.166.242-2.067.44-1.781.374-2.661.99-2.661,1.847a2.318,2.318,0,0,0,1.671,1.737,52.458,52.458,0,0,0,5.212-1.012,1.989,1.989,0,0,0,.924-1.869C169.455-499.667,168.333-500.085,166.728-499.733Z" transform="translate(-120.035 -3.25)" fill="#8967b3" stroke="#8967b3" stroke-width="0.5"/>
    <path id="Path_279" data-name="Path 279" d="M37.347-488.246a49.867,49.867,0,0,0-9.082,5.014,47.246,47.246,0,0,0-15.35,18.1,47.587,47.587,0,0,0,16.669,60.5A50.1,50.1,0,0,0,46.3-397.732c2.793.55,3.189.462,3.716-.77a1.668,1.668,0,0,0-.4-2.023,18.053,18.053,0,0,0-3.123-.836,40.822,40.822,0,0,1-14.756-6.2l-2.573-1.715.11-3.3a14.525,14.525,0,0,1,.66-5.058,15.847,15.847,0,0,1,8.467-9.5,17.852,17.852,0,0,1,4.794-1.385c.132,0,.352.506.484,1.122a13.321,13.321,0,0,0,6.377,8.071,12.29,12.29,0,0,0,17.263-7.389l.484-1.627,1.1.154a19.061,19.061,0,0,1,2.969.792c2.7.99,2.947,1.012,3.607.352a1.873,1.873,0,0,0,.44-2.023c-.286-.748-3.76-2.089-6.509-2.529-1.122-.176-5.41-.22-14.36-.176l-12.755.088-2.111.572c-5.41,1.473-9.258,4.244-11.743,8.488a22.654,22.654,0,0,0-2.595,8.049L25.56-412.4,23.6-414.489a43.679,43.679,0,0,1-9.852-43.388,43.3,43.3,0,0,1,22.761-26.015,12.21,12.21,0,0,0,3.277-1.957,1.867,1.867,0,0,0-.4-2A1.636,1.636,0,0,0,37.347-488.246Zm26.829,59.991a8.1,8.1,0,0,1-.66,1.671,9.161,9.161,0,0,1-4.354,4.288,6.135,6.135,0,0,1-3.585.7,5.912,5.912,0,0,1-3.76-.836,8.447,8.447,0,0,1-4.156-4.222,7.9,7.9,0,0,1-.638-1.605c0-.2,1.869-.264,8.576-.264S64.176-428.453,64.176-428.255Z" transform="translate(0 -12.163)" fill="#8967b3" stroke="#8967b3" stroke-width="0.5"/>
    <path id="Path_280" data-name="Path 280" d="M249.04-469.614a1.654,1.654,0,0,0-.484,2.683c.374.4,1.078.682,2.9,1.122a37.8,37.8,0,0,1,20.474,13.217c1.473,1.847,1.715,2.067,2.375,2.067a1.791,1.791,0,0,0,1.891-1.583c0-.99-1.935-3.475-5.256-6.773a38.327,38.327,0,0,0-18.472-10.358C249.677-469.966,249.655-469.966,249.04-469.614Z" transform="translate(-187.173 -26.661)" fill="#8967b3" stroke="#8967b3" stroke-width="0.5"/>
    <path id="Path_281" data-name="Path 281" d="M165.541-423.713a14.916,14.916,0,0,0-8.445,4.486,14.585,14.585,0,0,0-4.09,6.729c-.462,1.517-.506,2.023-.506,6.6s.044,5.08.506,6.6c1.166,3.695,3.035,6.377,7.169,10.248,3.343,3.145,6.113,4.2,9.588,3.673,2.595-.4,4.09-1.3,7.081-4.222,2.991-2.881,4.464-4.728,5.542-6.949,1.407-2.881,1.561-3.8,1.561-9.456-.022-4.838-.044-5.124-.594-6.751a16.045,16.045,0,0,0-3.629-6.113c-1.781-1.913-3.519-3.079-4.508-3.079a1.752,1.752,0,0,0-1.5,2.617,5.15,5.15,0,0,0,1.3,1.122,12.479,12.479,0,0,1,5.058,7.037c.44,1.869.638,1.759-3.035,1.759-5.564,0-9.808-1.012-12.623-2.991-1.275-.924-1.891-.946-3.694-.11-1.473.682-4.046,1.319-4.288,1.056-.33-.308,1.517-3.5,2.793-4.882a12.085,12.085,0,0,1,8.071-4c1.341-.11,1.781-.242,2.177-.638a1.643,1.643,0,0,0-.044-2.4c-.44-.462-.726-.55-1.693-.528C167.1-423.889,166.112-423.8,165.541-423.713Zm-.968,15.284a21.15,21.15,0,0,0,4.442,1.539,42.226,42.226,0,0,0,10.05.858l1.473-.154v1.847a13.389,13.389,0,0,1-1.429,6.355c-.616,1.232-1.429,2.243-3.694,4.6-1.583,1.649-3.189,3.211-3.563,3.5a6.74,6.74,0,0,1-4.178,1.078c-2.2-.22-3.123-.814-6.443-4.178-2.7-2.771-3.167-3.343-3.958-4.992-1.1-2.287-1.363-3.694-1.363-7.081,0-2.551,0-2.595.506-2.595a25.576,25.576,0,0,0,5.168-1.429,4.738,4.738,0,0,1,.77-.33A21.055,21.055,0,0,1,164.573-408.429Z" transform="translate(-112.624 -62.49)" fill="#8967b3" stroke="#8967b3" stroke-width="0.5"/>
    <path id="Path_282" data-name="Path 282" d="M380.946-359.7a1.663,1.663,0,0,0-.946,1.539,15.458,15.458,0,0,0,1.605,4.772,1.471,1.471,0,0,0,2.243-.044c.7-.682.682-1.188-.132-3.673C382.859-359.717,382.287-360.245,380.946-359.7Z" transform="translate(-290.095 -112.434)" fill="#8967b3" stroke="#8967b3" stroke-width="0.5"/>
    <path id="Path_283" data-name="Path 283" d="M41.259-311.557a1.794,1.794,0,0,0-.748.7c-.308.726-.374,5.476-.132,8.115.44,4.53,1.913,9.962,3.035,11.3a1.607,1.607,0,0,0,2.925-.9,12.66,12.66,0,0,0-.66-2.551,33.671,33.671,0,0,1-1.891-11.721l-.066-4.288-.572-.506A1.388,1.388,0,0,0,41.259-311.557Z" transform="translate(-25.045 -149.907)" fill="#8967b3" stroke="#8967b3" stroke-width="0.5"/>
    <path id="Path_284" data-name="Path 284" d="M256.795-303.68c-2.353.55-2.2.418-24.982,23.178l-21.859,21.837-1.275,9.082c-.7,5.014-1.231,9.258-1.187,9.456a2.789,2.789,0,0,0,.66.858l.55.506,9.28-1.275,9.3-1.275,3.585-3.563c3.277-3.233,3.563-3.607,3.563-4.31a1.7,1.7,0,0,0-1.715-1.737c-.594,0-1.078.352-2.991,2.2l-2.287,2.221-.594-1.8-.594-1.8,13.876-13.876L254-277.863l1.21,1.21,1.21,1.188-10.314,10.358q-10.325,10.325-10.468,10.951a1.766,1.766,0,0,0,2.067,2.023c.418-.088,5.564-5.1,17.087-16.669,15.24-15.284,16.559-16.647,17.087-17.879.858-1.979.968-3.123.374-3.892a1.4,1.4,0,0,0-1.319-.594c-1.012,0-1.627.638-1.869,1.913-.242,1.363-.726,2.067-2.925,4.31l-2.133,2.133-6.2-6.2-6.223-6.223,2.045-2.045c2.529-2.573,3.277-2.991,5.322-3.013,2.133,0,2.793.374,6.2,3.672,2.551,2.485,2.969,2.815,3.629,2.815a1.739,1.739,0,0,0,1.122-3.057,58.472,58.472,0,0,0-6.707-5.982A9.7,9.7,0,0,0,256.795-303.68Zm-1.583,17.131,6.157,6.157-1.21,1.21-1.21,1.21-6.2-6.2-6.223-6.223,1.144-1.143a10.117,10.117,0,0,1,1.275-1.166C249.01-292.707,251.825-289.936,255.211-286.549Zm-10.028-.022a6.827,6.827,0,0,1,1.122,1.253,31.83,31.83,0,0,1-2.639,2.837c-2.837,2.881-3.035,3.277-2.177,4.376a1.4,1.4,0,0,0,1.341.572c.836,0,.99-.132,3.5-2.683l2.617-2.7,1.254,1.275,1.275,1.253-13.964,13.964-13.964,13.964h-2.529v-2.463l9.17-9.236c5.058-5.058,9.258-9.412,9.346-9.654a1.743,1.743,0,0,0-1.957-2.089c-.418.11-3.65,3.167-9.742,9.258l-9.126,9.1-1.847-.55-1.847-.572L229.5-273.157c7.961-7.961,14.514-14.492,14.536-14.492C244.04-287.649,244.568-287.165,245.183-286.571ZM217.5-251.958a6.688,6.688,0,0,0,.4,2.617,6.847,6.847,0,0,0,2.639.4l2.353.11.726,2.067a18.913,18.913,0,0,1,.66,2.133c-.044.022-1.319.22-2.881.44l-2.815.4-3.079-3.1-3.1-3.1.374-2.7c.22-1.5.418-2.793.462-2.881a7.163,7.163,0,0,1,2.133.572l2.023.748Zm-3.8,8.752a5.766,5.766,0,0,1-1.341.308l-1.078.176.132-1.056a13.422,13.422,0,0,0,.154-1.517c0-.374.22-.22,1.21.748C213.582-243.733,213.89-243.315,213.692-243.205Z" transform="translate(-155.52 -156.112)" fill="#8967b3" stroke="#8967b3" stroke-width="0.5"/>
  </g>
</svg>
