<svg xmlns="http://www.w3.org/2000/svg" width="28.142" height="21.118" viewBox="0 0 28.142 21.118">
  <g id="email" transform="translate(0 448.101)">
    <path id="Path_241" data-name="Path 241" d="M2.1-448.007A2.6,2.6,0,0,0,.166-444.88a2.463,2.463,0,0,0,.588,1.072c.247.253,11.954,8.085,12.382,8.277a2.524,2.524,0,0,0,2.1-.028c.522-.247,11.992-7.925,12.284-8.222a2.548,2.548,0,0,0-1.336-4.232C25.667-448.134,2.6-448.128,2.1-448.007Z" transform="translate(-0.084)" fill="#fff"/>
    <path id="Path_242" data-name="Path 242" d="M0-333.415c0,4.452.016,6.491.06,6.694a2.646,2.646,0,0,0,1.979,2c.517.121,23.451.121,24.029,0a2.616,2.616,0,0,0,2.012-2c.071-.335.088-13.113.016-13.08-.022.005-2.677,1.775-5.9,3.93s-6.04,4.007-6.26,4.111a3.74,3.74,0,0,1-1.863.423,3.74,3.74,0,0,1-1.863-.423c-.22-.1-3.034-1.957-6.26-4.111S.066-339.8.044-339.8,0-336.938,0-333.415Z" transform="translate(0 -102.348)" fill="#fff"/>
  </g>
</svg>
