<svg xmlns="http://www.w3.org/2000/svg" width="18.483" height="17.333" viewBox="0 0 18.483 17.333">
  <g id="employee" transform="translate(0.038 495.643)">
    <path id="Path_308" data-name="Path 308" d="M8.825-495.518A2.584,2.584,0,0,0,6.7-493.6a3,3,0,0,0-.071.8c0,.507,0,.529-.107.732a.98.98,0,0,0-.107.275c0,.039-.007.068-.018.068a2.679,2.679,0,0,1-.236-.146,2.357,2.357,0,0,0-.829-.354c-.107,0-.275.139-.275.229a.325.325,0,0,0,.229.289,2.378,2.378,0,0,1,1.129.818,2.261,2.261,0,0,1,.35,1.329l-.011.246-.054-.118a4.281,4.281,0,0,0-.722-.807c-.164-.1-.3-.071-.8.175a3.528,3.528,0,0,1-1.625.436c-.5.018-.614.05-.718.193-.129.182-.154.132-.129-.264a2.282,2.282,0,0,1,.246-.99,2.138,2.138,0,0,1,.868-.85c.411-.193.425-.2.479-.3a.237.237,0,0,0-.1-.336c-.1-.05-.121-.05-.3.014a2.693,2.693,0,0,0-1.5,1.382,3.179,3.179,0,0,0-.221,1.211c-.018.5-.032.593-.107.736a.927.927,0,0,0,.6,1.282c.121.032.139.05.161.179a2.013,2.013,0,0,0,.482.872l.214.225v.461l-1.186.457c-.654.254-1.261.5-1.35.55a2.059,2.059,0,0,0-.832,1,9.79,9.79,0,0,0-.089,2.558c-.011,2.329-.011,2.35.064,2.508a.608.608,0,0,0,.207.236l.132.082,4.222.011c3.544.007,4.244,0,4.365-.043a.349.349,0,0,1,.293,0c.121.043.822.05,4.365.043l4.222-.011.132-.082a.6.6,0,0,0,.2-.236c.071-.143.075-.214.075-1.143v-.989l-.089-.086a.234.234,0,0,0-.343-.021c-.086.068-.086.071-.1,1.047l-.018.975-.525.011-.529.011v-4.029l-.082-.075a.255.255,0,0,0-.35-.011l-.086.068-.011,2.022-.007,2.022h-.964c-.532,0-.964-.011-.964-.021a4.182,4.182,0,0,1,.286-.336,1.951,1.951,0,0,0,.307-.414c.014-.061-.089-.779-.279-1.9-.275-1.629-.3-1.811-.254-1.883s.057-.079.175-.029a.409.409,0,0,0,.472-.121c.039-.054.2-.361.364-.686s.3-.593.3-.6a16.319,16.319,0,0,1,1.59.643,1.439,1.439,0,0,1,.479.6,2.774,2.774,0,0,1,.093.982c.025.893.032.918.275.918a.226.226,0,0,0,.2-.086c.068-.082.071-.132.057-.911a2.935,2.935,0,0,0-.093-1.025,2.031,2.031,0,0,0-.829-1c-.089-.05-.7-.3-1.347-.55l-1.19-.457v-.247c0-.246,0-.246.182-.447a1.852,1.852,0,0,0,.447-.782c.05-.193.075-.229.154-.25a.983.983,0,0,0,.493-.311.867.867,0,0,0,.118-1.007c-.1-.2-.107-.225-.107-.732a2.435,2.435,0,0,0-.75-1.965,2.434,2.434,0,0,0-1.807-.747,2.55,2.55,0,0,0-1.486.475c-.168.129-.171.129-.171.046a.928.928,0,0,0-.107-.293c-.1-.2-.107-.229-.107-.7a2.616,2.616,0,0,0-.275-1.347,1.918,1.918,0,0,0-.489-.661,1.937,1.937,0,0,0-.629-.472,3.146,3.146,0,0,0-.522-.2A3.284,3.284,0,0,0,8.825-495.518Zm.75.557a2.071,2.071,0,0,1,1.572,1.5,2.871,2.871,0,0,1,.054.554l0,.339-.061-.118a4.408,4.408,0,0,0-.764-.814c-.154-.079-.293-.046-.622.143a3.861,3.861,0,0,1-1.872.5c-.418.014-.529.05-.607.2s-.107.068-.107-.271a1.876,1.876,0,0,1,.589-1.465A1.941,1.941,0,0,1,9.576-494.96Zm.836,2.229.218.246v.729a8.337,8.337,0,0,1-.039.939,1.387,1.387,0,0,1-1.311,1.154,1.332,1.332,0,0,1-1.082-.375c-.386-.357-.461-.622-.461-1.568v-.686l.332-.025a4.616,4.616,0,0,0,1.829-.514c.139-.075.261-.139.271-.143A1.9,1.9,0,0,1,10.411-492.731ZM7.2-491.656c0,.346,0,.357-.071.321a.459.459,0,0,1-.179-.357.3.3,0,0,1,.1-.218.546.546,0,0,1,.125-.1A1.588,1.588,0,0,1,7.2-491.656Zm4.122-.246a.359.359,0,0,1,.039.421.239.239,0,0,1-.182.146,2.146,2.146,0,0,1-.014-.339.928.928,0,0,1,.032-.339A.358.358,0,0,1,11.322-491.9Zm2.79.193a2.072,2.072,0,0,1,1.465,1.447,2.6,2.6,0,0,1,.054.572v.375l-.068-.143a2.98,2.98,0,0,0-.407-.5l-.339-.354-.193.018a1.079,1.079,0,0,0-.443.168,4.085,4.085,0,0,1-1.936.5H11.9l-.136.143a.887.887,0,0,1-.157.143,3.355,3.355,0,0,1,.021-.829,2.588,2.588,0,0,1,.179-.482,2.016,2.016,0,0,1,1.265-1.05A2.411,2.411,0,0,1,14.112-491.71Zm-6.841,1.132a2.069,2.069,0,0,0,.511.893c.2.207.2.207.2.418v.214l-.275.107-.279.107-.061-.079c-.054-.064-.064-.157-.064-.543a3.166,3.166,0,0,0-.143-1.115c-.064-.182-.064-.189,0-.189S7.239-490.717,7.272-490.577Zm3.9.071a2.33,2.33,0,0,0-.1.868c-.014.6-.046.768-.143.768a1.8,1.8,0,0,1-.279-.093l-.232-.093v-.236c0-.236,0-.239.175-.418a1.9,1.9,0,0,0,.486-.822c.046-.168.082-.232.125-.232S11.251-490.735,11.172-490.506Zm-5.19,1.014.218.239v.682a2.861,2.861,0,0,1-.171,1.354,1.447,1.447,0,0,1-2.49.157c-.207-.311-.232-.454-.232-1.286v-.739h.207a4.677,4.677,0,0,0,1.918-.5,1.7,1.7,0,0,1,.293-.139A1.06,1.06,0,0,1,5.982-489.491Zm8.873,0,.211.232-.014.882-.011.886-.114.239a1.449,1.449,0,0,1-2.565.114,2.487,2.487,0,0,1-.2-1.286v-.647l.393-.025a4.288,4.288,0,0,0,1.618-.429,4.73,4.73,0,0,1,.436-.2A1.2,1.2,0,0,1,14.855-489.495ZM9.2-489.12a2.121,2.121,0,0,0,.482-.054c.1-.029.179-.054.186-.054a.759.759,0,0,1,.007.143c0,.129-.036.189-.329.55a3.726,3.726,0,0,1-.354.4,5.115,5.115,0,0,1-.35-.411c-.286-.354-.325-.418-.325-.539v-.139l.189.05A2.564,2.564,0,0,0,9.2-489.12Zm-2.265.529a.292.292,0,0,1,.007.271.479.479,0,0,1-.129.193l-.082.05v-.361c0-.357,0-.364.075-.325A.423.423,0,0,1,6.939-488.591Zm8.848-.057a.387.387,0,0,1-.125.529c-.064.036-.068.025-.068-.322s0-.357.068-.321A.377.377,0,0,1,15.788-488.648Zm-13.017.225a.928.928,0,0,1-.032.339.358.358,0,0,1-.125-.111.352.352,0,0,1,0-.479.289.289,0,0,1,.125-.089C2.756-488.763,2.771-488.634,2.771-488.423Zm8.859,0c0,.329,0,.339-.071.3a.449.449,0,0,1-.179-.336c0-.086.157-.307.218-.307A.928.928,0,0,1,11.63-488.423Zm-3.129.3.307.375-.1.079a2.608,2.608,0,0,1-.486.329c-.007-.007-.129-.243-.268-.525-.225-.447-.246-.511-.193-.532.036-.011.136-.05.225-.086a.412.412,0,0,1,.186-.039C8.186-488.506,8.333-488.327,8.5-488.12Zm2.14-.275c.054.021.029.086-.2.543a1.715,1.715,0,0,1-.3.5c-.021-.011-.157-.1-.3-.2l-.254-.182.121-.15c.064-.079.211-.261.325-.4l.207-.257.164.064C10.5-488.445,10.6-488.405,10.64-488.395ZM7.59-487.38a3.673,3.673,0,0,0,.325.564.6.6,0,0,0,.482.039.089.089,0,0,1,.118.05c.036.061.021.211-.1.914-.079.464-.15.85-.154.857s-.522-.186-1.147-.425l-1.132-.436v-.257c0-.246,0-.261.111-.339a1.9,1.9,0,0,0,.55-.932c.029-.15.054-.175.261-.239a.97.97,0,0,0,.286-.164c.071-.064.136-.118.139-.121S7.454-487.648,7.59-487.38Zm3.608-.343a1.031,1.031,0,0,0,.289.154c.15.043.157.05.239.307a2.25,2.25,0,0,0,.55.868c.136.118.139.129.139.35v.229l-1.132.436c-.625.239-1.14.432-1.147.425s-.075-.393-.154-.857c-.118-.7-.132-.854-.1-.914a.089.089,0,0,1,.118-.05.92.92,0,0,0,.239.029c.229,0,.286-.061.564-.618.125-.257.236-.468.243-.468A1.291,1.291,0,0,1,11.2-487.723Zm-1.843.479c.221.154.157.268-.154.268s-.375-.114-.154-.268a.856.856,0,0,1,.154-.089A.856.856,0,0,1,9.354-487.245Zm-.011.829c0,.018.068.422.146.9l.146.868-.139.132a2.1,2.1,0,0,0-.218.236l-.079.107-.079-.107a2.1,2.1,0,0,0-.218-.236l-.139-.129.146-.879c.082-.482.146-.886.146-.9s.064-.021.143-.021S9.343-486.43,9.343-486.416Zm-4.829.511a2.1,2.1,0,0,0,.839-.057c.093-.021.1-.014.1.111s-.046.186-.325.529c-.179.221-.339.4-.354.411a2.586,2.586,0,0,1-.371-.411c-.282-.346-.343-.443-.343-.543s.007-.118.1-.1C4.21-485.951,4.371-485.926,4.514-485.905Zm8.855,0a2.432,2.432,0,0,0,.861-.061c.111-.021.114-.018.114.093,0,.093-.068.2-.343.543a2.351,2.351,0,0,1-.371.414,4.681,4.681,0,0,1-.354-.411c-.279-.343-.325-.418-.325-.529s.007-.132.082-.111C13.076-485.951,13.23-485.923,13.369-485.9Zm-9.334.982a3.6,3.6,0,0,1,.307.411,1.576,1.576,0,0,1-.275.225l-.279.2-.261-.522c-.143-.286-.257-.525-.25-.529a2.33,2.33,0,0,1,.411-.157A2.117,2.117,0,0,1,4.035-484.919Zm2.011-.3.221.079L6-484.612l-.264.529-.261-.186c-.139-.1-.271-.2-.289-.211a4.854,4.854,0,0,1,.622-.818C5.818-485.3,5.925-485.262,6.046-485.223Zm6.883.322a1.6,1.6,0,0,1,.286.421c-.018.014-.15.111-.289.211l-.261.186-.264-.529-.264-.529.182-.075a1.425,1.425,0,0,1,.239-.079A1.971,1.971,0,0,1,12.93-484.9Zm2-.322a.6.6,0,0,1,.2.1c0,.011-.114.25-.257.529l-.257.511-.293-.211-.3-.207.325-.4a2.914,2.914,0,0,1,.354-.4A2.375,2.375,0,0,1,14.93-485.223Zm-11.856.929a7,7,0,0,0,.379.7.451.451,0,0,0,.429.071c.129-.046.139-.043.186.029s.018.279-.257,1.9c-.354,2.1-.361,1.868.061,2.329a3.885,3.885,0,0,1,.257.3c0,.011-.432.021-.964.021H2.2l-.007-2.022-.011-2.022-.086-.068a.255.255,0,0,0-.35.011l-.082.075v4.029l-.525-.011-.529-.011v-2.25a11.706,11.706,0,0,1,.064-2.44,1.47,1.47,0,0,1,.489-.636c.107-.071,1.472-.639,1.572-.654A6.371,6.371,0,0,1,3.074-484.294Zm4.662-.271a1.77,1.77,0,0,1,.954.614c.229.322.225.293.225,2.768v2.243H7.879l-.007-2.022-.011-2.022-.086-.068a.255.255,0,0,0-.35.011l-.082.075v4.026H5.368l.086-.1c.046-.054.171-.189.275-.3.332-.357.332-.193-.011-2.229-.168-.979-.3-1.807-.3-1.836a.244.244,0,0,1,.05-.114c.039-.054.061-.054.182-.014a.416.416,0,0,0,.422-.075,6.614,6.614,0,0,0,.386-.7l.318-.632.221.082C7.118-484.808,7.45-484.68,7.736-484.565Zm4.233.3a3.033,3.033,0,0,0,.422.7.445.445,0,0,0,.436.021c.046-.039.064-.036.107.021a.3.3,0,0,1,.054.121c0,.029-.136.854-.3,1.836-.343,2.032-.343,1.868-.011,2.229.1.111.225.246.275.3l.089.1H11.058v-4.015l-.079-.082a.252.252,0,0,0-.354-.014l-.086.068-.011,2.022-.007,2.022H9.483l.011-2.315c.011-2.293.011-2.311.089-2.483a1.758,1.758,0,0,1,.557-.607,15.073,15.073,0,0,1,1.49-.572C11.64-484.908,11.794-484.616,11.969-484.269Zm-7.048.257c.229.15.157.25-.175.25-.182,0-.229-.011-.261-.068s-.014-.086.114-.179a.647.647,0,0,1,.171-.1A1.54,1.54,0,0,1,4.921-484.012Zm8.873,0c.136.093.154.118.121.179s-.079.068-.261.068c-.214,0-.311-.039-.311-.125a1.062,1.062,0,0,1,.279-.229A1.06,1.06,0,0,1,13.794-484.008ZM5.171-481.6c.15.882.275,1.643.275,1.686s-.111.207-.343.461l-.346.379-.111-.125c-.057-.068-.214-.246-.346-.389l-.239-.268.282-1.675c.157-.922.286-1.679.286-1.686a.36.36,0,0,1,.136,0l.132.011Zm8.6-1.615c0,.007.129.764.286,1.686l.282,1.675-.129.143c-.071.082-.232.254-.354.386l-.221.243-.35-.379-.354-.382.282-1.665c.154-.914.286-1.675.3-1.693S13.773-483.24,13.773-483.215Z" transform="translate(0 0)" stroke="#000" stroke-width="0.2"/>
  </g>
</svg>
