<svg xmlns="http://www.w3.org/2000/svg" width="70.857" height="70.806" viewBox="0 0 70.857 70.806">
  <g id="enter" transform="translate(-0.218 511.915)">
    <path id="Path_245" data-name="Path 245" d="M177.869-511.706a9.089,9.089,0,0,0-6.7,6.563,21.6,21.6,0,0,0-.014,6.2,2.941,2.941,0,0,0,5.123.471c.415-.609.415-.609.485-2.977.083-2.561.222-3.074,1-3.794s.8-.734,8.445-.72h7.1l-.762.291a5.89,5.89,0,0,0-3.378,3.143l-.429.914-.042,22.886-.028,22.886-4.97-.041-4.97-.042-.609-.415a4.189,4.189,0,0,1-.941-1.038c-.346-.609-.346-.692-.415-4.43-.069-4.14-.1-4.223-.928-5.012a2.9,2.9,0,0,0-4.624.886c-.235.471-.263.845-.263,4.43,0,4.417.083,5.026.941,6.756a9.3,9.3,0,0,0,3.9,3.863c1.855.914,2.409.983,8,.983h4.873v1.98a10.937,10.937,0,0,0,.208,2.672,6.222,6.222,0,0,0,2.146,3.018,5.152,5.152,0,0,0,3.53,1.121H195.8l9.276-3.1c5.109-1.7,9.581-3.254,9.955-3.434a6.733,6.733,0,0,0,2.34-2.257c.831-1.44.789.291.789-29.448,0-19.355-.042-27.372-.152-27.9a6.025,6.025,0,0,0-4.693-4.541c-.471-.083-6.812-.138-17.639-.125C181.759-511.913,178.6-511.872,177.869-511.706Z" transform="translate(-147.083)" fill="#8967b3"/>
    <path id="Path_246" data-name="Path 246" d="M16.732-404.711a3.5,3.5,0,0,0-1.537,1.564c-.152.346-.194,1.509-.194,5.22v4.777l-6.41.042-6.41.042-.581.388a2.882,2.882,0,0,0-1.371,2.271,2.89,2.89,0,0,0,1.412,2.741l.665.415,6.355.042,6.341.042v4.735c0,4.278.028,4.79.263,5.289a2.984,2.984,0,0,0,4,1.4c.208-.111,3.254-3.087,6.756-6.618,6.023-6.05,6.4-6.452,6.549-7.075a2.853,2.853,0,0,0-.332-2.243c-.5-.845-12.488-12.751-13.111-13A3.832,3.832,0,0,0,16.732-404.711Z" transform="translate(0 -92.208)" fill="#8967b3"/>
  </g>
</svg>
