<svg xmlns="http://www.w3.org/2000/svg" width="81.753" height="108.67" viewBox="0 0 81.753 108.67">
  <g id="error" transform="translate(-63.957 512.437)">
    <path id="Path_328" data-name="Path 328" d="M65.763-511.763a3.257,3.257,0,0,0-.842.653c-.421.463-.421.758-.421,41.5v41.032l.547.526a2.673,2.673,0,0,0,1.284.653c.632.105.863.021,1.453-.505l.716-.632.063-39.6.042-39.6h72.38l.063,2.4c.084,2.042.147,2.505.526,2.99a1.987,1.987,0,0,0,3.158.189c.505-.505.505-.568.505-4.421a24.518,24.518,0,0,0-.211-4.337c-.589-1.095,1.621-1.032-40.148-1.011C83.595-511.932,65.995-511.848,65.763-511.763Z" transform="translate(-0.027 0)" fill="#8967b3" stroke="#8967b3" stroke-width="1"/>
    <path id="Path_329" data-name="Path 329" d="M430.121-441.7a2.179,2.179,0,0,0-.716,3.221,2.019,2.019,0,0,0,2.484.484,1.8,1.8,0,0,0,1.095-1.811,1.778,1.778,0,0,0-1.053-1.789A1.857,1.857,0,0,0,430.121-441.7Z" transform="translate(-287.774 -55.306)" fill="#8967b3" stroke="#8967b3" stroke-width="1"/>
    <path id="Path_330" data-name="Path 330" d="M142.728-406.272a1.77,1.77,0,0,0-.379,2.442c.189.295,1.411,1.6,2.695,2.905l2.337,2.358-2.568,2.59a16.178,16.178,0,0,0-2.716,3.158,2.078,2.078,0,0,0,2.147,2.463c.695,0,.989-.232,3.432-2.611l2.653-2.632L153-392.966c2.547,2.505,2.695,2.611,3.537,2.611a2.049,2.049,0,0,0,1.811-3.116,27.308,27.308,0,0,0-2.632-2.884l-2.316-2.295,2.611-2.674c2.4-2.442,2.632-2.737,2.632-3.432a2.078,2.078,0,0,0-2.463-2.147,16.181,16.181,0,0,0-3.158,2.716l-2.59,2.568-2.358-2.337c-1.305-1.284-2.611-2.505-2.905-2.695A1.77,1.77,0,0,0,142.728-406.272Z" transform="translate(-61.223 -82.86)" fill="#8967b3" stroke="#8967b3" stroke-width="1"/>
    <path id="Path_331" data-name="Path 331" d="M292.76-406.84A2.051,2.051,0,0,0,291.5-404.9c0,.779.168.989,2.59,3.411a27.281,27.281,0,0,1,2.568,2.779,19.962,19.962,0,0,1-2.337,2.526c-2.611,2.59-3.074,3.326-2.716,4.421a1.963,1.963,0,0,0,2.021,1.368c.716,0,1.011-.211,3.495-2.674l2.695-2.674,2.695,2.674c2.505,2.463,2.779,2.674,3.495,2.674a2.041,2.041,0,0,0,2.021-2.105c0-.842-.105-.99-2.611-3.558l-2.632-2.653,2.632-2.653c2.442-2.484,2.611-2.695,2.611-3.474a1.93,1.93,0,0,0-1.242-1.979c-1.095-.442-1.663-.105-4.4,2.59l-2.568,2.547-2.484-2.442C294.339-407.093,293.939-407.324,292.76-406.84Z" transform="translate(-179.234 -82.818)" fill="#8967b3" stroke="#8967b3" stroke-width="1"/>
    <path id="Path_332" data-name="Path 332" d="M142.353-401.713a2.231,2.231,0,0,0-.842.779c-.358.547-.379,1.979-.442,29.053l-.042,28.484h-9.979c-5.853,0-10.211.084-10.526.211a2.1,2.1,0,0,0-.905.779c-.358.526-.379,1.347-.442,10.737l-.063,10.169H68.605v-4.884l-.737-.737c-.653-.653-.842-.737-1.516-.632a2.981,2.981,0,0,0-1.305.674l-.547.526v8l.589.568.568.589H122.29l11.474-11.474,11.474-11.474v-30.063c0-20.232-.063-30.211-.211-30.485A2.682,2.682,0,0,0,143.2-401.9,2.667,2.667,0,0,0,142.353-401.713Zm-11.432,69.79c-4,4-7.326,7.263-7.411,7.263-.105,0-.168-3.263-.168-7.263v-7.263h14.842Z" transform="translate(-0.027 -86.872)" fill="#8967b3" stroke="#8967b3" stroke-width="1"/>
    <path id="Path_333" data-name="Path 333" d="M162.19-254.541a37.61,37.61,0,0,0-17.411,6.021c-1.726,1.158-2.442,1.853-2.611,2.526a2.108,2.108,0,0,0,2.505,2.505,9.8,9.8,0,0,0,1.937-1.179,39.65,39.65,0,0,1,7.895-4,39.379,39.379,0,0,1,8.653-1.705c7.558-.695,16.274,1.389,21.663,5.158,2.19,1.537,2.905,1.874,3.705,1.705a1.972,1.972,0,0,0,1.558-2.063c0-.989-.589-1.642-2.884-3.158C180.485-253.194,171.137-255.362,162.19-254.541Z" transform="translate(-61.296 -203.074)" fill="#8967b3" stroke="#8967b3" stroke-width="1"/>
    <path id="Path_334" data-name="Path 334" d="M65.736-89.617a2.041,2.041,0,0,0-.674,3.326A1.985,1.985,0,0,0,68.473-87.7,2.064,2.064,0,0,0,65.736-89.617Z" transform="translate(0 -333.303)" fill="#8967b3" stroke="#8967b3" stroke-width="1"/>
  </g>
</svg>
