<svg xmlns="http://www.w3.org/2000/svg" width="28.851" height="28.863" viewBox="0 0 28.851 28.863">
  <g id="facebook" transform="translate(-0.4 484.974)">
    <path id="Path_207" data-name="Path 207" d="M13.714-511.761a14.364,14.364,0,0,0-6.908,2.4,12.173,12.173,0,0,0-2.224,1.851A13.9,13.9,0,0,0,1.094-501.8a14.449,14.449,0,0,0,0,8.849,13.862,13.862,0,0,0,3.544,5.762,13.863,13.863,0,0,0,5.762,3.544,14.449,14.449,0,0,0,8.849,0,13.863,13.863,0,0,0,5.762-3.544,13.862,13.862,0,0,0,3.544-5.762,14.449,14.449,0,0,0,0-8.849,14.325,14.325,0,0,0-2.3-4.38,19.711,19.711,0,0,0-2.4-2.455,14.471,14.471,0,0,0-8.048-3.132A11.349,11.349,0,0,0,13.714-511.761Zm5.119,7.162v1.637H17.67c-1.772,0-1.738-.034-1.761,1.648l-.017,1.174h2.94l-.023.124c-.017.073-.1.824-.181,1.665l-.158,1.541H15.9v9.482l-1.958-.011-1.964-.017-.017-4.729-.011-4.724H10.085v-3.33h1.851l.023-1.4a5.483,5.483,0,0,1,.418-2.658,3.2,3.2,0,0,1,1.518-1.6c.734-.367,1.185-.429,3.234-.435l1.7-.006Z" transform="translate(0 26.839)" fill="#fff"/>
  </g>
</svg>
