<svg xmlns="http://www.w3.org/2000/svg" width="158.194" height="138.985" viewBox="0 0 158.194 138.985">
  <g id="handshake" transform="translate(0.437 481.324)">
    <path id="Path_220" data-name="Path 220" d="M247.566-480.44c-1.474.829-1.535,1.29-1.566,10.379,0,5.5.123,8.782.338,9.243a3.655,3.655,0,0,0,2.7,1.75,3.075,3.075,0,0,0,2.579-1.535c.461-.737.522-1.965.522-9.335,0-5.9-.123-8.69-.368-9.243A3.087,3.087,0,0,0,247.566-480.44Z" transform="translate(-170.399 0)" fill="#8967b3" stroke="#8967b3" stroke-width="1"/>
    <path id="Path_221" data-name="Path 221" d="M153.795-450.118c-1.658,1.658-1.443,2.3,3.439,10.041a78.965,78.965,0,0,0,5.128,7.523,3.03,3.03,0,0,0,3.961-.491c1.382-1.6,1.105-2.364-3.624-9.857a73.126,73.126,0,0,0-5.1-7.493A2.809,2.809,0,0,0,153.795-450.118Z" transform="translate(-105.861 -20.65)" fill="#8967b3" stroke="#8967b3" stroke-width="1"/>
    <path id="Path_222" data-name="Path 222" d="M322.383-450.358a73.121,73.121,0,0,0-5.1,7.493c-4.729,7.493-5.005,8.26-3.624,9.857a3.03,3.03,0,0,0,3.961.491,78.954,78.954,0,0,0,5.128-7.523c3.531-5.62,4.33-7.063,4.33-8.015A2.938,2.938,0,0,0,322.383-450.358Z" transform="translate(-216.78 -20.686)" fill="#8967b3" stroke="#8967b3" stroke-width="1"/>
    <path id="Path_223" data-name="Path 223" d="M28.956-394.193a7.712,7.712,0,0,0-2.794,1.75C25-391.245,1.289-349.79.46-347.486a7.8,7.8,0,0,0-.031,4.668c.676,2.242,2.334,3.685,7.861,6.756,4.913,2.733,5.22,2.856,7.278,2.948a5.669,5.669,0,0,0,3.838-.768,10.015,10.015,0,0,0,3.869-3.961c.307-.522.4-.522,1.689.246,1.75,1.044,3.961,2.948,3.961,3.439a11.717,11.717,0,0,1-.983,2.211c-.921,1.658-1.013,2.027-1.013,4.575a8.774,8.774,0,0,0,.676,4.207,11.233,11.233,0,0,0,7,5.9c.891.184.952.307,1.29,2.3a10.864,10.864,0,0,0,2.887,6.2,12.242,12.242,0,0,0,5.128,2.887c.921.184.983.276.983,1.5a10.37,10.37,0,0,0,7.37,9.581l1.689.491.061,1.658a10.924,10.924,0,0,0,6.172,8.813,9.286,9.286,0,0,0,4.053.676c3.409,0,4.668-.614,10.195-5.1l4.238-3.409,2.088,1.689c3.47,2.794,4.33,3.132,7.892,3.132,2.825,0,3.194-.061,4.7-.921a11.61,11.61,0,0,0,4.883-5.343l.491-1.443,3.1.031c2.7,0,3.316-.092,4.637-.768a10.736,10.736,0,0,0,5.927-8.506c.123-1.842.184-1.9,1.105-2.119a12,12,0,0,0,5.067-2.856,10.869,10.869,0,0,0,2.887-6.142l.307-2.119,1.259-.368a9.415,9.415,0,0,0,4.76-2.917c2.057-2.242,2.641-3.808,2.641-7.063,0-2.549-.092-2.917-.983-4.575a10.638,10.638,0,0,1-1.013-2.211c0-.491,2.211-2.4,3.961-3.439,1.29-.768,1.382-.768,1.689-.246a9.62,9.62,0,0,0,3.869,3.961,5.707,5.707,0,0,0,3.838.768c2.057-.092,2.365-.215,7.063-2.825a50.657,50.657,0,0,0,5.927-3.685,7.643,7.643,0,0,0,2.4-6.725c-.246-1.535-5.988-12.007-7.063-12.866a3.049,3.049,0,0,0-3.9.338c-1.413,1.413-1.228,2.364,1.259,6.786,3.5,6.172,3.869,7,3.5,7.615-.43.676-8.69,5.282-9.489,5.282a2.062,2.062,0,0,1-.952-.246c-.461-.307-24.382-42.653-24.382-43.175,0-.614.768-1.136,5.343-3.685,3.593-2,4.391-2.334,4.944-2.088.4.184,1.658,2.088,3.194,4.79a42.912,42.912,0,0,0,3.163,5.1,3.2,3.2,0,0,0,4.053-.184c1.443-1.474,1.167-2.549-1.965-8.076a29.857,29.857,0,0,0-3.961-5.957,8.053,8.053,0,0,0-5.988-1.9c-1.29.215-7.677,3.439-11.27,5.712a7.456,7.456,0,0,0-3.224,8.629l.43,1.167-2.518.768c-1.351.43-3.255.921-4.207,1.136l-1.72.338-6.725-2.364c-8.629-3.009-9.55-3.255-12.867-3.255-3.5,0-18.179,1.382-21.065,1.965-2.579.553-5.343,1.75-6.479,2.856l-.86.8-1.9-.522c-1.075-.276-2.856-.8-3.961-1.136l-2.027-.614.4-1.136c1.259-3.531-.338-6.94-4.36-9.3C34.177-394.531,32-395.268,28.956-394.193ZM35.9-386.3c4.514,2.487,5.312,3.04,5.312,3.685,0,.522-23.921,42.868-24.382,43.175a1.9,1.9,0,0,1-.891.246c-.676,0-8.905-4.453-9.458-5.128-.276-.338-.307-.676-.092-1.29.614-1.566,23.553-41.947,24.136-42.5a2.36,2.36,0,0,1,.891-.522A48.5,48.5,0,0,1,35.9-386.3Zm57.823,12.836c7.37,2.641,7.554,2.7,9.673,2.518a40.091,40.091,0,0,0,6.3-1.382,20.014,20.014,0,0,1,4.33-1.013c.4.4,16.336,28.773,16.459,29.234.061.307-.583.891-1.9,1.689a23.087,23.087,0,0,0-3.562,2.794l-1.566,1.6-7.431-5.865c-7.554-5.988-16.7-12.866-21.311-16-7.431-5.036-12.191-6.111-21.25-4.79-5.067.737-7.032.676-9.581-.307a7.746,7.746,0,0,1-5.005-5.312c-.522-1.781-.307-2.426,1.167-3.163,1.535-.8,3.654-1.29,7.4-1.658,9.919-1.013,11.976-1.167,15.231-1.105l3.531.092ZM47.78-372.36a39.838,39.838,0,0,1,4.483,1.443,8.817,8.817,0,0,1,.553,1.781,14.413,14.413,0,0,0,11.915,10.748c3.255.583,4.084.583,9.151-.184,9.182-1.382,11.454-.614,22.57,7.462,7.953,5.773,25.457,19.561,27.023,21.219a4.428,4.428,0,0,1,.522,4.483,4.279,4.279,0,0,1-6.049,1.474c-.583-.4-2.887-2.18-5.159-3.992-3.531-2.794-4.3-3.286-5.22-3.286a3.173,3.173,0,0,0-3.1,3.194c0,1.075.983,2.088,5.988,6.111,3.531,2.825,4.36,3.654,4.7,4.637a4.16,4.16,0,0,1-1.167,4.33c-.829.8-1.2.921-2.733.921H109.5l-5.282-4.238c-5.988-4.76-6.571-4.975-8.414-3.316a2.281,2.281,0,0,0-1.013,2.119c0,1.566.184,1.75,5.9,6.264,4.729,3.746,5.619,4.76,5.619,6.6a4.439,4.439,0,0,1-4.053,4.084c-1.413,0-2.211-.461-6.909-4.238-2.549-2.027-4.883-3.838-5.251-4.023a3,3,0,0,0-3.961,4.146,19.248,19.248,0,0,0,2.825,2.672c3.255,2.61,3.562,3.009,3.746,4.606a3.953,3.953,0,0,1-3.992,4.514c-1.474,0-1.935-.246-5.036-2.7-2.518-1.965-2.518-1.965-2.7-3.716a11.682,11.682,0,0,0-5.19-8.23c-.583-.307-.583-.368.092-1.812a10.5,10.5,0,0,0-.061-9.243,13.287,13.287,0,0,0-4.053-4.3c-.553-.307-.553-.4.276-2.211a10.168,10.168,0,0,0-2.334-11.577,8.787,8.787,0,0,0-6.694-2.733,19.062,19.062,0,0,0-3.439.276c-1.013.215-1.167.184-1.167-.307,0-.921-1.689-3.624-2.948-4.729a9.994,9.994,0,0,0-6.879-2.579c-3.224,0-4.7.737-10.072,5.067l-4.514,3.593-1.842-1.75a22.888,22.888,0,0,0-3.593-2.794,5.876,5.876,0,0,1-1.781-1.351c0-.246,2.917-5.435,13.88-24.842,1.5-2.641,2.764-4.821,2.794-4.821S45.446-373.035,47.78-372.36Zm2.549,32.212a3.97,3.97,0,0,1,1.75,1.535,4.641,4.641,0,0,1-.154,4.453c-.676.829-10.318,8.721-12.437,10.164a4.283,4.283,0,0,1-6.142-1.413,4.656,4.656,0,0,1,.368-4.33c1.136-1.259,12.805-10.471,13.6-10.686A3.333,3.333,0,0,1,50.329-340.147Zm14.555,7.493a5.188,5.188,0,0,1,1.413,1.443,4.969,4.969,0,0,1-.246,4.391c-.338.461-4.575,3.961-9.427,7.8l-8.782,7H46.061c-1.5,0-1.873-.123-2.7-.921a4.16,4.16,0,0,1-1.167-4.33c.338-1.044,1.5-2.088,8.537-7.769,4.483-3.593,8.752-6.94,9.489-7.431A3.884,3.884,0,0,1,64.884-332.655Zm3.654,15.108a3.718,3.718,0,0,1,2.15,3.654,4.506,4.506,0,0,1-.491,2.3c-.645.921-12.559,10.441-13.542,10.809a4.222,4.222,0,0,1-5.62-3.716c0-2,.768-2.856,7.155-7.892,3.409-2.7,6.479-5.067,6.817-5.251A4.192,4.192,0,0,1,68.539-317.547Zm4.453,15.63a4.236,4.236,0,0,1,1.259,5.527c-.706,1.105-7.984,6.879-8.936,7.124-3.808.952-6.848-3.838-4.238-6.694a74.961,74.961,0,0,1,8.107-6.387A5.047,5.047,0,0,1,72.991-301.916Z" transform="translate(0 -59.685)" fill="#8967b3" stroke="#8967b3" stroke-width="1"/>
    <path id="Path_224" data-name="Path 224" d="M451.694-319.155a2.967,2.967,0,0,0,3.47,4.729,3.113,3.113,0,0,0,1.6-3.316A3.04,3.04,0,0,0,451.694-319.155Z" transform="translate(-312.313 -111.416)" fill="#8967b3" stroke="#8967b3" stroke-width="1"/>
  </g>
</svg>
