<svg xmlns="http://www.w3.org/2000/svg" width="22.946" height="15.297" viewBox="0 0 22.946 15.297">
  <path id="Icon_awesome-eye" data-name="Icon awesome-eye" d="M22.807,11.567A12.777,12.777,0,0,0,11.473,4.5,12.779,12.779,0,0,0,.139,11.567a1.289,1.289,0,0,0,0,1.163A12.777,12.777,0,0,0,11.473,19.8,12.779,12.779,0,0,0,22.807,12.73,1.289,1.289,0,0,0,22.807,11.567ZM11.473,17.885a5.737,5.737,0,1,1,5.737-5.737A5.737,5.737,0,0,1,11.473,17.885Zm0-9.561a3.8,3.8,0,0,0-1.008.151A1.906,1.906,0,0,1,7.8,11.14a3.816,3.816,0,1,0,3.673-2.816Z" transform="translate(0 -4.5)" fill="#fff"/>
</svg>
