<svg xmlns="http://www.w3.org/2000/svg" width="23.227" height="18.913" viewBox="0 0 23.227 18.913">
  <path id="Icon_awesome-tags" data-name="Icon awesome-tags" d="M17.294,7.847,9.935.488A1.667,1.667,0,0,0,8.756,0H1.667A1.667,1.667,0,0,0,0,1.667V8.756A1.667,1.667,0,0,0,.488,9.935l7.359,7.359a1.667,1.667,0,0,0,2.358,0L17.294,10.2a1.667,1.667,0,0,0,0-2.358ZM3.89,5.557A1.667,1.667,0,1,1,5.557,3.89,1.667,1.667,0,0,1,3.89,5.557ZM21.739,10.2,14.65,17.294a1.667,1.667,0,0,1-2.358,0l-.013-.013,6.045-6.045a3.126,3.126,0,0,0,0-4.42L11.51,0H13.2A1.667,1.667,0,0,1,14.38.488l7.359,7.359a1.667,1.667,0,0,1,0,2.358Z" transform="translate(0.5 0.5)" fill="none" stroke="#fff" stroke-width="1"/>
</svg>
