<svg xmlns="http://www.w3.org/2000/svg" width="21.554" height="22.029" viewBox="0 0 21.554 22.029">
  <path id="Icon_material-settings" data-name="Icon material-settings" d="M21.019,14.271a7.078,7.078,0,0,0,0-2.012l2.166-1.694a.518.518,0,0,0,.123-.657L21.256,6.357a.516.516,0,0,0-.626-.226L18.073,7.157a7.5,7.5,0,0,0-1.735-1.006l-.39-2.72a.5.5,0,0,0-.5-.431H11.34a.5.5,0,0,0-.5.431l-.39,2.72A7.886,7.886,0,0,0,8.712,7.157L6.156,6.131a.5.5,0,0,0-.626.226L3.477,9.908a.506.506,0,0,0,.123.657l2.166,1.694a8.14,8.14,0,0,0-.072,1.006,8.14,8.14,0,0,0,.072,1.006L3.6,15.964a.518.518,0,0,0-.123.657L5.53,20.173a.516.516,0,0,0,.626.226l2.556-1.026a7.5,7.5,0,0,0,1.735,1.006l.39,2.72a.5.5,0,0,0,.5.431h4.106a.5.5,0,0,0,.5-.431l.39-2.72a7.886,7.886,0,0,0,1.735-1.006L20.629,20.4a.5.5,0,0,0,.626-.226l2.053-3.552a.518.518,0,0,0-.123-.657l-2.166-1.694Zm-7.627,2.587a3.593,3.593,0,1,1,3.593-3.593A3.6,3.6,0,0,1,13.393,16.857Z" transform="translate(-2.61 -2.25)" fill="none" stroke="#8967b3" stroke-width="1.5"/>
</svg>
