<svg xmlns="http://www.w3.org/2000/svg" width="24.983" height="19.987" viewBox="0 0 24.983 19.987">
  <path id="Icon_awesome-eye-slash" data-name="Icon awesome-eye-slash" d="M12.491,15.614a5.6,5.6,0,0,1-5.578-5.2L2.818,7.254a13.01,13.01,0,0,0-1.433,2.17,1.263,1.263,0,0,0,0,1.139,12.52,12.52,0,0,0,11.106,6.925,12.125,12.125,0,0,0,3.04-.408l-2.026-1.567a5.626,5.626,0,0,1-1.015.1Zm12.25,2.268-4.315-3.335A12.931,12.931,0,0,0,23.6,10.563a1.263,1.263,0,0,0,0-1.139A12.52,12.52,0,0,0,12.491,2.5,12.029,12.029,0,0,0,6.741,3.97L1.775.131A.625.625,0,0,0,.9.241l-.766.986a.625.625,0,0,0,.11.876L23.208,19.855a.625.625,0,0,0,.877-.11l.767-.986a.625.625,0,0,0-.11-.876ZM17.57,12.339l-1.534-1.186A3.7,3.7,0,0,0,11.5,6.394a1.86,1.86,0,0,1,.363,1.1,1.821,1.821,0,0,1-.06.39L8.933,5.664a5.555,5.555,0,0,1,3.558-1.292,5.618,5.618,0,0,1,5.621,5.621,5.488,5.488,0,0,1-.543,2.346Z" transform="translate(0 0)" fill="#444"/>
</svg>
