<svg xmlns="http://www.w3.org/2000/svg" width="24.488" height="24.962" viewBox="0 0 24.488 24.962">
  <path id="Icon_ionic-logo-google" data-name="Icon ionic-logo-google" d="M28,13.939l-.126-.534H16.26v4.916H23.2A6.945,6.945,0,0,1,16.4,23.542a8.125,8.125,0,0,1-5.468-2.179,7.806,7.806,0,0,1-2.329-5.51,8.051,8.051,0,0,1,2.287-5.5,7.778,7.778,0,0,1,5.432-2.125,7.085,7.085,0,0,1,4.621,1.8l3.493-3.475a12.359,12.359,0,0,0-8.229-3.169h0a12.721,12.721,0,0,0-9,3.661A12.669,12.669,0,0,0,3.656,15.86a12.542,12.542,0,0,0,3.415,8.673,13.028,13.028,0,0,0,9.393,3.811A11.586,11.586,0,0,0,24.9,24.8a12.46,12.46,0,0,0,3.241-8.631A14.371,14.371,0,0,0,28,13.939Z" transform="translate(-3.656 -3.382)" fill="#fff"/>
</svg>
