<svg xmlns="http://www.w3.org/2000/svg" width="44.476" height="44.476" viewBox="0 0 44.476 44.476">
  <path id="Icon_metro-cancel" data-name="Icon metro-cancel" d="M24.809,1.928A22.238,22.238,0,1,0,47.047,24.166,22.238,22.238,0,0,0,24.809,1.928Zm0,40.307A18.068,18.068,0,1,1,42.877,24.166,18.069,18.069,0,0,1,24.809,42.235Zm6.949-29.188L24.809,20l-6.949-6.949-4.17,4.17,6.949,6.949L13.69,31.116l4.17,4.17,6.949-6.949,6.949,6.949,4.17-4.17-6.949-6.949,6.949-6.949Z" transform="translate(-2.571 -1.928)" fill="#fff"/>
</svg>
