<svg xmlns="http://www.w3.org/2000/svg" width="34.384" height="34.367" viewBox="0 0 34.384 34.367">
  <g id="idea" transform="translate(0 511.775)">
    <path id="Path_321" data-name="Path 321" d="M241.524-511.649a.963.963,0,0,0-.389.4c-.128.249-.134.39-.134,2.518s.007,2.27.134,2.518a1.06,1.06,0,0,0,.873.537,1.06,1.06,0,0,0,.873-.537c.128-.248.134-.389.134-2.518s-.007-2.27-.134-2.518A.982.982,0,0,0,241.524-511.649Z" transform="translate(-224.815 0)" fill="#fff"/>
    <path id="Path_322" data-name="Path 322" d="M72.062-440.748a.974.974,0,0,0-.557,1.162c.067.249.3.5,1.6,1.82,1.652,1.659,1.894,1.84,2.371,1.76a1.14,1.14,0,0,0,.833-.833c.081-.477-.1-.719-1.759-2.371-1.256-1.242-1.578-1.531-1.8-1.592A.7.7,0,0,0,72.062-440.748Z" transform="translate(-66.67 -66.146)" fill="#fff"/>
    <path id="Path_323" data-name="Path 323" d="M371.809-440.747a9.41,9.41,0,0,0-1.766,1.585c-1.659,1.652-1.84,1.894-1.759,2.371a1.14,1.14,0,0,0,.833.833c.477.081.719-.1,2.371-1.76,1.316-1.323,1.531-1.571,1.6-1.827a.721.721,0,0,0-.034-.578.876.876,0,0,0-.591-.6A.712.712,0,0,0,371.809-440.747Z" transform="translate(-343.536 -66.194)" fill="#fff"/>
    <path id="Path_324" data-name="Path 324" d="M129.854-390.671a8.958,8.958,0,0,0-5.648,2.612,8.734,8.734,0,0,0-2.2,3.573,8.226,8.226,0,0,0-.4,2.874,6.428,6.428,0,0,0,.181,1.894,9.613,9.613,0,0,0,2.606,4.688,4.948,4.948,0,0,1,1.2,3.143c.04.625.074.8.195.967.309.437.168.423,4.849.423s4.54.013,4.849-.423c.121-.168.154-.349.195-.947a5.609,5.609,0,0,1,.416-1.9,4.691,4.691,0,0,1,1.048-1.551,9.88,9.88,0,0,0,1.37-1.86,9.117,9.117,0,0,0,1.021-6.118,9.014,9.014,0,0,0-7.072-7.213A12.039,12.039,0,0,0,129.854-390.671Zm1.242,4.123a1.06,1.06,0,0,1,.537.873,1.066,1.066,0,0,1-1.054,1.007,4.1,4.1,0,0,0-1.316.309,2.935,2.935,0,0,0-1.491,1.713c-.369.96-1.2,1.222-1.773.564a1.018,1.018,0,0,1-.175-1.1,5,5,0,0,1,3.794-3.4A2.431,2.431,0,0,1,131.1-386.548Z" transform="translate(-113.434 -112.953)" fill="#fff"/>
    <path id="Path_325" data-name="Path 325" d="M.524-270.859a1.076,1.076,0,0,0-.524.866,1.06,1.06,0,0,0,.537.873c.248.128.39.134,2.518.134s2.27-.007,2.518-.134a1.06,1.06,0,0,0,.537-.873,1.06,1.06,0,0,0-.537-.873c-.248-.128-.39-.134-2.532-.134S.759-270.987.524-270.859Z" transform="translate(0 -224.605)" fill="#fff"/>
    <path id="Path_326" data-name="Path 326" d="M421.524-270.859a1.076,1.076,0,0,0-.524.866,1.06,1.06,0,0,0,.537.873c.249.128.389.134,2.518.134s2.27-.007,2.518-.134a1.06,1.06,0,0,0,.537-.873,1.06,1.06,0,0,0-.537-.873c-.249-.128-.39-.134-2.532-.134S421.759-270.987,421.524-270.859Z" transform="translate(-392.727 -224.605)" fill="#fff"/>
    <path id="Path_327" data-name="Path 327" d="M196-59.4a3.675,3.675,0,0,0,.336,1.739,3.067,3.067,0,0,0,2.142,1.625,18.41,18.41,0,0,0,3.1,0,3.055,3.055,0,0,0,2.411-2.411,7.2,7.2,0,0,0,.067-.954V-60H196Z" transform="translate(-182.837 -421.435)" fill="#fff"/>
  </g>
</svg>
