<svg xmlns="http://www.w3.org/2000/svg" width="25.866" height="26.009" viewBox="0 0 25.866 26.009">
  <g id="instagram" transform="translate(-0.95 511.691)">
    <path id="Path_208" data-name="Path 208" d="M9.069-511.518a10.467,10.467,0,0,0-3.769.7,6.029,6.029,0,0,0-2.1,1.408,6.728,6.728,0,0,0-1.812,3.245C1.071-504.978,1-503.61,1-498.65c0,4.879.066,6.262.358,7.453a6.815,6.815,0,0,0,6.091,5.288,64.679,64.679,0,0,0,6.494.177c3.406,0,5.369-.05,6.252-.156A7.214,7.214,0,0,0,24.53-487.8a7.267,7.267,0,0,0,2.165-4.723c.1-.807.1-11.576,0-12.337a7.922,7.922,0,0,0-1.383-3.79,8.439,8.439,0,0,0-1.6-1.544,8.364,8.364,0,0,0-4.113-1.282C18.782-511.538,10.446-511.573,9.069-511.518Zm10.915,2.437a4.788,4.788,0,0,1,3.023,1.342,4.014,4.014,0,0,1,1.029,1.635c.414,1.161.454,1.776.454,7.478,0,3.285-.02,4.864-.066,5.394a5.271,5.271,0,0,1-1.312,3.567,5.118,5.118,0,0,1-3.568,1.509c-.893.086-8.275.126-9.976.056-.767-.03-1.569-.081-1.786-.111a5.725,5.725,0,0,1-2.452-.888,5.792,5.792,0,0,1-1.145-1.246,6.7,6.7,0,0,1-.762-2.962c-.151-2.291-.1-10.153.071-11.455a4.763,4.763,0,0,1,1.393-3.023,5.528,5.528,0,0,1,3.774-1.362c.383-.02,2.962-.035,5.737-.025C18.7-509.161,19.524-509.151,19.983-509.08Z" transform="translate(0 0)" fill="#fff" stroke="#707070" stroke-width="0.1"/>
    <path id="Path_209" data-name="Path 209" d="M364.343-422.849a1.422,1.422,0,0,0-.843,1.388,1.335,1.335,0,0,0,.434,1.08,1.351,1.351,0,0,0,1.08.434,1.223,1.223,0,0,0,.691-.141,1.459,1.459,0,0,0,.838-1.277,1.338,1.338,0,0,0-.439-1.186,1.38,1.38,0,0,0-1.115-.449A1.22,1.22,0,0,0,364.343-422.849Z" transform="translate(-344.208 -84.077)" fill="#fff" stroke="#707070" stroke-width="0.1"/>
    <path id="Path_210" data-name="Path 210" d="M131.335-386.836a6.492,6.492,0,0,0-3.492,1.857,6.3,6.3,0,0,0-1.943,4.673,6.276,6.276,0,0,0,.666,2.942,6.631,6.631,0,0,0,7.544,3.492,6.29,6.29,0,0,0,3-1.675,6.383,6.383,0,0,0,1.68-2.639,6.1,6.1,0,0,0,.333-2.119,6.093,6.093,0,0,0-.328-2.1,6.281,6.281,0,0,0-1.524-2.493,6.615,6.615,0,0,0-3.618-1.938A9.16,9.16,0,0,0,131.335-386.836Zm2,2.311a4.32,4.32,0,0,1,3.4,5.041,4.35,4.35,0,0,1-2.629,3.169,3.669,3.669,0,0,1-1.766.283,3.417,3.417,0,0,1-1.085-.161,4.311,4.311,0,0,1-2.957-3.275,4.9,4.9,0,0,1,.106-2.1,4.352,4.352,0,0,1,3.25-2.952A5.363,5.363,0,0,1,133.333-384.525Z" transform="translate(-118.598 -118.343)" fill="#fff" stroke="#707070" stroke-width="0.1"/>
  </g>
</svg>
