<svg xmlns="http://www.w3.org/2000/svg" width="20.152" height="20.082" viewBox="0 0 20.152 20.082">
  <g id="link" transform="translate(-0.081 511.895)">
    <path id="Path_300" data-name="Path 300" d="M149.609-511.771a1.093,1.093,0,0,0-.269.183c-.234.234-.238.265-.25,1.706-.016,1.588,0,1.674.261,1.94a.667.667,0,0,0,.379.226.819.819,0,0,0,.956-.48c.066-.144.074-.273.074-1.561,0-1.393,0-1.4-.094-1.6a.658.658,0,0,0-.414-.406A.759.759,0,0,0,149.609-511.771Z" transform="translate(-143.139 0)" stroke="#000" stroke-width="0.1"/>
    <path id="Path_301" data-name="Path 301" d="M198.774-511.76a4.223,4.223,0,0,0-1.8.765c-.164.121-1.011.941-1.881,1.815-1.526,1.534-1.588,1.6-1.631,1.791a.809.809,0,0,0,.429.933.811.811,0,0,0,.64.059c.133-.035.414-.3,1.8-1.674,1.6-1.592,1.647-1.631,1.971-1.791a2.207,2.207,0,0,1,1.249-.265,2.58,2.58,0,0,1,.663.1,2.566,2.566,0,0,1,1.612,1.624,2.144,2.144,0,0,1,.086.761,2.016,2.016,0,0,1-.285,1.19c-.125.25-.367.5-3.009,3.15l-2.872,2.872-.371.176a2.147,2.147,0,0,1-1.124.261,2.471,2.471,0,0,1-1.612-.6,1.164,1.164,0,0,0-.593-.343.82.82,0,0,0-.866.445.8.8,0,0,0-.055.632,3.186,3.186,0,0,0,1.475,1.19,4.194,4.194,0,0,0,4.137-.468c.386-.285,5.967-5.9,6.155-6.186a4.158,4.158,0,0,0-.308-5.062,4.505,4.505,0,0,0-1.877-1.237A4.373,4.373,0,0,0,198.774-511.76Z" transform="translate(-183.496 -0.027)" stroke="#000" stroke-width="0.1"/>
    <path id="Path_302" data-name="Path 302" d="M43.614-468.793a.807.807,0,0,0-.468.812.675.675,0,0,0,.137.414c.2.285,2.666,2.709,2.837,2.787a.89.89,0,0,0,.788-.066.744.744,0,0,0,.359-.632.749.749,0,0,0-.055-.394c-.078-.172-2.5-2.638-2.787-2.837a.658.658,0,0,0-.429-.137A.739.739,0,0,0,43.614-468.793Z" transform="translate(-41.332 -41.312)" stroke="#000" stroke-width="0.1"/>
    <path id="Path_303" data-name="Path 303" d="M.745-362.94a.767.767,0,0,0-.535.472.732.732,0,0,0,0,.644.658.658,0,0,0,.406.414c.2.094.207.094,1.6.094,1.288,0,1.417-.008,1.561-.074a.819.819,0,0,0,.48-.956.851.851,0,0,0-.613-.6A21.809,21.809,0,0,0,.745-362.94Z" transform="translate(-0.004 -143.036)" stroke="#000" stroke-width="0.1"/>
    <path id="Path_304" data-name="Path 304" d="M8.331-333.69a4.339,4.339,0,0,0-1.8.769c-.418.312-5.487,5.409-5.686,5.714a4.161,4.161,0,0,0-.66,2.97A3.785,3.785,0,0,0,.6-322.965a4.183,4.183,0,0,0,3.7,2.256,4.343,4.343,0,0,0,2.451-.82c.14-.105.874-.812,1.627-1.569,1.358-1.362,1.374-1.382,1.417-1.588a.828.828,0,0,0-.141-.675.924.924,0,0,0-.652-.343c-.332,0-.441.09-1.877,1.518-1.323,1.319-1.378,1.362-1.7,1.522a2.207,2.207,0,0,1-1.249.265,2.333,2.333,0,0,1-1.655-.714,2.333,2.333,0,0,1-.714-1.655,2.182,2.182,0,0,1,.265-1.249l.16-.332,2.642-2.638,2.638-2.642.332-.16a2.332,2.332,0,0,1,1.136-.277,2.448,2.448,0,0,1,1.639.6c.332.277.48.347.718.347a.805.805,0,0,0,.765-.5.735.735,0,0,0,.027-.57,3.479,3.479,0,0,0-2.119-1.425A4.7,4.7,0,0,0,8.331-333.69Z" transform="translate(0 -171.154)" stroke="#000" stroke-width="0.1"/>
    <path id="Path_305" data-name="Path 305" d="M406.1-191.9a.823.823,0,0,0-.433.933.668.668,0,0,0,.226.379c.265.265.351.277,1.94.261,1.44-.012,1.471-.016,1.706-.25a.791.791,0,0,0,.176-.913.658.658,0,0,0-.406-.414c-.2-.094-.207-.094-1.6-.094H406.3Z" transform="translate(-389.688 -307.357)" stroke="#000" stroke-width="0.1"/>
    <path id="Path_306" data-name="Path 306" d="M363.615-148.85a.8.8,0,0,0-.468.808.675.675,0,0,0,.137.414c.191.273,2.666,2.709,2.829,2.783a.835.835,0,0,0,1.062-.363.619.619,0,0,0,.094-.441.678.678,0,0,0-.137-.418c-.191-.273-2.666-2.709-2.829-2.783A.968.968,0,0,0,363.615-148.85Z" transform="translate(-348.844 -348.762)" stroke="#000" stroke-width="0.1"/>
    <path id="Path_307" data-name="Path 307" d="M320.644-106.429a.831.831,0,0,0-.546.437l-.1.2v1.4c0,1.331.008,1.417.082,1.585a.658.658,0,0,0,.406.414.791.791,0,0,0,.933-.164c.234-.234.238-.265.25-1.706a13.568,13.568,0,0,0-.031-1.526A.827.827,0,0,0,320.644-106.429Z" transform="translate(-307.383 -389.567)" stroke="#000" stroke-width="0.1"/>
  </g>
</svg>
