<svg xmlns="http://www.w3.org/2000/svg" width="25.908" height="25.906" viewBox="0 0 25.908 25.906">
  <g id="linkedin-logo" transform="translate(0.005 513.313)">
    <path id="Path_212" data-name="Path 212" d="M1.968-511.865a3.789,3.789,0,0,0-.557.213,3.314,3.314,0,0,0-1.123,1.123c-.314.638-.293-.137-.293,11.537s-.02,10.9.293,11.537a3.314,3.314,0,0,0,1.123,1.123c.638.314-.137.293,11.537.293s10.9.02,11.537-.293a3.314,3.314,0,0,0,1.123-1.123c.314-.638.293.137.293-11.537s.02-10.9-.293-11.537a3.314,3.314,0,0,0-1.123-1.123c-.638-.314.142-.294-11.562-.288C3.694-511.941,2.211-511.931,1.968-511.865Zm4.569,3.542a2.319,2.319,0,0,1,1.528,2.8A2.325,2.325,0,0,1,5.151-503.9a2.308,2.308,0,0,1-1.392-3.269A2.4,2.4,0,0,1,5.394-508.4,2.822,2.822,0,0,1,6.538-508.323Zm12.129,6.649a4.64,4.64,0,0,1,2.884,2.449c.455.936.425.587.44,5.2l.02,4.089h-3.9v-3.583a22.726,22.726,0,0,0-.086-3.836,1.984,1.984,0,0,0-1.543-1.336,1.961,1.961,0,0,0-1.928.9c-.293.471-.288.374-.288,4.276v3.583h-3.9v-11.638h3.9v1.457l.471-.466a4.274,4.274,0,0,1,2.034-1.174A5.18,5.18,0,0,1,18.667-501.674Zm-10.879,5.92v5.819h-3.9v-11.638h3.9Z" transform="translate(0 -1.369)" fill="#fff"/>
  </g>
</svg>
