<svg xmlns="http://www.w3.org/2000/svg" width="65.716" height="76.654" viewBox="0 0 65.716 76.654">
  <g id="padlock" transform="translate(-48 499.167)">
    <path id="Path_309" data-name="Path 309" d="M200.4-497.642a1.506,1.506,0,0,0-.323.585c0,.092.416,1.278.939,2.633,1.493,3.911,1.417,3.665,1.093,3.541-.139-.046-.955-.308-1.817-.554a32.075,32.075,0,0,0-18.184.246c-2.186.693-2.633,1.186-1.878,2.14.385.477.724.493,1.925.092a30.246,30.246,0,0,1,18.569-.123l.57.2-2.8,1.062c-1.54.585-2.895,1.124-3.018,1.216a1.031,1.031,0,0,0,.293,1.771c.477.169.262.246,5.466-1.724a35.314,35.314,0,0,0,3.818-1.6c.216-.185.262-.4.216-.8a80.262,80.262,0,0,0-3.449-8.9A1.028,1.028,0,0,0,200.4-497.642Z" transform="translate(-110.737)" fill="#8967b3" stroke="#8967b3" stroke-width="2"/>
    <path id="Path_310" data-name="Path 310" d="M120.73-426.112a18.348,18.348,0,0,0-1.632,1.186c-1.432,1.139-1.709,1.755-1.093,2.448.431.477,1.032.339,2.079-.493,1.878-1.493,2.125-1.709,2.217-2.079A1.047,1.047,0,0,0,120.73-426.112Z" transform="translate(-58.119 -60.752)" fill="#8967b3" stroke="#8967b3" stroke-width="2"/>
    <path id="Path_311" data-name="Path 311" d="M205.226-378.658a1.239,1.239,0,0,0-.339.662,7.348,7.348,0,0,0,.939,1.771,29.95,29.95,0,0,1,.708,31.133,29.723,29.723,0,0,1-31.687,14.119,13.644,13.644,0,0,1-3.48-1.016c.046-.046,1.309-.554,2.818-1.124,3.095-1.186,3.5-1.478,3.156-2.294-.416-.985-.539-.955-5.3.831-2.387.893-4.465,1.74-4.619,1.878-.216.185-.262.4-.216.8a75.98,75.98,0,0,0,3.449,8.884,1.011,1.011,0,0,0,1.417-.2,1.439,1.439,0,0,0,.323-.6c0-.108-.508-1.524-1.139-3.172s-1.124-3-1.109-3.033a3.78,3.78,0,0,1,.724.2,37.155,37.155,0,0,0,5.143,1.247,41.718,41.718,0,0,0,9.7.015,32.233,32.233,0,0,0,18.23-9.592,31.851,31.851,0,0,0,5.928-35.044,31.745,31.745,0,0,0-3.018-5.266C206.319-379.12,205.719-379.2,205.226-378.658Z" transform="translate(-99.996 -100.708)" fill="#8967b3" stroke="#8967b3" stroke-width="2"/>
    <path id="Path_312" data-name="Path 312" d="M76.8-377.363a12.791,12.791,0,0,0-2.125,3.049.992.992,0,0,0,.908,1.57c.585,0,.539.046,1.848-2a6.717,6.717,0,0,0,.847-1.632A1.129,1.129,0,0,0,76.8-377.363Z" transform="translate(-21.58 -102.048)" fill="#8967b3" stroke="#8967b3" stroke-width="2"/>
    <path id="Path_313" data-name="Path 313" d="M190.743-372.543a9.111,9.111,0,0,0-6.113,4.157c-.955,1.632-1.093,2.4-1.17,6.113l-.062,3.434h-1.216c-1.463,0-2.109.231-2.617.939l-.37.523-.046,6.575a70.194,70.194,0,0,0,.123,7.19,2.207,2.207,0,0,0,.708,1.078l.539.477,11.625-.031,11.64-.046.508-.554c.693-.754.724-1.216.662-8.53-.046-5.681-.062-6.036-.354-6.528-.477-.8-1.17-1.093-2.633-1.093H200.7l-.062-3.357c-.092-3.772-.246-4.527-1.309-6.328A8.745,8.745,0,0,0,190.743-372.543Zm2.925,2.248a6.468,6.468,0,0,1,4.681,4.958,29.408,29.408,0,0,1,.169,3.649v2.848H185.585v-2.972a16.474,16.474,0,0,1,.246-3.88A6.368,6.368,0,0,1,193.668-370.3Zm9.13,19.878-.046,6.282-9.007.046c-4.958.031-9.793,0-10.732-.046l-1.74-.108v-12.441h21.556Z" transform="translate(-110.102 -106.098)" fill="#8967b3" stroke="#8967b3" stroke-width="2"/>
    <path id="Path_314" data-name="Path 314" d="M256.246-242.694c-.185.262-.246.754-.246,1.986,0,1.6.015,1.663.4,1.971a.877.877,0,0,0,1.37-.062c.354-.354.385-.477.385-2,0-1.417-.046-1.663-.308-1.925A1.135,1.135,0,0,0,256.246-242.694Z" transform="translate(-175.128 -215.747)" fill="#8967b3" stroke="#8967b3" stroke-width="2"/>
    <path id="Path_315" data-name="Path 315" d="M50.34-312.556c-.631.631-1.34,5.143-1.34,8.438a32.4,32.4,0,0,0,3.141,13.75c1.032,2.156,1.355,2.571,1.955,2.571a1.1,1.1,0,0,0,1.062-.955,11.792,11.792,0,0,0-.924-2.2,31.389,31.389,0,0,1-2.925-9.777,33.652,33.652,0,0,1,.539-9.87c.323-1.247.293-1.6-.169-1.971A.874.874,0,0,0,50.34-312.556Z" transform="translate(0 -156.663)" fill="#8967b3" stroke="#8967b3" stroke-width="2"/>
  </g>
</svg>
