<svg xmlns="http://www.w3.org/2000/svg" width="19.086" height="28.766" viewBox="0 0 19.086 28.766">
  <g id="placeholder" transform="translate(-86.195 511.988)">
    <path id="Path_227" data-name="Path 227" d="M94.678-511.926a9.6,9.6,0,0,0-8.184,7.11,10.164,10.164,0,0,0,.068,5.147c.557,1.941,1.485,3.437,4.6,7.4.607.771,1.1,1.423,1.1,1.44s-.129.056-.293.073a12.292,12.292,0,0,0-4.41,1.541,4.033,4.033,0,0,0-1.192,1.288,1.493,1.493,0,0,0-.152.8,1.9,1.9,0,0,0,.63,1.468,7.674,7.674,0,0,0,3.87,1.9,18.839,18.839,0,0,0,5.062.534,19.519,19.519,0,0,0,3.966-.3c2.784-.506,4.809-1.558,5.389-2.8a1.606,1.606,0,0,0,.152-.8,1.9,1.9,0,0,0-.658-1.5,4.808,4.808,0,0,0-1.507-1.057,13.954,13.954,0,0,0-3.583-1.074c-.163-.017-.3-.051-.3-.073s.624-.827,1.378-1.8c2.531-3.234,3.414-4.6,4.056-6.249a9.076,9.076,0,0,0,.607-3.516,8.344,8.344,0,0,0-.366-2.745A9.593,9.593,0,0,0,94.678-511.926Zm2.728,1.232a8.492,8.492,0,0,1,6.317,5.541,7.185,7.185,0,0,1,.427,2.728,8.1,8.1,0,0,1-.973,4.078c-.7,1.412-1.232,2.177-3.932,5.647-.973,1.249-2.149,2.779-2.61,3.4a13.922,13.922,0,0,1-.889,1.131c-.022,0-.5-.613-1.057-1.356s-1.614-2.126-2.351-3.066c-2.621-3.347-3.4-4.461-4.044-5.754a9.148,9.148,0,0,1-.821-2.34,10.3,10.3,0,0,1,0-3.375,8.423,8.423,0,0,1,4.506-5.9,8.521,8.521,0,0,1,2.756-.849A11.007,11.007,0,0,1,97.406-510.695Zm-3.414,22.117c.489.658,1,1.356,1.131,1.541.309.45.579.574.889.4a8.589,8.589,0,0,0,.816-1.024c.383-.529.894-1.221,1.136-1.541l.439-.579.321.039a19.014,19.014,0,0,1,2.694.6c1.446.473,2.542,1.193,2.717,1.783.444,1.53-3.724,3.049-8.387,3.049-3.572,0-6.958-.878-8.083-2.1-.5-.534-.461-.973.118-1.53a9.011,9.011,0,0,1,4.4-1.71C93.165-489.826,92.979-489.938,93.992-488.577Z" transform="translate(0)"/>
    <path id="Path_228" data-name="Path 228" d="M247.4-471.88a.563.563,0,0,0,.309,1.046.692.692,0,0,0,.529-.562.491.491,0,0,0-.191-.371A.489.489,0,0,0,247.4-471.88Z" transform="translate(-151.868 -37.78)"/>
    <path id="Path_229" data-name="Path 229" d="M286.686-464.837a.418.418,0,0,0-.186.388c0,.287.163.467.523.6a6.31,6.31,0,0,1,3.358,3.139,6.7,6.7,0,0,1,.591,2.554.524.524,0,0,0,.191.5.452.452,0,0,0,.748-.006l.2-.2-.034-.6a7.325,7.325,0,0,0-3.544-5.889,5.191,5.191,0,0,0-1.513-.647A.586.586,0,0,0,286.686-464.837Z" transform="translate(-189.038 -44.345)"/>
    <path id="Path_230" data-name="Path 230" d="M189.152-411.794a4.091,4.091,0,0,0-1.862.99,3.837,3.837,0,0,0-.833,4.6,3.126,3.126,0,0,0,.748,1.018,3.126,3.126,0,0,0,1.018.748,3.765,3.765,0,0,0,3.487-.006,3.005,3.005,0,0,0,1.018-.742,3.005,3.005,0,0,0,.742-1.018,3.748,3.748,0,0,0,0-3.488,3,3,0,0,0-.742-1.018,3.126,3.126,0,0,0-1.018-.748A3.879,3.879,0,0,0,189.152-411.794Zm1.389,1.1a2.769,2.769,0,0,1,1.4.776,2.741,2.741,0,0,1,0,3.949,2.688,2.688,0,0,1-1.328.754,2.831,2.831,0,0,1-3.459-2.728,2.872,2.872,0,0,1,2.154-2.734A3.029,3.029,0,0,1,190.541-410.7Z" transform="translate(-94.221 -94.48)"/>
  </g>
</svg>
