<svg xmlns="http://www.w3.org/2000/svg" width="34.769" height="40.823" viewBox="0 0 34.769 40.823">
  <g id="product_design" transform="translate(-55.966 491.088)">
    <path id="Path_11" data-name="Path 11" d="M249.189-490.7c-.181.189-.189.275-.189,1.721,0,1.411.017,1.54.172,1.695a.688.688,0,0,0,.43.172.688.688,0,0,0,.43-.172c.163-.163.172-.284.172-1.7,0-1.5-.009-1.54-.2-1.721A.546.546,0,0,0,249.189-490.7Z" transform="translate(-176.252 0)" fill="#8967b3" stroke="#8967b3" stroke-width="0.4"/>
    <path id="Path_12" data-name="Path 12" d="M113.43-434.375a.6.6,0,0,0-.43.576c0,.232.155.422,1.1,1.359a5.623,5.623,0,0,0,1.282,1.093.7.7,0,0,0,.628-.619c0-.224-.163-.43-1.007-1.282C114.041-434.229,113.705-434.461,113.43-434.375Z" transform="translate(-51.952 -51.636)" fill="#8967b3" stroke="#8967b3" stroke-width="0.4"/>
    <path id="Path_13" data-name="Path 13" d="M366.185-434.13a8.3,8.3,0,0,0-1.213,1.093c-.817.834-.972,1.032-.972,1.256a.625.625,0,0,0,.189.447c.37.336.542.249,1.721-.921.946-.938,1.1-1.127,1.1-1.359A.56.56,0,0,0,366.185-434.13Z" transform="translate(-281.359 -51.821)" fill="#8967b3" stroke="#8967b3" stroke-width="0.4"/>
    <path id="Path_14" data-name="Path 14" d="M131.245-427.846a11.659,11.659,0,0,0-4.215,1.2,11.825,11.825,0,0,0-6.3,8.173,10.861,10.861,0,0,0-.146,2.452,7.815,7.815,0,0,0,.267,2.71c.568,2.151,1.222,3.295,3.252,5.678a8.768,8.768,0,0,1,1.505,3.011,9.587,9.587,0,0,1,.224,1.936c.026.662.06,1.325.086,1.471a2.011,2.011,0,0,0,.938,1.247l.387.206v2.572a22.314,22.314,0,0,0,.095,2.9,2.023,2.023,0,0,0,1.058,1.161c.439.206.447.206,3.837.206s3.4,0,3.837-.206a2.023,2.023,0,0,0,1.058-1.161,22.393,22.393,0,0,0,.095-2.908v-2.589l.267-.1a2.118,2.118,0,0,0,.946-.989,3.271,3.271,0,0,0,.163-1.428,7.778,7.778,0,0,1,2.228-5.884,11.909,11.909,0,0,0,2.977-6.142,14.748,14.748,0,0,0-.086-4.224,11.706,11.706,0,0,0-3.338-6,11.378,11.378,0,0,0-5.514-3.037,17.225,17.225,0,0,0-2.761-.335Zm2.632,1.29a10.529,10.529,0,0,1,5.755,2.934,10.375,10.375,0,0,1,3.1,7.476,10.333,10.333,0,0,1-2.761,7.1,9.2,9.2,0,0,0-2.288,4.069,8.865,8.865,0,0,0-.258,2.245c-.052,1.333-.06,1.428-.249,1.617-.163.155-.292.2-.68.2h-.473v-13.756l-1.678-3.355c-1.789-3.6-1.764-3.553-2.323-3.415-.189.052-.465.542-1.893,3.415l-1.678,3.355v13.756h-.473c-.387,0-.516-.043-.68-.2-.181-.181-.2-.284-.249-1.566a8.867,8.867,0,0,0-.877-3.906,9.568,9.568,0,0,0-1.66-2.435,10.833,10.833,0,0,1-2.572-4.869,13.985,13.985,0,0,1-.069-4.035A10.569,10.569,0,0,1,126.4-424.9,10.468,10.468,0,0,1,133.878-426.556Zm-1.359,7.527a3.3,3.3,0,0,1,.232.559c0,.052-.232.086-.516.086s-.516-.034-.516-.086a4.132,4.132,0,0,1,.516-1.032A1.984,1.984,0,0,1,132.519-419.028ZM134-416.06a11.267,11.267,0,0,1,.559,1.2c0,.181-.5.077-.817-.172a1.424,1.424,0,0,0-.4-.258,1.236,1.236,0,0,0-.568.318.841.841,0,0,1-1.11-.052c-.284-.3-.559-.3-.92-.017-.327.258-.826.37-.826.181a11.269,11.269,0,0,1,.559-1.2l.559-1.118h2.409Zm-3.4,8.792v6.349h-.946v-6.306c0-3.475.017-6.332.034-6.349a2.035,2.035,0,0,1,.473-.034h.439Zm2.065,0v6.349h-.86v-12.689h.86Zm2.133.017.017,6.332h-.946v-12.689l.456.009.447.017Zm1.222,8.654v1.118h-7.57v-2.237h7.57Zm0,3.149c0,.791-.009.834-.249,1.075l-.249.25h-6.572l-.249-.25c-.241-.241-.249-.284-.249-1.075v-.826h7.57Z" transform="translate(-58.885 -57.546)" fill="#8967b3" stroke="#8967b3" stroke-width="0.4"/>
    <path id="Path_15" data-name="Path 15" d="M56.325-297.776a.49.49,0,0,0,.034.766c.206.215.232.215,1.7.215,1.333,0,1.523-.017,1.7-.155a.638.638,0,0,0,.034-.877c-.146-.163-.258-.172-1.729-.172H56.5Z" transform="translate(0 -176.294)" fill="#8967b3" stroke="#8967b3" stroke-width="0.4"/>
    <path id="Path_16" data-name="Path 16" d="M411.551-297.768a.551.551,0,0,0,.1.817c.155.138.37.155,1.678.155,1.471,0,1.5,0,1.7-.215a.49.49,0,0,0,.034-.766L414.9-298h-3.166Z" transform="translate(-324.695 -176.294)" fill="#8967b3" stroke="#8967b3" stroke-width="0.4"/>
    <path id="Path_17" data-name="Path 17" d="M114.058-181.942c-.912.912-1.058,1.093-1.058,1.333a.6.6,0,0,0,.576.619,8.544,8.544,0,0,0,2.435-2.409.551.551,0,0,0-.585-.6C115.142-183,115.022-182.905,114.058-181.942Z" transform="translate(-51.952 -281.401)" fill="#8967b3" stroke="#8967b3" stroke-width="0.4"/>
    <path id="Path_18" data-name="Path 18" d="M364.146-182.845a.669.669,0,0,0-.146.413c0,.215.181.439,1.1,1.351.86.852,1.161,1.093,1.333,1.093a.6.6,0,0,0,.576-.619c0-.241-.146-.422-1.058-1.333C365-182.9,364.869-183,364.594-183A.623.623,0,0,0,364.146-182.845Z" transform="translate(-281.359 -281.401)" fill="#8967b3" stroke="#8967b3" stroke-width="0.4"/>
  </g>
</svg>
