<svg xmlns="http://www.w3.org/2000/svg" width="34.142" height="40.106" viewBox="0 0 34.142 40.106">
  <g id="professional_registration" transform="translate(-49.25 500.016)">
    <path id="Path_232" data-name="Path 232" d="M51.475-499.674a3.025,3.025,0,0,0-1.756,1.536l-.219.423v35.522l.228.431a2.956,2.956,0,0,0,1.292,1.325l.512.276H76.568l.463-.219a3.128,3.128,0,0,0,1.431-1.431l.219-.463.024-11.47.016-11.478.382-.057a4.975,4.975,0,0,0,3.885-3.577,6.475,6.475,0,0,0,0-2.439,4.966,4.966,0,0,0-2.983-3.325,5.668,5.668,0,0,0-.894-.252l-.374-.057-.033-1.358c-.024-1.26-.041-1.382-.244-1.813a3.128,3.128,0,0,0-1.431-1.431l-.463-.219-12.4-.016C54.117-499.779,51.719-499.763,51.475-499.674Zm25.174,1a2.584,2.584,0,0,1,.984,1,3.633,3.633,0,0,1,.179,1.5l.033,1.227-.553.106a5.238,5.238,0,0,0-3.089,2.105,5.417,5.417,0,0,0-.536,1.13,4.974,4.974,0,0,0,.4,3.991,6.076,6.076,0,0,0,1.528,1.6,5.2,5.2,0,0,0,1.853.732l.382.057-.016,11.356-.024,11.348-.179.325a2.585,2.585,0,0,1-1,.984c-.276.146-.74.154-12.518.154-11.941,0-12.242,0-12.551-.154a2.336,2.336,0,0,1-.992-.992c-.154-.309-.154-.691-.179-17.59-.016-12.648,0-17.355.065-17.59a2.119,2.119,0,0,1,1.39-1.422c.179-.049,4.739-.073,12.388-.065l12.112.016Zm3.52,7.064a.412.412,0,0,1,.179.374c0,.219-.163.423-1.154,1.431-1.236,1.236-1.52,1.455-1.756,1.325a8,8,0,0,1-1.26-1.325c-.065-.179.236-.553.439-.553a1.509,1.509,0,0,1,.569.382l.406.382,1.032-1.024c.9-.894,1.13-1.089,1.317-1.114A.553.553,0,0,1,80.169-491.61Z" transform="translate(0)" fill="#fff" stroke="#fff" stroke-width="0.5"/>
    <path id="Path_233" data-name="Path 233" d="M158.893-472.844a.513.513,0,0,0-.276.569c.106.317.163.325,4.17.325,4.3,0,4.17.016,4.121-.52-.041-.447-.065-.455-4.129-.447C160.746-472.917,159-472.885,158.893-472.844Z" transform="translate(-100.232 -24.667)" fill="#fff" stroke="#fff" stroke-width="0.5"/>
    <path id="Path_234" data-name="Path 234" d="M279.835-472.8a.457.457,0,0,0-.276.593c.1.252.236.3.813.3.358,0,.5-.041.61-.154a.464.464,0,0,0-.114-.715A1.656,1.656,0,0,0,279.835-472.8Z" transform="translate(-211.33 -24.711)" fill="#fff" stroke="#fff" stroke-width="0.5"/>
    <path id="Path_235" data-name="Path 235" d="M198.03-419.685a2.754,2.754,0,0,0-1.8,1.666,2.959,2.959,0,0,0,.089,2.081,2.964,2.964,0,0,0,1.26,1.268,2.212,2.212,0,0,0,1.179.2,2.081,2.081,0,0,0,1.154-.2,2.777,2.777,0,0,0,1.512-2.243A2.7,2.7,0,0,0,198.03-419.685Z" transform="translate(-134.671 -73.486)" fill="#fff" stroke="#fff" stroke-width="0.5"/>
    <path id="Path_236" data-name="Path 236" d="M175.061-346.727a4.9,4.9,0,0,0-3.26,2.861c-.528,1.146-.8,2.707-.536,3.105l.13.2h8.942l.122-.2a5.471,5.471,0,0,0-.471-2.991A4.553,4.553,0,0,0,175.061-346.727Z" transform="translate(-111.774 -140.534)" fill="#fff" stroke="#fff" stroke-width="0.5"/>
    <path id="Path_237" data-name="Path 237" d="M116.349-233.8c-.244.236-.252.285-.033.561l.163.211h8.844c8.462,0,8.852-.008,8.974-.146a.475.475,0,0,0-.041-.7c-.163-.114-1.146-.13-8.95-.13h-8.763Z" transform="translate(-61.24 -244.165)" fill="#fff" stroke="#fff" stroke-width="0.5"/>
    <path id="Path_238" data-name="Path 238" d="M116.349-180.8c-.244.236-.252.284-.033.561l.163.211h8.8c9.689,0,9.153.024,9.153-.488s.528-.488-9.128-.488h-8.763Z" transform="translate(-61.24 -292.855)" fill="#fff" stroke="#fff" stroke-width="0.5"/>
    <path id="Path_239" data-name="Path 239" d="M170.163-127.837a.562.562,0,0,0-.163.325.562.562,0,0,0,.163.325c.163.163.268.163,4.593.163h4.438l.2-.2a.657.657,0,0,0,.2-.285.657.657,0,0,0-.2-.285l-.2-.2h-4.438C170.431-128,170.325-128,170.163-127.837Z" transform="translate(-110.705 -341.549)" fill="#fff" stroke="#fff" stroke-width="0.5"/>
    <path id="Path_240" data-name="Path 240" d="M210.195-76.273A1.581,1.581,0,0,0,209-74.712a1.607,1.607,0,0,0,2.658,1.219,1.6,1.6,0,0,0,.016-2.447A1.5,1.5,0,0,0,210.195-76.273Z" transform="translate(-146.535 -389.009)" fill="#fff" stroke="#fff" stroke-width="0.5"/>
  </g>
</svg>
