<svg xmlns="http://www.w3.org/2000/svg" width="120.091" height="135.635" viewBox="0 0 120.091 135.635">
  <g id="programmer" transform="translate(-29.3 512.058)">
    <path id="Path_225" data-name="Path 225" d="M74.724-511.511a50.58,50.58,0,0,0-8.132,1.869A34.132,34.132,0,0,0,56.433-503.8c-1.842,1.526-2.079,1.842-2.105,2.684a1.909,1.909,0,0,0,3.211,1.395c5-3.921,8.237-5.711,12.29-6.79,10.816-2.895,21.686-.211,29.133,7.158a19.452,19.452,0,0,0,2.921,2.5,12.332,12.332,0,0,1,3.974,4.737c1.342,2.895,1.632,5.132,1.632,13.238v7.264l-.711-.184a13.316,13.316,0,0,0-1.79-.368l-1.053-.158-.132-3.869c-.132-3.632-.158-3.895-.763-4.526a4.22,4.22,0,0,0-1.711-.974c-3.29-.869-4.421-1.605-6.237-4.106-1.211-1.605-2.158-2.184-3.658-2.184-1.29,0-1.684.184-4.106,2-6.316,4.711-14.027,6.737-22.607,5.921-3.842-.368-5.106-.263-7.132.632a9.782,9.782,0,0,0-5.263,5.974c-.368,1.158-.447,1.211-1.632,1.342a13.528,13.528,0,0,0-1.869.342l-.632.184.158-5.369c.184-6.974.895-10.132,3.342-14.817,1.105-2.184.974-3.316-.447-3.869-1.684-.632-2.921.974-4.842,6.132-1.632,4.421-1.895,6.237-2,14.027-.079,5.342-.211,7.5-.5,8.658a7.435,7.435,0,0,0,4.79,8.843,8.713,8.713,0,0,0,2.342.526c.79,0,.921.105,1.053.711,1.369,6.816,3.842,11.553,8.027,15.448a33.718,33.718,0,0,0,3.474,2.737l1.79,1.184v2.29c0,1.553-.105,2.395-.342,2.579-.184.158-5.132,1.974-10.974,4-5.869,2.053-11.238,4.053-11.974,4.421a17.626,17.626,0,0,0-2.921,2.29c-2.763,2.737-2.869,3.027-6.342,20.317-2.158,10.9-3.026,15.738-3.026,17.08a6.869,6.869,0,0,0,4.106,6.737l1.342.605,25.08.079,25.08.053.632-.632a1.714,1.714,0,0,0,0-2.658c-.605-.632-.737-.658-4.527-.658-3.342,0-4-.079-4.711-.5-.974-.605-1.632-2-1.237-2.632.237-.395,3.184-.421,34.634-.5,34.028-.053,34.37-.053,34.66.474.211.368.184.763-.105,1.421-.763,1.842.737,1.737-26.738,1.737H93.251l-.632.658a1.687,1.687,0,0,0,0,2.632l.632.658h24.975c27.423,0,26.265.053,28.265-1.579,2-1.658,3-5.316,1.974-7.237a5.312,5.312,0,0,0-4.527-2.763h-.921v-21.291l-.684-.526a2.516,2.516,0,0,0-1.053-.553,2.315,2.315,0,0,0-1.947,1.395,104.725,104.725,0,0,0-.263,10.553c0,7.264-.079,9.869-.316,10.106-.395.395-56.424.447-57.056.053-.342-.211-.395-2.605-.474-18.554-.053-12.474.026-18.475.211-18.817.289-.526.684-.526,28.633-.526,21.712,0,28.449.079,28.686.316.211.211.316,1.526.316,4.184a28.405,28.405,0,0,0,.263,4.606,1.82,1.82,0,0,0,3.132.79c.579-.605.579-.763.5-5.606-.079-4.948-.079-5-.816-6.079a5.454,5.454,0,0,0-1.763-1.632c-1-.526-1.474-.526-22.449-.526h-21.4l-2.316-.79a15.224,15.224,0,0,1-2.684-1.079c-.263-.211-.368-1-.368-2.869V-437.9l1.526-1a29.037,29.037,0,0,0,6.237-6.079,27.614,27.614,0,0,0,4.474-10.369c.289-2.026.342-2.105,1.316-2.105a9.078,9.078,0,0,0,4.842-2c2-1.737,3.053-4.737,2.369-6.816-.237-.737-.395-4.132-.5-11.58-.211-11.9-.263-12.317-2.237-16.343a15.827,15.827,0,0,0-5.185-6.027,26.6,26.6,0,0,1-2.842-2.5,31.693,31.693,0,0,0-21.712-8.79C77.434-511.563,75.3-511.563,74.724-511.511Zm17.922,29.028a12,12,0,0,0,5.79,4.132l1.421.395v10.132c0,8.237-.079,10.5-.421,12.159a22.094,22.094,0,0,1-12.264,15.422,22.453,22.453,0,0,1-19.817-.684,21.2,21.2,0,0,1-10.448-12.316l-.868-2.5-.079-8c-.105-9.106-.026-9.606,1.816-11.185,1.658-1.395,2.763-1.605,6.9-1.184,9.264.868,18.448-1.605,25.107-6.764a9.438,9.438,0,0,1,1.632-1.132A7.87,7.87,0,0,1,92.646-482.482ZM51.959-464.8v3.474l-1.053-.158c-2.237-.289-3.79-2.369-3.158-4.237a3.952,3.952,0,0,1,3.5-2.527h.711Zm54.635-2.79a4.068,4.068,0,0,1,1.684,2.79c0,1.5-2.079,3.4-3.737,3.4H103.8v-6.921l1.053.158A4.991,4.991,0,0,1,106.594-467.587Zm-19.37,34.318v2.605l-3.395.105c-3.342.079-3.421.105-4.395.895a5.869,5.869,0,0,0-2.158,4.474l-.132,1.711-1.211-.184c-3.316-.447-4.842-1.105-5.921-2.579-.5-.658-.553-1.158-.632-5.079-.079-4.079-.053-4.316.395-4.184a28.913,28.913,0,0,0,12.738.842,32.5,32.5,0,0,0,3.29-.789,8.026,8.026,0,0,1,1.237-.395A8.9,8.9,0,0,1,87.224-433.269Zm-21.633,6.527a8.7,8.7,0,0,0,3.158,4.921,15.923,15.923,0,0,0,6.342,2,16.789,16.789,0,0,1,2.026.342c.053.053.132,7.027.158,15.5l.079,15.422-1.184.105c-2.763.263-4.553,2.026-4.579,4.5a10.346,10.346,0,0,0,.184,2.211l.237.868H51.7v-9.579c0-9.264-.026-9.58-.553-10.264a1.776,1.776,0,0,0-2.842,0,3.182,3.182,0,0,0-.553,2.237v1.553H35.985l1.895-9.422c2.079-10.343,2.421-11.369,4.474-13.132,1.447-1.263,2-1.5,11.58-4.816,4.632-1.605,9.027-3.132,9.737-3.421.737-.263,1.368-.5,1.447-.5C65.223-428.242,65.407-427.558,65.592-426.742ZM47.748-386.924v6.053H42.3a53.942,53.942,0,0,1-6.421-.263c-2.29-.632-2.579-2.105-1.5-7.711l.79-4.132h12.58Z" transform="translate(0 0)" fill="#8967b3" stroke="#8967b3" stroke-width="1"/>
    <path id="Path_226" data-name="Path 226" d="M314.474-140.347A6.148,6.148,0,0,0,311-134.531c.026,6.974,9.606,8.816,12.369,2.395a7.065,7.065,0,0,0-.079-5.342A6.611,6.611,0,0,0,314.474-140.347Zm4.711,4.027a2.248,2.248,0,0,1,.763,1.737,2.551,2.551,0,0,1-2.5,2.5,2.571,2.571,0,0,1-1.816-4.316A2.458,2.458,0,0,1,319.185-136.321Z" transform="translate(-207.196 -273)" fill="#8967b3" stroke="#8967b3" stroke-width="1"/>
  </g>
</svg>
