<svg xmlns="http://www.w3.org/2000/svg" width="69.849" height="76.047" viewBox="0 0 69.849 76.047">
  <g id="question" transform="translate(-24.328 508.637)">
    <path id="Path_215" data-name="Path 215" d="M54.9-507.578a34.663,34.663,0,0,0-17.063,7.283,34.4,34.4,0,0,0-12.572,23.209,46.192,46.192,0,0,0,.236,8.731,34.953,34.953,0,0,0,7.209,16.177c.517.65,1.891,2.083,3.029,3.191a9.838,9.838,0,0,1,2.157,2.438c.044.236.488,2.718.975,5.525s.975,5.318,1.049,5.584a3.273,3.273,0,0,0,3.058,2.1c.99,0,.99,0,6.323-3.368,2.423-1.536,4.565-2.866,4.742-2.969.251-.133.739-.133,2.068,0a41.846,41.846,0,0,0,8.244-.236,34.129,34.129,0,0,0,28.6-28.217,41.288,41.288,0,0,0,.3-8.864,33.82,33.82,0,0,0-9.839-20.7,34.036,34.036,0,0,0-18.467-9.677A45.774,45.774,0,0,0,54.9-507.578Zm10.312,2.053a32.7,32.7,0,0,1,26.179,27.76,39.877,39.877,0,0,1,0,8.185,32.651,32.651,0,0,1-10.932,20.4,32.2,32.2,0,0,1-15.808,7.416,38.628,38.628,0,0,1-8.583.31,5.285,5.285,0,0,0-2.364.03c-.31.1-2.748,1.566-5.392,3.25-5.2,3.294-5.422,3.4-6.234,2.748a1.86,1.86,0,0,1-.547-.842c-.089-.3-.547-2.881-1.049-5.717a55,55,0,0,0-1.167-5.762,8.106,8.106,0,0,0-1.581-1.743,32.075,32.075,0,0,1-10.829-24.184,32.226,32.226,0,0,1,22.1-30.744,28.553,28.553,0,0,1,10.77-1.551A24.843,24.843,0,0,1,65.216-505.524Z" fill="#8967b3" stroke="#8967b3" stroke-width="1.5"/>
    <path id="Path_216" data-name="Path 216" d="M97.113-461.368a28.779,28.779,0,0,0-16.28,14.286c-.694,1.374-.709,1.463-.5,1.846a.906.906,0,0,0,1.271.31,10.1,10.1,0,0,0,.9-1.522,27.19,27.19,0,0,1,8.332-9.721,31.59,31.59,0,0,1,7.224-3.649c1.344-.443,1.743-.635,1.906-.931.192-.34.192-.428-.03-.768C99.58-462.048,98.959-462,97.113-461.368Z" transform="translate(-46.921 -39.104)" fill="#8967b3" stroke="#8967b3" stroke-width="1.5"/>
    <path id="Path_217" data-name="Path 217" d="M181.824-390.536a12.389,12.389,0,0,0-9.824,11.8,3.11,3.11,0,0,0,1.093,2.866,3.355,3.355,0,0,0,3.974.251,3.667,3.667,0,0,0,1.433-2.7,5.964,5.964,0,0,1,6.825-5.806,5.929,5.929,0,0,1,3.368,1.891,5.064,5.064,0,0,1,1.536,3.974,3.84,3.84,0,0,1-.458,2.319,6.061,6.061,0,0,1-4.107,3.383,5.8,5.8,0,0,0-4.033,3.206c-.384.827-.4.931-.443,4.092-.059,3.575,0,3.974.739,4.86a3.12,3.12,0,0,0,2.452,1.123,3.113,3.113,0,0,0,2.881-1.625c.3-.458.34-.783.4-2.94l.074-2.408.916-.34a12.674,12.674,0,0,0,7.889-8.864,14.141,14.141,0,0,0-.207-6.5,12.654,12.654,0,0,0-8.155-8.244,8.479,8.479,0,0,0-3.4-.488A12.961,12.961,0,0,0,181.824-390.536Zm5.082,1.8a11,11,0,0,1,7.933,7.992,12.256,12.256,0,0,1-.074,5.126,10.916,10.916,0,0,1-7.52,7.623c-.857.266-1.108.4-1.226.694a19.355,19.355,0,0,0-.133,2.866v2.526l-.428.428a1.438,1.438,0,0,1-2.1,0l-.428-.428v-2.925c0-3.309.089-3.767.931-4.728a3.544,3.544,0,0,1,2.32-1.315,7.627,7.627,0,0,0,5.422-4.9,7.345,7.345,0,0,0-1.876-7.874,7.42,7.42,0,0,0-7.771-1.921,7.736,7.736,0,0,0-5.185,6.766c-.074.975-.148,1.2-.5,1.536a1.466,1.466,0,0,1-2.142-.044c-.4-.414-.428-.517-.4-1.507a10.806,10.806,0,0,1,4-7.874,13.275,13.275,0,0,1,4.092-2.039A14.678,14.678,0,0,1,186.906-388.734Z" transform="translate(-125.147 -99.771)" fill="#8967b3" stroke="#8967b3" stroke-width="1.5"/>
    <path id="Path_218" data-name="Path 218" d="M235.78-164.693a3.3,3.3,0,0,0,.133,5.969,3.871,3.871,0,0,0,2.7-.044,3.306,3.306,0,0,0,.354-5.732A3.53,3.53,0,0,0,235.78-164.693Zm2.482,1.906a1.225,1.225,0,0,1,.428,1.049,1.47,1.47,0,0,1-2.526,1.049,1.225,1.225,0,0,1-.428-1.049,1.225,1.225,0,0,1,.428-1.049,1.225,1.225,0,0,1,1.049-.428A1.225,1.225,0,0,1,238.262-162.787Z" transform="translate(-177.951 -292.138)" fill="#8967b3" stroke="#8967b3" stroke-width="1.5"/>
  </g>
</svg>
