<svg xmlns="http://www.w3.org/2000/svg" width="66.679" height="66.851" viewBox="0 0 66.679 66.851">
  <g id="settings_-_alt2" data-name="settings - alt2" transform="translate(-1.008 511.594)">
    <path id="Path_339" data-name="Path 339" d="M256.023-511.464a16.01,16.01,0,0,0-11.743,8.3,16.7,16.7,0,0,0-1.6,4.642,17.882,17.882,0,0,0,.458,7.415l.261.837-2.458,2.458-2.446,2.445,2.89,2.89,2.89,2.89.876-.275a5.475,5.475,0,0,1,5.231,1.007l.379.3,1.138-1.125,1.138-1.138.837.262a16.958,16.958,0,0,0,7.349.366,15.939,15.939,0,0,0,12.528-12.031,19.516,19.516,0,0,0,.275-5.571c-.118-.837-.2-1.033-.549-1.347a1.48,1.48,0,0,0-1.609-.209,33.457,33.457,0,0,0-2.458,2.289c-1.883,1.857-2.3,2.2-3.138,2.589a7,7,0,0,1-9.795-4.485,9.142,9.142,0,0,1,.065-3.623c.431-1.53.928-2.21,3.269-4.616,2.171-2.223,2.223-2.275,2.223-2.825a1.338,1.338,0,0,0-.955-1.334A17.023,17.023,0,0,0,256.023-511.464Z" transform="translate(-206.435 0)" fill="silver"/>
    <path id="Path_340" data-name="Path 340" d="M6.5-480.258a25.337,25.337,0,0,0-4.943,4.891,1.962,1.962,0,0,0,.144,1.923c.667,1.124,6.826,9.3,7.179,9.494a2.761,2.761,0,0,0,1.9.118,5.166,5.166,0,0,0,1.02-.785l.706-.654,10.749,10.736L34-443.786l-.837.889a3.458,3.458,0,0,0-.981,1.438c-.327,1.2-.837.628,10.7,12.162C53.965-418.22,53.8-418.364,55.443-417.867a7.167,7.167,0,0,0,4.982-.431,8.645,8.645,0,0,0,2.9-2.851,7.2,7.2,0,0,0,.549-4.825c-.484-1.857-.209-1.557-11.351-12.737-6.983-7-10.514-10.448-10.88-10.619-.994-.484-1.739-.275-2.9.837l-.758.719L27.236-458.524,16.473-469.286l.418-.379c1.425-1.334,1.556-2.89.314-3.884-.785-.627-8.775-6.473-9.023-6.6A2.28,2.28,0,0,0,6.5-480.258Z" transform="translate(-0.31 -27.139)" fill="silver"/>
    <path id="Path_341" data-name="Path 341" d="M12.685-232.512C3.44-223.241,2.158-221.92,1.8-221.2a6.752,6.752,0,0,0,2.354,8.932,6.331,6.331,0,0,0,3.518.968,6.213,6.213,0,0,0,3.2-.745c.68-.327,1.988-1.569,9.926-9.507l9.141-9.128-.327-.405a6.159,6.159,0,0,1-1.177-2.615,5.748,5.748,0,0,1,.366-3.047l.209-.405-2.929-2.929L23.173-243Z" transform="translate(0 -233.469)" fill="silver"/>
  </g>
</svg>
