<svg xmlns="http://www.w3.org/2000/svg" width="20.03" height="20.082" viewBox="0 0 20.03 20.082">
  <g id="settings_-_alt2" data-name="settings - alt2" transform="translate(-1.008 511.594)">
    <path id="Path_339" data-name="Path 339" d="M243.764-511.554a4.809,4.809,0,0,0-3.528,2.494,5.014,5.014,0,0,0-.479,1.395,5.371,5.371,0,0,0,.137,2.227l.079.251-.738.739-.735.735.868.868.868.868.263-.082a1.645,1.645,0,0,1,1.571.3l.114.09.342-.338.342-.342.251.079a5.094,5.094,0,0,0,2.208.11,4.788,4.788,0,0,0,3.763-3.614,5.863,5.863,0,0,0,.083-1.673c-.035-.251-.059-.31-.165-.4a.444.444,0,0,0-.483-.063,10.047,10.047,0,0,0-.739.688,3.236,3.236,0,0,1-.943.778,2.1,2.1,0,0,1-2.942-1.347,2.746,2.746,0,0,1,.02-1.088c.13-.46.279-.664.982-1.387.652-.668.668-.683.668-.849a.4.4,0,0,0-.287-.4A5.114,5.114,0,0,0,243.764-511.554Z" transform="translate(-228.162 0)" fill="silver"/>
    <path id="Path_340" data-name="Path 340" d="M2.906-480.337a7.61,7.61,0,0,0-1.485,1.469.589.589,0,0,0,.043.578c.2.338,2.051,2.793,2.157,2.852a.829.829,0,0,0,.57.035,1.552,1.552,0,0,0,.306-.236l.212-.2,3.229,3.225,3.229,3.229-.251.267a1.039,1.039,0,0,0-.295.432c-.1.361-.251.189,3.213,3.653,3.331,3.327,3.28,3.284,3.775,3.433a2.153,2.153,0,0,0,1.5-.13,2.6,2.6,0,0,0,.872-.857,2.162,2.162,0,0,0,.165-1.449c-.145-.558-.063-.468-3.41-3.826-2.1-2.1-3.158-3.139-3.268-3.19-.3-.145-.522-.082-.872.251l-.228.216-3.229-3.229L5.9-477.042l.126-.114c.428-.4.467-.868.094-1.167-.236-.188-2.636-1.944-2.711-1.984A.685.685,0,0,0,2.906-480.337Z" transform="translate(-0.342 -29.995)" fill="silver"/>
    <path id="Path_341" data-name="Path 341" d="M4.516-239.849a33.588,33.588,0,0,0-3.268,3.4,2.028,2.028,0,0,0,.707,2.683,1.9,1.9,0,0,0,1.057.291,1.866,1.866,0,0,0,.962-.224,26.737,26.737,0,0,0,2.982-2.856L9.7-239.3l-.1-.122a1.85,1.85,0,0,1-.354-.786,1.727,1.727,0,0,1,.11-.915l.063-.122-.88-.88L7.666-243Z" transform="translate(0 -258.042)" fill="silver"/>
  </g>
</svg>
