<svg xmlns="http://www.w3.org/2000/svg" width="125.132" height="125.455" viewBox="0 0 125.132 125.455">
  <g id="settings_-_alt2" data-name="settings - alt2" transform="translate(-1.008 511.593)">
    <path id="Path_339" data-name="Path 339" d="M271.385-511.35a30.043,30.043,0,0,0-22.038,15.583,31.323,31.323,0,0,0-2.994,8.712,33.558,33.558,0,0,0,.859,13.915l.491,1.571-4.614,4.614-4.589,4.589,5.424,5.424,5.424,5.424,1.644-.515a10.275,10.275,0,0,1,9.816,1.89l.712.565,2.135-2.111,2.135-2.135,1.571.491a31.831,31.831,0,0,0,13.792.687,29.912,29.912,0,0,0,23.51-22.578,36.61,36.61,0,0,0,.515-10.454c-.221-1.571-.368-1.939-1.031-2.528a2.776,2.776,0,0,0-3.018-.393,62.574,62.574,0,0,0-4.614,4.295c-3.534,3.485-4.319,4.123-5.89,4.859a13.143,13.143,0,0,1-18.381-8.418,17.158,17.158,0,0,1,.123-6.8c.81-2.871,1.742-4.147,6.135-8.663,4.074-4.172,4.172-4.27,4.172-5.3a2.51,2.51,0,0,0-1.792-2.5C279.729-511.62,273.814-511.767,271.385-511.35Z" transform="translate(-179.209 0)" fill="#8967b3"/>
    <path id="Path_340" data-name="Path 340" d="M10.993-480.158c-1.325.466-8.589,7.657-9.276,9.178a3.68,3.68,0,0,0,.27,3.608c1.252,2.11,12.81,17.449,13.473,17.817a5.179,5.179,0,0,0,3.558.221,9.667,9.667,0,0,0,1.914-1.473l1.325-1.227L42.43-431.886,62.6-411.713l-1.571,1.669a6.488,6.488,0,0,0-1.841,2.7c-.614,2.258-1.571,1.178,20.074,22.823,20.811,20.786,20.492,20.516,23.584,21.449a13.449,13.449,0,0,0,9.35-.81,16.226,16.226,0,0,0,5.448-5.35,13.512,13.512,0,0,0,1.031-9.056c-.908-3.485-.393-2.92-21.3-23.9-13.1-13.129-19.731-19.608-20.418-19.927-1.865-.908-3.264-.515-5.448,1.571l-1.423,1.35L49.915-439.371l-20.2-20.2.785-.712c2.675-2.5,2.92-5.423.589-7.289-1.472-1.178-16.467-12.148-16.933-12.393A4.278,4.278,0,0,0,10.993-480.158Z" transform="translate(-0.269 -23.56)" fill="#fff"/>
    <path id="Path_341" data-name="Path 341" d="M22.921-223.318C5.571-205.919,3.166-203.44,2.5-202.09a12.671,12.671,0,0,0,4.417,16.762,11.882,11.882,0,0,0,6.6,1.816,11.66,11.66,0,0,0,6.013-1.4c1.276-.614,3.73-2.945,18.627-17.841l17.154-17.13-.614-.761a11.558,11.558,0,0,1-2.209-4.908,10.786,10.786,0,0,1,.687-5.718l.393-.761-5.5-5.5L42.6-243Z" transform="translate(0 -202.678)" fill="#8967b3"/>
  </g>
</svg>
