<svg xmlns="http://www.w3.org/2000/svg" width="74.985" height="75.178" viewBox="0 0 74.985 75.178">
  <g id="settings_-_alt2" data-name="settings - alt2" transform="translate(-1.008 511.594)">
    <path id="Path_339" data-name="Path 339" d="M258.206-511.447A18,18,0,0,0,245-502.109a18.771,18.771,0,0,0-1.794,5.221,20.109,20.109,0,0,0,.515,8.338l.294.941-2.765,2.765-2.75,2.75,3.25,3.25,3.25,3.25.985-.309a6.158,6.158,0,0,1,5.882,1.132l.426.338,1.279-1.265,1.279-1.279.941.294a19.074,19.074,0,0,0,8.265.412A17.925,17.925,0,0,0,278.147-489.8a21.939,21.939,0,0,0,.309-6.265c-.132-.941-.221-1.162-.618-1.515a1.664,1.664,0,0,0-1.809-.235,37.479,37.479,0,0,0-2.765,2.574c-2.118,2.088-2.588,2.471-3.529,2.912a7.876,7.876,0,0,1-11.015-5.044,10.282,10.282,0,0,1,.074-4.074c.485-1.721,1.044-2.485,3.676-5.191,2.441-2.5,2.5-2.559,2.5-3.176a1.5,1.5,0,0,0-1.074-1.5A19.149,19.149,0,0,0,258.206-511.447Z" transform="translate(-202.566 0)" fill="#8967b3"/>
    <path id="Path_340" data-name="Path 340" d="M7.135-480.244c-.794.279-5.147,4.588-5.559,5.5a2.205,2.205,0,0,0,.162,2.162c.75,1.265,7.677,10.456,8.074,10.677a3.1,3.1,0,0,0,2.132.132,5.793,5.793,0,0,0,1.147-.882l.794-.735,12.088,12.074,12.088,12.088-.941,1a3.888,3.888,0,0,0-1.1,1.618c-.368,1.353-.941.706,12.029,13.677,12.471,12.456,12.279,12.294,14.132,12.853a8.059,8.059,0,0,0,5.6-.485,9.724,9.724,0,0,0,3.265-3.206,8.1,8.1,0,0,0,.618-5.427c-.544-2.088-.235-1.75-12.765-14.324-7.853-7.868-11.824-11.75-12.235-11.941-1.118-.544-1.956-.309-3.265.941l-.853.809L30.458-455.8l-12.1-12.1.471-.426c1.6-1.5,1.75-3.25.353-4.368-.882-.706-9.868-7.279-10.147-7.426A2.564,2.564,0,0,0,7.135-480.244Z" transform="translate(-0.304 -26.63)"/>
    <path id="Path_341" data-name="Path 341" d="M14.139-231.206C3.742-220.779,2.3-219.294,1.9-218.485a7.593,7.593,0,0,0,2.647,10.044,7.12,7.12,0,0,0,3.956,1.088,6.987,6.987,0,0,0,3.6-.838c.765-.368,2.235-1.765,11.162-10.691l10.279-10.265-.368-.456a6.926,6.926,0,0,1-1.324-2.941,6.463,6.463,0,0,1,.412-3.426l.235-.456-3.294-3.294L25.934-243Z" transform="translate(0 -229.094)" fill="#8967b3"/>
  </g>
</svg>
