<svg xmlns="http://www.w3.org/2000/svg" width="100.07" height="100.255" viewBox="0 0 100.07 100.255">
  <g id="tag" transform="translate(-32.085 480.484)">
    <path id="Path_296" data-name="Path 296" d="M128.116-479.544c-.354.221-2.9,2.654-5.64,5.419l-4.955,4.977-2.234-2.168c-2.522-2.455-4-3.318-6.016-3.495-1.637-.133-21.433,2.588-23.645,3.274a21.111,21.111,0,0,0-6.613,3.583c-.973.774-7.1,6.37-13.6,12.453-6.525,6.06-16.1,15-21.3,19.84s-9.732,9.223-10.086,9.732a8.348,8.348,0,0,0-1.438,5.353,6.125,6.125,0,0,0,.708,3.76c.686,1.46,1.57,2.389,17.252,18.071,14.51,14.51,16.677,16.589,17.783,17.1a9.442,9.442,0,0,0,5.574.8c2.544-.42,3.738-1.106,5.884-3.34a13.158,13.158,0,0,1,2.123-1.991c.133,0,2.875,1,6.127,2.212,6.636,2.477,7.786,2.721,10.064,2.123a12.033,12.033,0,0,0,2.3-.818,11.442,11.442,0,0,0,3.782-3.627c.243-.487,3.207-9.179,6.591-19.31L116.9-424l1.261-1.393a21.493,21.493,0,0,0,4.932-7.9c.641-1.946.708-2.367,2.123-12.5,1.615-11.789,1.57-11.3,1.128-12.851-.531-1.836-1.017-2.566-3.406-5.021l-2.1-2.168,5.4-5.4,5.419-5.419v-1.017a1.713,1.713,0,0,0-.73-1.659A2.179,2.179,0,0,0,128.116-479.544Zm-18.69,9.533a8.786,8.786,0,0,1,2.765,2.212l1.991,1.991-2.7,2.7-2.676,2.676-1.017-.288a8.4,8.4,0,0,0-5.419.553,7.078,7.078,0,0,0-3.008,9.246,7.216,7.216,0,0,0,5.308,3.937,7.283,7.283,0,0,0,7.742-4.667,8.312,8.312,0,0,0,0-4.534l-.31-.885,2.588-2.61a23.605,23.605,0,0,1,2.831-2.588,15.861,15.861,0,0,1,2.256,2.079l2.035,2.057v1.239c0,1.593-2.522,19.818-3.008,21.654a12.3,12.3,0,0,1-2.743,5.109c-.6.708-9.975,10.816-20.814,22.45-12.939,13.913-20.017,21.344-20.615,21.654a5.392,5.392,0,0,1-4.092.2c-.332-.177-7.874-7.631-16.788-16.545-15.24-15.262-16.213-16.279-16.412-17.208a5.558,5.558,0,0,1,.42-3.362c.265-.553,41.893-39.526,44.547-41.716a12.793,12.793,0,0,1,5.441-2.566c1.283-.265,11.037-1.659,20.017-2.853.376-.044.708-.111.774-.111A2.987,2.987,0,0,1,109.425-470.011Zm-2.168,14.355a1.729,1.729,0,0,1,.73,1.681,1.729,1.729,0,0,1-.73,1.681,2.215,2.215,0,0,1-3.8-1.57c0-1.128.265-1.659,1.062-2.079A2.231,2.231,0,0,1,107.258-455.656Zm-2.477,53.262c-2.345,7.034-4.446,13.138-4.645,13.559a4.617,4.617,0,0,1-3.959,2.5c-.774.022-2.19-.42-5.928-1.814l-4.91-1.858.6-.708c1.371-1.637,22.915-24.64,23-24.552C108.983-415.224,107.1-409.429,104.781-402.395Z" transform="translate(0 0)" fill="#8967b3" stroke="#8967b3" stroke-width="1"/>
    <path id="Path_297" data-name="Path 297" d="M172.416-255.593A2.229,2.229,0,0,0,171-253.359c0,.863.133,1.017,7.808,8.671,7.432,7.454,7.83,7.808,8.6,7.808a2.484,2.484,0,0,0,2.367-3.074c-.31-.8-14.753-15.262-15.616-15.638A1.494,1.494,0,0,0,172.416-255.593Z" transform="translate(-107.802 -174.516)" fill="#8967b3" stroke="#8967b3" stroke-width="1"/>
    <path id="Path_298" data-name="Path 298" d="M140.615-223.786A2.478,2.478,0,0,0,139-221.441c0,.907.044.973,7.808,8.715,7.7,7.719,7.808,7.808,8.693,7.808a2.4,2.4,0,0,0,2.411-2.809c-.088-.42-2.676-3.163-7.587-8.118-6.569-6.591-8.361-8.184-9.046-8.073C141.19-223.9,140.88-223.83,140.615-223.786Z" transform="translate(-82.88 -199.4)" fill="#8967b3" stroke="#8967b3" stroke-width="1"/>
  </g>
</svg>
