<svg xmlns="http://www.w3.org/2000/svg" width="29.771" height="24.796" viewBox="0 0 29.771 24.796">
  <g id="telegram" transform="translate(-0.133 469.43)">
    <path id="Path_211" data-name="Path 211" d="M27.9-468.8c-1.98.728-26.407,10.109-26.768,10.283C-.061-457.948-.2-457.2.794-456.7c.1.052,1.747.577,3.674,1.176l3.5,1.089,7.942-4.973c4.373-2.731,8.036-5,8.14-5.037.274-.093.507-.087.611.023.076.076.082.111.017.221-.035.076-2.941,2.714-6.446,5.858s-6.388,5.747-6.4,5.776-.128,1.6-.262,3.494l-.245,3.436.268-.035a1.624,1.624,0,0,0,.507-.169c.14-.07,1.048-.9,2.032-1.834s1.817-1.724,1.858-1.735,1.6,1.089,3.47,2.457,3.535,2.55,3.715,2.632a1.579,1.579,0,0,0,1.339.058,1.746,1.746,0,0,0,.734-1c.047-.163,1.118-5.1,2.37-10.959,2.09-9.759,2.283-10.7,2.283-11.209a1.471,1.471,0,0,0-.146-.844,1.292,1.292,0,0,0-.4-.466A1.654,1.654,0,0,0,27.9-468.8Z" transform="translate(0 -0.498)" fill="#fff"/>
  </g>
</svg>
