<svg xmlns="http://www.w3.org/2000/svg" width="47.379" height="47.371" viewBox="0 0 47.379 47.371">
  <g id="template" transform="translate(0.01 511.926)">
    <path id="Path_261" data-name="Path 261" d="M5.127-511.766a9.166,9.166,0,0,0-1.518.555,5.034,5.034,0,0,0-1.675,1.221A4.767,4.767,0,0,0,.7-508.305c-.768,1.592-.713.093-.713,20.08s-.056,18.488.713,20.08a4.766,4.766,0,0,0,1.231,1.684,4.874,4.874,0,0,0,1.675,1.212,7.508,7.508,0,0,0,3.97.712,7.508,7.508,0,0,0,3.97-.712,4.874,4.874,0,0,0,1.675-1.212,4.766,4.766,0,0,0,1.231-1.684c.768-1.592.713-.093.713-20.08s.056-18.488-.713-20.08a4.767,4.767,0,0,0-1.231-1.684,4.875,4.875,0,0,0-1.675-1.212,7.48,7.48,0,0,0-4.035-.7A14.508,14.508,0,0,0,5.127-511.766Zm4.682,3.794a3.27,3.27,0,0,1,1.416,1.416l.194.426v35.811l-.194.426a3.27,3.27,0,0,1-1.416,1.416c-.389.176-.583.194-2.23.194s-1.841-.019-2.23-.194a3.27,3.27,0,0,1-1.416-1.416l-.194-.426-.028-17.628c-.019-12.631,0-17.767.074-18.109a2.769,2.769,0,0,1,1.8-1.99,5.923,5.923,0,0,1,2.128-.148C9.2-508.166,9.43-508.148,9.809-507.972Z" transform="translate(0 -0.019)" fill="#fff"/>
    <path id="Path_262" data-name="Path 262" d="M211.136-511.785a8.572,8.572,0,0,0-1.527.565A4.739,4.739,0,0,0,207.934-510a4.739,4.739,0,0,0-1.221,1.675,7.545,7.545,0,0,0-.713,3.979,7.544,7.544,0,0,0,.713,3.979,4.738,4.738,0,0,0,1.221,1.675,4.738,4.738,0,0,0,1.675,1.221c1.518.731,1.221.713,10.549.713s9.031.018,10.549-.713a4.739,4.739,0,0,0,1.675-1.221,4.738,4.738,0,0,0,1.221-1.675,7.545,7.545,0,0,0,.712-3.979,7.545,7.545,0,0,0-.712-3.979A4.739,4.739,0,0,0,232.382-510a4.739,4.739,0,0,0-1.675-1.221c-1.527-.731-1.2-.712-10.614-.7C213.153-511.924,211.672-511.9,211.136-511.785Zm17.822,3.794a3.269,3.269,0,0,1,1.416,1.416c.176.389.194.583.194,2.23s-.018,1.841-.194,2.23a3.269,3.269,0,0,1-1.416,1.416c-.426.194-.426.194-8.8.194s-8.374,0-8.8-.194a3.2,3.2,0,0,1-1.407-1.416,4.41,4.41,0,0,1-.231-1.953,10.976,10.976,0,0,1,.074-2.008,2.771,2.771,0,0,1,1.8-1.99c.426-.148,1.073-.157,8.7-.139C228.5-508.185,228.532-508.185,228.958-507.991Z" transform="translate(-186.947 0)" fill="#fff"/>
    <path id="Path_263" data-name="Path 263" d="M211.135-304.785a8.571,8.571,0,0,0-1.527.564A4.738,4.738,0,0,0,207.934-303a4.739,4.739,0,0,0-1.221,1.675c-.731,1.518-.713,1.221-.713,10.5s-.019,8.985.713,10.5a4.738,4.738,0,0,0,1.221,1.675,4.739,4.739,0,0,0,1.675,1.221c1.518.731,1.221.713,10.549.713s9.031.018,10.549-.713a4.739,4.739,0,0,0,1.675-1.221,4.738,4.738,0,0,0,1.221-1.675c.75-1.545.907-3.118.407-3.877a1.658,1.658,0,0,0-1.555-.8c-1.092,0-1.684.592-1.841,1.851a4.648,4.648,0,0,1-.268,1.11,3.222,3.222,0,0,1-1.388,1.379c-.426.194-.426.194-8.8.194s-8.374,0-8.8-.194a3.27,3.27,0,0,1-1.416-1.416c-.194-.426-.194-.426-.194-8.754s0-8.328.194-8.754a3.485,3.485,0,0,1,.592-.824,3.484,3.484,0,0,1,.824-.592c.426-.194.426-.194,8.8-.194s8.374,0,8.8.194a3.269,3.269,0,0,1,1.416,1.416c.185.407.194.592.241,4.09l.046,3.664.25.37a1.664,1.664,0,0,0,1.555.814,1.664,1.664,0,0,0,1.555-.814l.25-.379.028-3.563c.028-4.155-.009-4.516-.694-5.931A4.739,4.739,0,0,0,232.381-303a4.739,4.739,0,0,0-1.675-1.221c-1.527-.731-1.2-.712-10.614-.7C213.153-304.924,211.672-304.9,211.135-304.785Z" transform="translate(-186.946 -187.845)" fill="#fff"/>
  </g>
</svg>
