<svg xmlns="http://www.w3.org/2000/svg" width="32.307" height="26.359" viewBox="0 0 32.307 26.359">
  <g id="twitter" transform="translate(-1 463.94)">
    <path id="Path_213" data-name="Path 213" d="M22.281-463.842a6.7,6.7,0,0,0-5.312,4.919,5,5,0,0,0-.146,1.572,10.463,10.463,0,0,0,.044,1.319l.044.279-.425-.044a18.77,18.77,0,0,1-7.3-2.067,19.477,19.477,0,0,1-5.566-4.38,1.606,1.606,0,0,0-.425-.412,2.3,2.3,0,0,0-.3.57,6.68,6.68,0,0,0,.444,6.289,7.236,7.236,0,0,0,1.382,1.547l.475.387H4.93a6.876,6.876,0,0,1-2.346-.634,1.461,1.461,0,0,0-.3-.127,5.265,5.265,0,0,0,.171,1.718,6.67,6.67,0,0,0,4.361,4.64c.355.12.609.235.558.254a7.414,7.414,0,0,1-1.953.158l-.824-.038.044.165a7.657,7.657,0,0,0,.83,1.572,6.713,6.713,0,0,0,4.736,2.8,1.171,1.171,0,0,1,.488.089,12.857,12.857,0,0,1-2.289,1.414A12.8,12.8,0,0,1,2.173-440.5L1-440.526l.33.209A27.193,27.193,0,0,0,3.948-439a19.6,19.6,0,0,0,11.626.945,18.383,18.383,0,0,0,12.907-10.9,19.293,19.293,0,0,0,1.591-7.29l.019-1.141.463-.368a16.611,16.611,0,0,0,1.743-1.661,8.652,8.652,0,0,0,1.008-1.344,1.829,1.829,0,0,0-.425.139,13.117,13.117,0,0,1-3.081.78c-.07-.013-.019-.076.165-.2a8.087,8.087,0,0,0,1.7-1.743,6.7,6.7,0,0,0,.78-1.566,3.508,3.508,0,0,0-.862.361,15.359,15.359,0,0,1-2.859,1.033l-.463.108-.387-.355A6.636,6.636,0,0,0,22.281-463.842Z" fill="#fff"/>
  </g>
</svg>
