<svg xmlns="http://www.w3.org/2000/svg" width="72.948" height="74.367" viewBox="0 0 72.948 74.367">
  <g id="ui_ux_design" transform="translate(-5.648 512.843)">
    <path id="Path_25" data-name="Path 25" d="M65.634-511.793c-.3.3-.37.541-.484,1.665-.213,2.163-1.736,4.455-5.693,8.568-2.348,2.434-3.273,3.686-4,5.408a12.6,12.6,0,0,0-.655,7.742,9.539,9.539,0,0,0,3.715,5.365,2.292,2.292,0,0,1,.712.584c0,.2-.484.341-2.064.64a27.7,27.7,0,0,1-7.1.085c-3.771-.712-6.561-2.448-7.728-4.825-1.893-3.843.6-8.61,6.291-12.012,2.149-1.281,3.1-2.391,3.572-4.17a6.2,6.2,0,0,0-3.046-6.874,8.037,8.037,0,0,0-3.515-.882c-7.273-.726-13.335.2-19.142,2.918a25.271,25.271,0,0,0-3.942,2.234,1.105,1.105,0,0,0-.043,1.523c.427.427,1.025.356,2.064-.285a32,32,0,0,1,12-4.184,49.276,49.276,0,0,1,9.165-.014,6.049,6.049,0,0,1,2.405.583,3.844,3.844,0,0,1,2.035,3.544,3.37,3.37,0,0,1-1.637,3.074c-.427.27-1.423.939-2.22,1.466a15.306,15.306,0,0,0-6.234,7.344,10.809,10.809,0,0,0-.37,4.853c.64,3.1,3.373,5.821,7.13,7.1a22.639,22.639,0,0,0,11.442.5,5.673,5.673,0,0,1,1.025-.171c.071.085.5,7.1.441,7.273a.789.789,0,0,1-.512.3,6.7,6.7,0,0,0-2.619,1.807,7.9,7.9,0,0,0-.911,1.48,4.276,4.276,0,0,0-.4,2.405,4.207,4.207,0,0,0,.455,2.519A7.694,7.694,0,0,0,56.9-462.55a6.958,6.958,0,0,0,3.174,1.779c.555.085.569.1.64.825.085.683.8,10.8.8,11.186,0,.27-2.946,2.121-4.91,3.088a31.889,31.889,0,0,1-14.73,3.387,31.249,31.249,0,0,1-13.734-2.946,33.283,33.283,0,0,1-19.3-26.286,41.784,41.784,0,0,1,.071-8.539A34.51,34.51,0,0,1,14.3-494.287a34.987,34.987,0,0,1,6.12-6.846,6.565,6.565,0,0,0,1.067-1.067,1.029,1.029,0,0,0-1-1.48c-.769,0-4.028,3.046-6.248,5.835a36.163,36.163,0,0,0-7.486,17.434,46.5,46.5,0,0,0,0,9.749,35.565,35.565,0,0,0,30.129,30.272,46.643,46.643,0,0,0,9.962,0,42.786,42.786,0,0,0,6.831-1.694,42.847,42.847,0,0,0,6.76-3.216c.754-.47,1.167-.655,1.224-.555a13.415,13.415,0,0,1,.2,2.021c.114,2.064.27,2.6,1.025,3.373,1.907,1.964,6.276,1.48,7.358-.811.2-.4.37-2.106.811-7.728l.569-7.216.754-1.281a34.765,34.765,0,0,0,4.938-17.377,8.542,8.542,0,0,0-.854-4.4,10.855,10.855,0,0,0-2.163-2.989l-.5-.427,1.082-1.153a10.71,10.71,0,0,0,2.576-4.554,15.357,15.357,0,0,0-.825-8.881A45.891,45.891,0,0,0,67.6-511.195C66.658-512.163,66.16-512.319,65.634-511.793Zm3.4,5.707c3.316,4.3,5.607,8.724,6.347,12.24a14.4,14.4,0,0,1,0,4.882,8.931,8.931,0,0,1-2.177,3.757l-.911.925-5.992-.1c-6.618-.114-6.276-.057-7.4-1.11-2.206-2.035-2.889-5.792-1.694-9.194.612-1.722,1.21-2.6,3.216-4.711a56.262,56.262,0,0,0,4.668-5.351,16.142,16.142,0,0,0,1.864-3.515l.1-.327.356.427C67.612-507.936,68.338-507,69.035-506.086Zm2.434,24c0,.228-.7,9.123-.783,9.962l-.1.9H62.076v-.4c0-.213-.157-2.59-.356-5.294s-.356-5-.356-5.1c0-.128,1.11-.171,5.052-.171C69.192-482.19,71.469-482.147,71.469-482.091Zm2.974,3.643c.655,1.267.783,2.149.669,4.654a29.433,29.433,0,0,1-1.082,6.917A34.928,34.928,0,0,1,72.1-461.6c-.028-.029.27-4.113.655-9.08s.712-9.094.712-9.165C73.476-480.084,74-479.33,74.443-478.447Zm-14.175,11.77c.128,1.978.213,3.629.185,3.672-.128.128-.74-.114-1.352-.512a3.866,3.866,0,0,1-.555-5.949c.626-.583,1.139-.925,1.324-.868A24.373,24.373,0,0,1,60.268-466.677ZM70.4-468.214c-.057.5-.527,6.5-1.067,13.349s-1.01,12.567-1.067,12.7c-.171.427-1.067.754-2.064.74-1.039,0-1.793-.313-1.992-.811-.071-.171-.512-6.048-.982-13.051s-.9-12.98-.939-13.279l-.071-.526h8.269Z" fill="#8967b3" stroke="#8967b3" stroke-width="1.5"/>
    <path id="Path_26" data-name="Path 26" d="M93.945-410.6a7.178,7.178,0,0,0-4.1,3.359,7.093,7.093,0,0,0,3.174,9.863,4.783,4.783,0,0,0,2.747.669,6.487,6.487,0,0,0,4-.925A7.215,7.215,0,0,0,102-407.812a7.441,7.441,0,0,0-3.2-2.619A7.983,7.983,0,0,0,93.945-410.6Zm4.3,2.291a5.832,5.832,0,0,1,2.419,2.491,5.588,5.588,0,0,1,.114,3.757,5.589,5.589,0,0,1-2.533,2.775,3.7,3.7,0,0,1-2.163.4,3.363,3.363,0,0,1-2.249-.484,4.963,4.963,0,0,1-1.85-7.216,4.918,4.918,0,0,1,2.334-1.85A5.153,5.153,0,0,1,98.243-408.31Z" transform="translate(-70.722 -86.788)" fill="#8967b3" stroke="#8967b3" stroke-width="1.5"/>
    <path id="Path_27" data-name="Path 27" d="M59.075-290.5a7.229,7.229,0,0,0-5.693,5.437,7.23,7.23,0,0,0,5.266,8.582,7.211,7.211,0,0,0,8.1-3.8,7.11,7.11,0,0,0-4.141-9.948A8.607,8.607,0,0,0,59.075-290.5Zm3.159,2.448a5,5,0,0,1,3.017,5.437,5.084,5.084,0,0,1-2.946,3.757,4.992,4.992,0,0,1-3.942-.014,5.331,5.331,0,0,1-2.576-2.576,5.028,5.028,0,0,1-.028-3.956A4.992,4.992,0,0,1,62.234-288.049Z" transform="translate(-40.05 -189.986)" fill="#8967b3" stroke="#8967b3" stroke-width="1.5"/>
    <path id="Path_28" data-name="Path 28" d="M129.3-185.68a6.929,6.929,0,0,0-4.284,3.643,6.4,6.4,0,0,0-.669,4.44,7.04,7.04,0,0,0,7,5.878,6.679,6.679,0,0,0,5.081-2.121,6.809,6.809,0,0,0,2.078-5.422,7.148,7.148,0,0,0-5.209-6.461A8.442,8.442,0,0,0,129.3-185.68Zm4.2,2.334a4.967,4.967,0,0,1,2.718,5.664,4.966,4.966,0,0,1-5.223,3.8,4.891,4.891,0,0,1-4.156-2.932,4.919,4.919,0,0,1,.455-4.91A5.042,5.042,0,0,1,133.5-183.346Z" transform="translate(-100.954 -279.73)" fill="#8967b3" stroke="#8967b3" stroke-width="1.5"/>
    <path id="Path_29" data-name="Path 29" d="M250.457-156.51a8.674,8.674,0,0,0-1.822.626,7.139,7.139,0,0,0-2.6,10.788A7.2,7.2,0,0,0,254.8-143c1.309-.626,1.921-1.2,1.921-1.793a1,1,0,0,0-1-1.053,3.284,3.284,0,0,0-1.267.541,4.954,4.954,0,0,1-6.476-.84,4.415,4.415,0,0,1-1.2-3.544,4.508,4.508,0,0,1,1.395-3.273,4.508,4.508,0,0,1,3.273-1.395,4.116,4.116,0,0,1,2.021.256,5.22,5.22,0,0,1,2.761,2.59,6.412,6.412,0,0,1,.342,3.5c-.071.74.313,1.21.982,1.21.868,0,1.3-.868,1.3-2.633A7.235,7.235,0,0,0,250.457-156.51Z" transform="translate(-204.178 -304.887)" fill="#8967b3" stroke="#8967b3" stroke-width="1.5"/>
  </g>
</svg>
