<svg xmlns="http://www.w3.org/2000/svg" width="27.884" height="33.434" viewBox="0 0 27.884 33.434">
  <g id="user" transform="translate(-42.115 511.813)">
    <path id="Path_243" data-name="Path 243" d="M135.975-511.727a7.96,7.96,0,0,0-4.626,2.45,7.78,7.78,0,0,0-2.182,5.162,8.011,8.011,0,0,0,3.639,7.083,7.475,7.475,0,0,0,3.679,1.274,7.821,7.821,0,0,0,6.462-2.385,7.541,7.541,0,0,0,2.267-4.92,7.89,7.89,0,0,0-2.738-6.782,7.434,7.434,0,0,0-4.084-1.882A8.559,8.559,0,0,0,135.975-511.727Z" transform="translate(-81.355)" fill="#fff"/>
    <path id="Path_244" data-name="Path 244" d="M48.687-264.719c-2.953.314-5.005,2.431-5.959,6.168a17.154,17.154,0,0,0-.392,7.122,5.461,5.461,0,0,0,2.686,3.287,6.679,6.679,0,0,0,2.071.6c.405.052,3.489.065,9.39.052l8.788-.02.555-.157a5.389,5.389,0,0,0,3.992-3.894,16.559,16.559,0,0,0-.078-5.338c-.686-4.247-2.424-6.8-5.175-7.593a6.921,6.921,0,0,0-2.084-.255,6.1,6.1,0,0,0-1.771.941,7.805,7.805,0,0,1-2.026,1.072,6.987,6.987,0,0,1-2.588.5,7.056,7.056,0,0,1-2.548-.457,8.245,8.245,0,0,1-2.287-1.2,8.428,8.428,0,0,0-1.464-.81A2.243,2.243,0,0,0,48.687-264.719Z" transform="translate(0 -230.895)" fill="#fff"/>
  </g>
</svg>
