<svg xmlns="http://www.w3.org/2000/svg" width="22.087" height="21.178" viewBox="0 0 22.087 21.178">
  <g id="verify-_1_" transform="translate(-0.5 501.025)">
    <path id="Path_299" data-name="Path 299" d="M8.077-500.942a1.7,1.7,0,0,0-.713.5,4.353,4.353,0,0,0-.769,1.474c-.294.8-.437,1.063-.605,1.111a9.063,9.063,0,0,1-.964.078,11.251,11.251,0,0,0-1.167.112,1.79,1.79,0,0,0-1.547,1.4,3.834,3.834,0,0,0,.264,1.984,6.69,6.69,0,0,1,.173.748c.03.246.03.255-.112.406-.082.082-.389.341-.687.575a4.127,4.127,0,0,0-1.292,1.379,1.217,1.217,0,0,0-.156.739,1.218,1.218,0,0,0,.156.739,4.127,4.127,0,0,0,1.292,1.379c.3.233.605.493.687.575.138.147.143.16.112.4a9.364,9.364,0,0,1-.22.916,9.4,9.4,0,0,0-.238,1.05A1.818,1.818,0,0,0,3.863-483.2a11.413,11.413,0,0,0,1.167.112,8.9,8.9,0,0,1,.96.078c.169.047.311.311.605,1.111.415,1.124.752,1.617,1.31,1.889a1.249,1.249,0,0,0,.644.16,2.991,2.991,0,0,0,1.928-.756,3.4,3.4,0,0,1,1.068-.579,3.4,3.4,0,0,1,1.068.579,2.943,2.943,0,0,0,1.936.752,1.359,1.359,0,0,0,.64-.156c.549-.272.895-.769,1.305-1.889.294-.8.437-1.063.605-1.111a9.149,9.149,0,0,1,.964-.078,11.282,11.282,0,0,0,1.167-.112,1.785,1.785,0,0,0,1.547-1.4,3.834,3.834,0,0,0-.264-1.984,6.693,6.693,0,0,1-.173-.748c-.03-.251-.03-.255.134-.428.1-.091.354-.311.579-.48a9.826,9.826,0,0,0,.808-.7,2.284,2.284,0,0,0,.562-.739,1.221,1.221,0,0,0,.164-.752,1.217,1.217,0,0,0-.156-.739,4.127,4.127,0,0,0-1.292-1.379c-.3-.233-.605-.493-.687-.579l-.151-.156.056-.346a3.918,3.918,0,0,1,.134-.584,8.044,8.044,0,0,0,.324-1.426,1.779,1.779,0,0,0-.977-1.828,4.489,4.489,0,0,0-1.776-.311,9.185,9.185,0,0,1-.964-.078c-.169-.048-.311-.311-.605-1.111-.415-1.124-.752-1.617-1.31-1.889a1.249,1.249,0,0,0-.644-.16,2.99,2.99,0,0,0-1.928.756,3.4,3.4,0,0,1-1.068.579,3.243,3.243,0,0,1-1.007-.536,4.752,4.752,0,0,0-1.253-.7A1.957,1.957,0,0,0,8.077-500.942Zm7.2,7.313a1.081,1.081,0,0,1,.571.5,1.012,1.012,0,0,1-.017.778c-.048.1-1.115,1.193-2.542,2.615-2.33,2.321-2.464,2.451-2.663,2.5a.888.888,0,0,1-.7-.1,29.431,29.431,0,0,1-2.684-2.723.907.907,0,0,1,.83-1.279c.385,0,.523.1,1.465,1.042l.864.864,2.075-2.07A21.108,21.108,0,0,1,14.7-493.62.934.934,0,0,1,15.274-493.629Z" fill="#8967b3"/>
  </g>
</svg>
