<svg xmlns="http://www.w3.org/2000/svg" width="28.727" height="20.084" viewBox="0 0 28.727 20.084">
  <g id="youtube" transform="translate(-0.356 434.718)">
    <path id="Path_214" data-name="Path 214" d="M10.756-434.672c-4.123.1-6.729.32-7.594.64a3.731,3.731,0,0,0-2.342,3.005A43.017,43.017,0,0,0,.9-417.91a3.7,3.7,0,0,0,2.342,2.618c1.337.461,6.218.708,12.936.652,5.325-.051,8.184-.2,9.633-.522a3.613,3.613,0,0,0,2.449-1.96c.433-.91.663-2.651.792-5.915a38.192,38.192,0,0,0-.5-8.325,3.819,3.819,0,0,0-1.348-2.129,4.007,4.007,0,0,0-1.837-.736A107.082,107.082,0,0,0,10.756-434.672Zm4.8,7.813c1.994,1.146,3.662,2.112,3.7,2.146a25.528,25.528,0,0,1-3.483,2.112c-1.949,1.123-3.634,2.1-3.73,2.151l-.185.107v-4.3c0-2.365.017-4.3.034-4.3S13.553-428.01,15.553-426.858Z" transform="translate(0 0)" fill="#fff"/>
  </g>
</svg>
